STARTFONT 2.1
COMMENT
COMMENT Converted from OpenType font "Q:\font stuff\winfont\consola.ttf" by "otf2bdf 3.0".
COMMENT
FONT -FreeType-Consolas-Medium-R-Normal--96-960-72-72-P-413-ISO10646-1
SIZE 96 72 72
FONTBOUNDINGBOX 94 120 -28 -29
STARTPROPERTIES 19
FOUNDRY "FreeType"
FAMILY_NAME "Consolas"
WEIGHT_NAME "Medium"
SLANT "R"
SETWIDTH_NAME "Normal"
ADD_STYLE_NAME ""
PIXEL_SIZE 66
POINT_SIZE 960
RESOLUTION_X 72
RESOLUTION_Y 72
SPACING "P"
AVERAGE_WIDTH 413
CHARSET_REGISTRY "ISO10646"
CHARSET_ENCODING "1"
FONT_ASCENT 71
FONT_DESCENT 24
COPYRIGHT "© 2008 Microsoft Corporation. All Rights Reserved."
_OTF_FONTFILE "Q:\font stuff\winfont\consola.ttf"
_OTF_PSNAME "Consolas"
ENDPROPERTIES
CHARS 2214
STARTCHAR 000D
ENCODING 13
SWIDTH 552 0
DWIDTH 53 0
BBX 0 0 0 0
BITMAP
ENDCHAR
STARTCHAR 0020
ENCODING 32
SWIDTH 552 0
DWIDTH 53 0
BBX 0 0 0 0
BITMAP
ENDCHAR
STARTCHAR 0021
ENCODING 33
SWIDTH 552 0
DWIDTH 53 0
BBX 12 67 20 -1
BITMAP
7FE0
7FE0
7FE0
7FE0
7FE0
7FE0
7FE0
7FE0
7FE0
7FE0
7FE0
7FE0
7FE0
7FE0
7FE0
7FE0
7FE0
3FE0
3FE0
3FE0
3FC0
3FC0
3FC0
3FC0
3FC0
3FC0
3FC0
3FC0
3FC0
3FC0
3FC0
3FC0
3FC0
3FC0
3FC0
3FC0
3FC0
3FC0
3FC0
3FC0
3FC0
3FC0
3FC0
3FC0
3FC0
3FC0
3FC0
3FC0
3FC0
0000
0000
0000
0000
0000
0000
0F00
3FC0
7FE0
7FE0
FFF0
FFF0
FFF0
FFF0
7FE0
7FE0
3FC0
0F00
ENDCHAR
STARTCHAR 0022
ENCODING 34
SWIDTH 552 0
DWIDTH 53 0
BBX 28 22 13 44
BITMAP
FFC03FF0
FFC03FF0
FFC03FF0
FFC03FF0
FFC03FF0
FFC03FF0
FFC03FF0
FFC03FF0
7FC01FF0
7F801FE0
7F801FE0
7F801FE0
7F801FE0
7F801FE0
7F801FE0
7F801FE0
7F801FE0
7F801FE0
7F801FE0
7F801FE0
7F801FE0
7F801FE0
ENDCHAR
STARTCHAR 0023
ENCODING 35
SWIDTH 552 0
DWIDTH 53 0
BBX 49 61 2 0
BITMAP
0003F8003F8000
0003F8003F8000
0003F8003F8000
0003F8003F8000
0003F8003F8000
0007F0007F0000
0007F0007F0000
0007F0007F0000
0007F0007F0000
0007F0007F0000
0007F0007F0000
0007F0007F0000
0007F0007F0000
0007F0007F0000
0007F0007E0000
3FFFFFFFFFFF80
3FFFFFFFFFFF80
3FFFFFFFFFFF80
3FFFFFFFFFFF80
3FFFFFFFFFFF80
3FFFFFFFFFFF80
000FE000FE0000
000FE000FE0000
000FE000FE0000
000FE000FE0000
001FC001FC0000
001FC001FC0000
001FC001FC0000
001FC001FC0000
001FC001FC0000
001FC001FC0000
001FC001FC0000
001FC001FC0000
001FC001FC0000
001FC001FC0000
003FC003FC0000
003F8003F80000
003F8003F80000
FFFFFFFFFFFE00
FFFFFFFFFFFE00
FFFFFFFFFFFE00
FFFFFFFFFFFE00
FFFFFFFFFFFE00
FFFFFFFFFFFE00
003F8003F80000
003F8003F80000
007F0007F00000
007F0007F00000
007F0007F00000
007F0007F00000
007F0007F00000
007F0007F00000
007F0007F00000
007F0007F00000
007F0007F00000
007F0007F00000
00FE000FE00000
00FE000FE00000
00FE000FE00000
00FE000FE00000
00FE000FE00000
ENDCHAR
STARTCHAR 0024
ENCODING 36
SWIDTH 552 0
DWIDTH 53 0
BBX 42 81 6 -11
BITMAP
000001FC0000
000001F80000
000003F80000
000003F80000
000003F80000
000003F80000
000003F80000
000003F80000
000003F80000
00007FFF0000
0007FFFFF000
003FFFFFFC00
00FFFFFFFC00
03FFFFFFFC00
07FFFFFFFC00
0FFFFFFFFC00
1FFF87E1FC00
3FFC0FE00C00
3FF00FE00000
7FE00FE00000
7FC00FE00000
7FC00FE00000
FF800FE00000
FF800FC00000
FF801FC00000
FF801FC00000
FF801FC00000
FFC01FC00000
FFC01FC00000
7FE01FC00000
7FF01FC00000
3FFC1F800000
3FFF3F800000
1FFFFF800000
0FFFFF800000
07FFFF800000
03FFFFC00000
00FFFFF00000
007FFFFC0000
000FFFFF0000
0003FFFFC000
00007FFFF000
00007FFFF800
00007FFFFC00
00007FFFFE00
00007F3FFF00
0000FE0FFF00
0000FE03FF80
0000FE01FF80
0000FE00FFC0
0000FE00FFC0
0000FE007FC0
0000FE007FC0
0000FC007FC0
0001FC007FC0
0001FC007FC0
0001FC007FC0
0001FC00FF80
0001FC00FF80
0001FC01FF80
8001F803FF00
F003F80FFF00
FF83F87FFE00
FFFFFFFFFC00
FFFFFFFFF800
FFFFFFFFF000
FFFFFFFFC000
FFFFFFFF0000
3FFFFFF80000
00FFFF800000
0007F0000000
0007F0000000
0007F0000000
0007F0000000
0007F0000000
0007E0000000
000FE0000000
000FE0000000
000FE0000000
000FE0000000
000FE0000000
ENDCHAR
STARTCHAR 0025
ENCODING 37
SWIDTH 552 0
DWIDTH 53 0
BBX 50 68 1 -1
BITMAP
003FC000000000
00FFF000001FC0
03FFFC00003FC0
07FFFE00007F80
0FFFFE00007F80
1FFFFF0000FF00
1FE0FF8001FE00
3FC07F8001FE00
3F803F8003FC00
3F803FC007F800
7F001FC007F800
7F001FC00FF000
7F001FC01FE000
7F001FC01FE000
7F001FC03FC000
7F001FC03F8000
7F001FC07F8000
7F001FC0FF0000
7F803F80FE0000
3F803F81FE0000
3FC07F83FC0000
3FE0FF03F80000
1FFFFF07F80000
0FFFFE0FF00000
0FFFFC0FE00000
07FFF81FE00000
01FFE03FC00000
007F803FC00000
0000007F800000
000000FF000000
000000FF000000
000001FE000000
000003FC000000
000003FC000000
000007F8000000
00000FF0000000
00000FF0000000
00001FE0000000
00001FC0000000
00003FC0000000
00007F803FC000
00007F00FFF000
0000FF03FFFC00
0001FE07FFFE00
0001FC0FFFFE00
0003FC1FFFFF00
0007F81FE0FF80
0007F03FC07F80
000FF03F803F80
001FE03F803FC0
001FC07F001FC0
003FC07F001FC0
007F807F001FC0
007F807F001FC0
00FF007F001FC0
01FE007F001FC0
01FE007F001FC0
03FC007F001FC0
03F8007F803F80
07F8003F803F80
0FF0003FC07F80
0FE0003FE0FF00
1FE0001FFFFF00
3FC0000FFFFE00
3F80000FFFFC00
7F800007FFF800
FF000001FFE000
000000007F8000
ENDCHAR
STARTCHAR 0026
ENCODING 38
SWIDTH 552 0
DWIDTH 53 0
BBX 50 67 3 -1
BITMAP
00007FC0000000
0003FFF8000000
000FFFFE000000
003FFFFF000000
007FFFFFC00000
00FFFFFFC00000
00FFFFFFE00000
01FFC0FFF00000
03FF003FF00000
03FE001FF00000
03FC000FF80000
07FC0007F80000
07F80007F80000
07F80007F80000
07F80007F80000
07F80007F80000
07F80007F80000
07F8000FF80000
07FC000FF00000
07FC001FF00000
03FE001FE00000
03FE003FE00000
03FF00FFC00000
01FF81FF800000
01FFC7FF000000
00FFDFFE000000
007FFFFC000000
007FFFF8000000
003FFFE0000000
001FFF80000000
001FFF00000000
003FFC00000000
00FFFE00000000
01FFFF0007F800
03FFFF8007F800
07FFFFC007F800
0FFCFFC007F800
1FF87FE007F800
1FF03FF007F800
3FE01FF807F800
3FC01FFC07F800
7FC00FFC0FF000
7F8007FE0FF000
7F8003FF0FF000
FF0001FF8FF000
FF0001FFDFF000
FF0000FFDFE000
FF00007FFFE000
FF00003FFFE000
FF00003FFFC000
FF00001FFFC000
FF00000FFFC000
FF800007FF8000
FF800003FF8000
7F800003FF8000
7FC00001FFC000
7FE00007FFC000
3FF0000FFFE000
3FF8003FFFF000
1FFF00FFFFF800
0FFFFFFFFFFC00
0FFFFFFFEFFC00
07FFFFFF8FFE00
01FFFFFF07FF00
00FFFFFC03FF80
003FFFF001FFC0
0003FF00000000
ENDCHAR
STARTCHAR 0027
ENCODING 39
SWIDTH 552 0
DWIDTH 53 0
BBX 11 22 21 44
BITMAP
FFE0
FFE0
FFE0
FFE0
FFE0
FFE0
FFE0
FFE0
7FC0
7FC0
7FC0
7FC0
7FC0
7FC0
7FC0
7FC0
7FC0
7FC0
7FC0
7FC0
7FC0
7FC0
ENDCHAR
STARTCHAR 0028
ENCODING 40
SWIDTH 552 0
DWIDTH 53 0
BBX 26 90 14 -20
BITMAP
00000400
00000E00
00001F00
00003F80
00007FC0
0000FF80
0001FF00
0003FF00
0003FE00
0007FC00
000FF800
001FF000
001FE000
003FE000
007FC000
007F8000
00FF8000
01FF0000
01FE0000
03FE0000
03FC0000
07FC0000
07F80000
0FF80000
0FF00000
0FF00000
1FE00000
1FE00000
1FE00000
3FC00000
3FC00000
3FC00000
7FC00000
7F800000
7F800000
7F800000
7F800000
7F800000
FF000000
FF000000
FF000000
FF000000
FF000000
FF000000
FF000000
FF000000
FF000000
FF000000
FF000000
FF000000
FF000000
FF000000
FF800000
7F800000
7F800000
7F800000
7F800000
7FC00000
3FC00000
3FC00000
3FC00000
3FE00000
1FE00000
1FF00000
1FF00000
0FF00000
0FF80000
07F80000
07FC0000
03FC0000
03FE0000
01FE0000
01FF0000
00FF8000
00FF8000
007FC000
003FE000
003FE000
001FF000
000FF800
000FFC00
0007FE00
0003FF00
0001FF80
0000FFC0
00007F80
00003F80
00001F00
00000E00
00000400
ENDCHAR
STARTCHAR 0029
ENCODING 41
SWIDTH 552 0
DWIDTH 53 0
BBX 26 90 12 -20
BITMAP
08000000
1C000000
3E000000
7F000000
7F800000
FFC00000
7FE00000
3FF00000
1FF80000
0FF80000
07FC0000
03FE0000
01FF0000
01FF0000
00FF8000
007FC000
007FC000
003FE000
001FE000
001FF000
000FF000
000FF800
0007F800
0007FC00
0003FC00
0003FC00
0003FE00
0001FE00
0001FE00
0000FF00
0000FF00
0000FF00
0000FF80
00007F80
00007F80
00007F80
00007F80
00007F80
00003FC0
00003FC0
00003FC0
00003FC0
00003FC0
00003FC0
00003FC0
00003FC0
00003FC0
00003FC0
00003FC0
00003FC0
00003FC0
00003FC0
00007F80
00007F80
00007F80
00007F80
00007F80
00007F80
0000FF00
0000FF00
0000FF00
0001FE00
0001FE00
0001FE00
0003FC00
0003FC00
0007FC00
0007F800
000FF800
000FF000
001FF000
001FE000
003FE000
007FC000
007F8000
00FF8000
01FF0000
01FE0000
03FE0000
07FC0000
0FF80000
1FF80000
1FF00000
3FE00000
7FC00000
FF800000
7F000000
3E000000
1C000000
08000000
ENDCHAR
STARTCHAR 002A
ENCODING 42
SWIDTH 552 0
DWIDTH 53 0
BBX 37 40 8 26
BITMAP
0001FC0000
0001FC0000
0001FC0000
0001FC0000
0001FC0000
0001FC0000
0001FC0000
1000F80040
3800F800E0
3E00F803E0
7F00F807F0
7F80F81FF0
FFE0F83FF8
7FF0F87FF0
1FFCF9FFC0
07FEFBFF00
01FFFFFC00
007FFFF000
001FFFC000
0007FF0000
0007FE0000
001FFF8000
007FFFE000
01FFFFF800
03FEFBFE00
0FFCF9FF80
3FF0F8FFE0
FFE0F83FF8
7FC0F81FF0
7F00F807F0
3E00F803E0
3800F800E0
1001F80040
0001FC0000
0001FC0000
0001FC0000
0001FC0000
0001FC0000
0001FC0000
0001FC0000
ENDCHAR
STARTCHAR 002B
ENCODING 43
SWIDTH 552 0
DWIDTH 53 0
BBX 44 45 4 3
BITMAP
00003FC00000
00003FC00000
00003FC00000
00003FC00000
00003FC00000
00003FC00000
00003FC00000
00003FC00000
00003FC00000
00003FC00000
00003FC00000
00003FC00000
00003FC00000
00003FC00000
00003FC00000
00003FC00000
00003FC00000
00003FC00000
00003FC00000
FFFFFFFFFFF0
FFFFFFFFFFF0
FFFFFFFFFFF0
FFFFFFFFFFF0
FFFFFFFFFFF0
FFFFFFFFFFF0
FFFFFFFFFFF0
00003FC00000
00003FC00000
00003FC00000
00003FC00000
00003FC00000
00003FC00000
00003FC00000
00003FC00000
00003FC00000
00003FC00000
00003FC00000
00003FC00000
00003FC00000
00003FC00000
00003FC00000
00003FC00000
00003FC00000
00003FC00000
00003FC00000
ENDCHAR
STARTCHAR 002C
ENCODING 44
SWIDTH 552 0
DWIDTH 53 0
BBX 23 31 11 -16
BITMAP
000F80
003FE0
007FF0
007FF8
00FFFC
00FFFC
00FFFC
00FFFE
00FFFE
007FFE
007FFE
003FFE
001FFE
000FFE
000FFE
000FFE
000FFC
000FFC
000FFC
000FF8
001FF8
001FF0
007FE0
00FFE0
07FFC0
FFFF80
FFFE00
FFFC00
FFF000
FFC000
FC0000
ENDCHAR
STARTCHAR 002D
ENCODING 45
SWIDTH 552 0
DWIDTH 53 0
BBX 28 8 12 22
BITMAP
FFFFFFF0
FFFFFFF0
FFFFFFF0
FFFFFFF0
FFFFFFF0
FFFFFFF0
FFFFFFF0
FFFFFFF0
ENDCHAR
STARTCHAR 002E
ENCODING 46
SWIDTH 552 0
DWIDTH 53 0
BBX 16 16 18 -1
BITMAP
07E0
1FF8
3FFC
7FFE
7FFE
FFFF
FFFF
FFFF
FFFF
FFFF
FFFF
7FFE
7FFE
3FFC
1FF8
07E0
ENDCHAR
STARTCHAR 002F
ENCODING 47
SWIDTH 552 0
DWIDTH 53 0
BBX 40 76 5 -10
BITMAP
00000000FF
00000001FE
00000001FE
00000001FC
00000003FC
00000003F8
00000007F8
00000007F8
0000000FF0
0000000FF0
0000000FE0
0000001FE0
0000001FE0
0000003FC0
0000003FC0
0000007F80
0000007F80
0000007F00
000000FF00
000000FF00
000001FE00
000001FE00
000001FC00
000003FC00
000003F800
000007F800
000007F800
00000FF000
00000FF000
00000FE000
00001FE000
00001FE000
00003FC000
00003FC000
00007F8000
00007F8000
00007F0000
0000FF0000
0000FF0000
0001FE0000
0001FE0000
0001FC0000
0003FC0000
0003F80000
0007F80000
0007F80000
000FF00000
000FF00000
000FE00000
001FE00000
001FE00000
003FC00000
003FC00000
007F800000
007F800000
007F000000
00FF000000
00FF000000
01FE000000
01FE000000
01FC000000
03FC000000
03F8000000
07F8000000
07F8000000
0FF0000000
0FF0000000
0FE0000000
1FE0000000
1FE0000000
3FC0000000
3FC0000000
7F80000000
7F80000000
7F00000000
FF00000000
ENDCHAR
STARTCHAR 0030
ENCODING 48
SWIDTH 552 0
DWIDTH 53 0
BBX 44 63 4 -1
BITMAP
00003FE00000
0003FFFC0000
000FFFFF8000
001FFFFFC000
007FFFFFE000
00FFFFFFF000
01FFFFFFF800
03FFE07FFC00
03FF000FFE00
07FE0007FE00
07FC0003FF00
0FF80001FF00
1FF00000FF80
1FF00000FF80
1FE000007FC0
3FE000007FC0
3FC000003FC0
3FC000003FC0
7FC000007FE0
7F800000FFE0
7F800001FFE0
7F800007FFE0
7F80000FFFE0
FF80001FFFF0
FF00007FFFF0
FF0000FFFFF0
FF0003FFEFF0
FF0007FFCFF0
FF000FFF0FF0
FF003FFE0FF0
FF007FFC0FF0
FF00FFF00FF0
FF03FFE00FF0
FF07FF800FF0
FF0FFF000FF0
FF3FFE000FF0
FF7FF8000FF0
FFFFF0000FF0
FFFFE0000FF0
FFFF80001FE0
7FFF00001FE0
7FFE00001FE0
7FF800001FE0
7FF000001FE0
7FC000003FE0
7FC000003FC0
3FC000003FC0
3FE000007FC0
3FE000007F80
1FF00000FF80
1FF00000FF80
0FF80001FF00
0FFC0003FF00
07FE0007FE00
07FF000FFC00
03FFC07FFC00
01FFFFFFF800
00FFFFFFF000
007FFFFFE000
003FFFFF8000
001FFFFF0000
0007FFFC0000
00007FC00000
ENDCHAR
STARTCHAR 0031
ENCODING 49
SWIDTH 552 0
DWIDTH 53 0
BBX 41 61 6 0
BITMAP
00001FE00000
00007FE00000
0001FFE00000
0007FFE00000
001FFFE00000
007FFFE00000
01FFFFE00000
07FFFFE00000
1FFFBFE00000
7FFF3FE00000
FFFC3FE00000
7FF03FE00000
7FE03FE00000
3F803FE00000
3E003FE00000
3C003FE00000
10003FE00000
00003FE00000
00003FE00000
00003FE00000
00003FE00000
00003FE00000
00003FE00000
00003FE00000
00003FE00000
00003FE00000
00003FE00000
00003FE00000
00003FE00000
00003FE00000
00003FE00000
00003FE00000
00003FE00000
00003FE00000
00003FE00000
00003FE00000
00003FE00000
00003FE00000
00003FE00000
00003FE00000
00003FE00000
00003FE00000
00003FE00000
00003FE00000
00003FE00000
00003FE00000
00003FE00000
00003FE00000
00003FE00000
00003FE00000
00003FE00000
00003FE00000
00003FE00000
3FFFFFFFFF80
3FFFFFFFFF80
3FFFFFFFFF80
3FFFFFFFFF80
3FFFFFFFFF80
3FFFFFFFFF80
3FFFFFFFFF80
3FFFFFFFFF80
ENDCHAR
STARTCHAR 0032
ENCODING 50
SWIDTH 552 0
DWIDTH 53 0
BBX 40 62 7 0
BITMAP
0007FE0000
003FFFE000
01FFFFF800
07FFFFFC00
0FFFFFFF00
1FFFFFFF80
7FFFFFFF80
FFF807FFC0
7FE001FFE0
7F80007FE0
3E00003FF0
1C00003FF0
0800001FF0
0000001FF8
0000001FF8
0000000FF8
0000000FF8
0000000FF8
0000000FF8
0000000FF8
0000000FF8
0000000FF8
0000000FF8
0000001FF0
0000001FF0
0000001FF0
0000003FE0
0000003FE0
0000007FC0
000000FFC0
000001FF80
000001FF00
000003FF00
000007FE00
00000FFC00
00001FF800
00003FF000
00007FF000
0000FFE000
0001FFC000
0003FF8000
0007FF0000
000FFE0000
001FFC0000
003FF80000
007FF00000
00FFE00000
01FFC00000
03FF800000
07FF000000
0FFE000000
1FFC000000
3FF8000000
7FF0000000
FFFFFFFFFF
FFFFFFFFFF
FFFFFFFFFF
FFFFFFFFFF
FFFFFFFFFF
FFFFFFFFFF
FFFFFFFFFF
FFFFFFFFFF
ENDCHAR
STARTCHAR 0033
ENCODING 51
SWIDTH 552 0
DWIDTH 53 0
BBX 39 63 8 -1
BITMAP
007FFC0000
0FFFFFC000
3FFFFFF000
3FFFFFFC00
3FFFFFFE00
3FFFFFFF00
3FFFFFFF80
3F800FFFC0
300001FFE0
000000FFE0
0000007FE0
0000003FF0
0000003FF0
0000001FF0
0000001FF0
0000001FF0
0000001FF0
0000001FF0
0000001FF0
0000001FE0
0000003FE0
0000003FE0
0000007FC0
000000FFC0
000001FF80
000003FF00
00001FFE00
00FFFFFC00
00FFFFF000
00FFFFC000
00FFFFF800
00FFFFFE00
00FFFFFF80
00FFFFFFC0
00000FFFE0
000000FFF0
0000003FF8
0000001FF8
0000000FFC
00000007FC
00000007FE
00000003FE
00000003FE
00000003FE
00000003FE
00000003FE
00000003FE
00000003FE
00000007FC
00000007FC
0000000FFC
0000001FF8
0000003FF8
0000007FF0
000001FFE0
F0001FFFC0
FFFFFFFF80
FFFFFFFF00
FFFFFFFE00
FFFFFFF800
FFFFFFE000
FFFFFF0000
0FFFE00000
ENDCHAR
STARTCHAR 0034
ENCODING 52
SWIDTH 552 0
DWIDTH 53 0
BBX 48 61 2 0
BITMAP
0000007FF800
0000007FF800
000000FFF800
000001FFF800
000001FFF800
000003FFF800
000003FFF800
000007FFF800
00000FFFF800
00000FF7F800
00001FE7F800
00003FE7F800
00003FC7F800
00007FC7F800
00007F87F800
0000FF07F800
0001FF07F800
0001FE07F800
0003FC07F800
0007FC07F800
0007F807F800
000FF007F800
000FF007F800
001FE007F800
003FE007F800
003FC007F800
007F8007F800
00FF8007F800
00FF0007F800
01FE0007F800
01FE0007F800
03FC0007F800
07FC0007F800
07F80007F800
0FF00007F800
1FF00007F800
1FE00007F800
3FC00007F800
3FC00007F800
7F800007F800
FF000007F800
FFFFFFFFFFFF
FFFFFFFFFFFF
FFFFFFFFFFFF
FFFFFFFFFFFF
FFFFFFFFFFFF
FFFFFFFFFFFF
FFFFFFFFFFFF
00000007F800
00000007F800
00000007F800
00000007F800
00000007F800
00000007F800
00000007F800
00000007F800
00000007F800
00000007F800
00000007F800
00000007F800
00000007F800
ENDCHAR
STARTCHAR 0035
ENCODING 53
SWIDTH 552 0
DWIDTH 53 0
BBX 38 62 8 -1
BITMAP
7FFFFFFFE0
7FFFFFFFE0
7FFFFFFFE0
7FFFFFFFE0
7FFFFFFFE0
7FFFFFFFE0
7FFFFFFFE0
7F80000000
7F80000000
7F80000000
7F80000000
7F80000000
7F80000000
7F80000000
7F80000000
7F80000000
7F80000000
7F80000000
7F80000000
7F80000000
7F80000000
7F80000000
7F80000000
7F80000000
7FFFF80000
7FFFFFC000
7FFFFFF000
7FFFFFFC00
7FFFFFFF00
7FFFFFFF80
7FFFFFFFC0
00001FFFE0
000003FFF0
0000007FF0
0000003FF8
0000001FF8
0000000FF8
0000000FFC
0000000FFC
00000007FC
00000007FC
00000007FC
00000007FC
00000007FC
00000007FC
00000007FC
0000000FF8
0000000FF8
0000001FF8
0000001FF0
0000003FF0
0000007FE0
000001FFC0
000007FF80
E0003FFF80
FFFFFFFE00
FFFFFFFC00
FFFFFFF800
FFFFFFE000
FFFFFF8000
FFFFFC0000
0FFFC00000
ENDCHAR
STARTCHAR 0036
ENCODING 54
SWIDTH 552 0
DWIDTH 53 0
BBX 43 62 6 -1
BITMAP
0000007FFC00
00000FFFFC00
00007FFFFC00
0001FFFFFC00
0007FFFFFC00
001FFFFFFC00
003FFFFFFC00
007FFF800000
00FFF8000000
01FFC0000000
03FF80000000
03FE00000000
07FC00000000
0FF800000000
0FF000000000
1FE000000000
1FE000000000
1FC000000000
3FC000000000
3F8000000000
3F8000000000
7F8000000000
7F8000000000
7F003FF80000
7F03FFFF0000
7F1FFFFFE000
7F7FFFFFF000
FFFFFFFFF800
FFFFFFFFFC00
FFFFFFFFFE00
FFFF803FFF00
FFFC0007FF80
FFE00003FF80
FF800001FFC0
FF000000FFC0
FF0000007FC0
FF0000007FC0
FF0000007FE0
FF0000003FE0
FF0000003FE0
FF0000003FE0
FF0000003FE0
FF8000003FE0
7F8000003FE0
7F8000003FE0
7F8000003FE0
7F8000007FC0
3FC000007FC0
3FC000007FC0
3FE00000FF80
1FE00001FF80
1FF00001FF00
1FF80007FF00
0FFE000FFE00
07FF807FFC00
07FFFFFFFC00
03FFFFFFF800
01FFFFFFE000
007FFFFFC000
003FFFFF0000
000FFFFC0000
0000FFC00000
ENDCHAR
STARTCHAR 0037
ENCODING 55
SWIDTH 552 0
DWIDTH 53 0
BBX 41 61 5 0
BITMAP
FFFFFFFFFF80
FFFFFFFFFF80
FFFFFFFFFF80
FFFFFFFFFF80
FFFFFFFFFF80
FFFFFFFFFF80
FFFFFFFFFF80
FFFFFFFFFF80
00000000FF80
00000000FF00
00000001FF00
00000001FE00
00000003FE00
00000003FC00
00000007FC00
00000007F800
0000000FF800
0000000FF000
0000001FF000
0000001FF000
0000003FE000
0000003FE000
0000007FC000
0000007FC000
000000FF8000
000000FF8000
000001FF0000
000001FF0000
000003FE0000
000003FE0000
000007FC0000
000007FC0000
00000FF80000
00000FF80000
00001FF00000
00001FF00000
00003FE00000
00003FE00000
00007FC00000
00007FC00000
0000FF800000
0000FF800000
0001FF000000
0001FF000000
0003FF000000
0003FE000000
0007FE000000
0007FC000000
000FFC000000
000FF8000000
001FF8000000
001FF0000000
003FF0000000
003FE0000000
007FE0000000
007FC0000000
00FFC0000000
00FF80000000
01FF80000000
01FF00000000
03FF00000000
ENDCHAR
STARTCHAR 0038
ENCODING 56
SWIDTH 552 0
DWIDTH 53 0
BBX 42 63 6 -1
BITMAP
0000FFE00000
000FFFFE0000
007FFFFFC000
00FFFFFFE000
03FFFFFFF800
07FFFFFFFC00
0FFFFFFFFE00
1FFF003FFE00
1FF80007FF00
3FE00001FF00
3FC00000FF00
3FC00000FF80
7F8000007F80
7F8000007F80
7F8000007F80
7F8000007F80
7F8000007F80
7F8000007F80
7FC00000FF80
3FC00000FF00
3FE00001FF00
3FF00003FE00
1FF80007FE00
1FFE000FFC00
0FFF803FF800
07FFE07FF000
03FFF9FFE000
01FFFFFFC000
007FFFFF0000
003FFFFE0000
000FFFFC0000
000FFFFF0000
003FFFFF8000
00FFFFFFE000
01FFE7FFF000
03FFC1FFF800
07FF007FFC00
0FFC001FFE00
1FF8000FFF00
3FF00007FF00
3FE00003FF80
7FE00001FF80
7FC00000FF80
7FC00000FFC0
FF8000007FC0
FF8000007FC0
FF8000007FC0
FF8000007FC0
FF8000007FC0
FF8000007FC0
FFC00000FFC0
FFC00000FF80
7FE00001FF80
7FF00003FF80
3FFC000FFF00
3FFF803FFE00
1FFFFFFFFC00
0FFFFFFFF800
07FFFFFFF000
03FFFFFFE000
00FFFFFF8000
003FFFFE0000
0003FFE00000
ENDCHAR
STARTCHAR 0039
ENCODING 57
SWIDTH 552 0
DWIDTH 53 0
BBX 42 62 5 0
BITMAP
0000FFC00000
0007FFF80000
001FFFFE0000
007FFFFF8000
00FFFFFFC000
03FFFFFFE000
07FFFFFFF000
0FFF807FF800
0FFE001FFC00
1FF80007FC00
3FF00003FE00
3FF00001FE00
3FE00001FF00
7FC00000FF00
7FC00000FF00
7FC00000FF80
FF8000007F80
FF8000007F80
FF8000007F80
FF8000007F80
FF8000003FC0
FF8000003FC0
FF8000003FC0
FF8000003FC0
FFC000003FC0
FFC000003FC0
7FC000003FC0
7FE000003FC0
7FF000007FC0
3FF00001FFC0
3FFC0007FFC0
1FFF007FFFC0
0FFFFFFFFFC0
0FFFFFFFFFC0
07FFFFFFFFC0
01FFFFFFBFC0
00FFFFFE3F80
003FFFF83F80
0003FF803F80
000000007F80
000000007F80
000000007F00
000000007F00
00000000FF00
00000000FE00
00000001FE00
00000001FE00
00000003FC00
00000007FC00
0000000FF800
0000001FF000
0000003FF000
000000FFE000
000007FFC000
00007FFF8000
0FFFFFFF0000
0FFFFFFE0000
0FFFFFF80000
0FFFFFE00000
0FFFFF800000
0FFFFC000000
0FFF80000000
ENDCHAR
STARTCHAR 003A
ENCODING 58
SWIDTH 552 0
DWIDTH 53 0
BBX 14 49 19 -1
BITMAP
0F80
1FE0
3FF0
7FF8
FFF8
FFFC
FFFC
FFFC
FFFC
FFFC
7FF8
3FF0
1FE0
0FC0
0000
0000
0000
0000
0000
0000
0000
0000
0000
0000
0000
0000
0000
0000
0000
0000
0000
0000
0000
0000
0000
0F80
1FE0
3FF0
7FF8
FFF8
FFFC
FFFC
FFFC
FFFC
FFFC
7FF8
3FF0
1FE0
0FC0
ENDCHAR
STARTCHAR 003B
ENCODING 59
SWIDTH 552 0
DWIDTH 53 0
BBX 23 64 12 -16
BITMAP
000F80
001FE0
003FF0
007FF8
00FFF8
00FFFC
00FFFC
00FFFC
00FFFC
00FFFC
007FF8
003FF0
001FE0
000FC0
000000
000000
000000
000000
000000
000000
000000
000000
000000
000000
000000
000000
000000
000000
000000
000000
000000
000000
000000
000F80
003FE0
007FF0
007FF8
00FFFC
00FFFC
00FFFC
00FFFE
00FFFE
007FFE
007FFE
003FFE
001FFE
000FFE
000FFE
000FFE
000FFC
000FFC
000FFC
000FF8
001FF8
001FF0
007FE0
00FFE0
07FFC0
FFFF80
FFFE00
FFFC00
FFF000
FFC000
FC0000
ENDCHAR
STARTCHAR 003C
ENCODING 60
SWIDTH 552 0
DWIDTH 53 0
BBX 37 53 6 -1
BITMAP
0000000100
0000000380
00000007C0
0000000FE0
0000003FF0
0000007FF8
000000FFE0
000001FFC0
000003FF80
00000FFF00
00001FFE00
00003FF800
00007FF000
0000FFE000
0003FFC000
0007FF0000
000FFE0000
001FFC0000
003FF80000
00FFF00000
01FFC00000
03FF800000
07FF000000
0FFE000000
3FF8000000
7FF0000000
FFE0000000
7FF0000000
3FFC000000
0FFE000000
07FF000000
03FF800000
01FFC00000
00FFF00000
003FF80000
001FFC0000
000FFE0000
0007FF0000
0003FFC000
0000FFE000
00007FF000
00003FF800
00001FFE00
00000FFF00
000003FF80
000001FFC0
000000FFE0
0000007FF8
0000003FF0
0000000FE0
00000007C0
0000000380
0000000100
ENDCHAR
STARTCHAR 003D
ENCODING 61
SWIDTH 552 0
DWIDTH 53 0
BBX 40 23 6 14
BITMAP
FFFFFFFFFF
FFFFFFFFFF
FFFFFFFFFF
FFFFFFFFFF
FFFFFFFFFF
FFFFFFFFFF
FFFFFFFFFF
0000000000
0000000000
0000000000
0000000000
0000000000
0000000000
0000000000
0000000000
0000000000
FFFFFFFFFF
FFFFFFFFFF
FFFFFFFFFF
FFFFFFFFFF
FFFFFFFFFF
FFFFFFFFFF
FFFFFFFFFF
ENDCHAR
STARTCHAR 003E
ENCODING 62
SWIDTH 552 0
DWIDTH 53 0
BBX 37 53 10 -1
BITMAP
0400000000
0E00000000
1F00000000
3F80000000
7FE0000000
FFF0000000
3FF8000000
1FFC000000
0FFE000000
07FF800000
03FFC00000
00FFE00000
007FF00000
003FF80000
001FFE0000
000FFF0000
0003FF8000
0001FFC000
0000FFE000
00007FF800
00001FFC00
00000FFE00
000007FF00
000003FF80
000001FFE0
0000007FF0
0000003FF8
0000007FF0
000000FFE0
000003FF80
000007FF00
00000FFE00
00001FFC00
00003FF800
0000FFE000
0001FFC000
0003FF8000
0007FF0000
001FFE0000
003FF80000
007FF00000
00FFE00000
03FFC00000
07FF800000
0FFE000000
1FFC000000
3FF8000000
FFF0000000
7FE0000000
3F80000000
1F00000000
0E00000000
0400000000
ENDCHAR
STARTCHAR 003F
ENCODING 63
SWIDTH 552 0
DWIDTH 53 0
BBX 29 67 14 -1
BITMAP
FF000000
FFF00000
FFFE0000
FFFF8000
FFFFE000
FFFFF800
FFFFFC00
01FFFE00
003FFF00
0007FF80
0003FFC0
0000FFC0
00007FE0
00007FE0
00003FF0
00001FF0
00001FF0
00001FF8
00000FF8
00000FF8
00000FF8
00000FF8
00000FF8
00000FF8
00000FF8
00001FF0
00001FF0
00003FF0
00007FE0
0003FFE0
0FFFFFC0
0FFFFF80
0FFFFF00
0FFFFC00
0FFFF000
0FFF0000
0FF00000
0FF00000
0FF00000
0FF00000
0FF00000
0FF00000
0FF00000
0FF00000
0FF00000
0FF00000
07F00000
07F00000
07F00000
00000000
00000000
00000000
00000000
00000000
00000000
03C00000
0FF00000
1FF80000
1FF80000
3FFC0000
3FFC0000
3FFC0000
3FFC0000
1FF80000
1FF80000
0FF00000
03C00000
ENDCHAR
STARTCHAR 0040
ENCODING 64
SWIDTH 552 0
DWIDTH 53 0
BBX 52 87 0 -20
BITMAP
0000003FE00000
000003FFFC0000
00000FFFFF0000
00001FFFFFC000
00007FFFFFE000
0000FFC03FF000
0001FF000FF800
0003FC0007FC00
0007F80003FC00
000FF00001FE00
001FE00000FF00
003FC000007F00
003F8000007F00
007F8000003F80
007F0000003F80
00FE0000001FC0
01FE0000001FC0
01FC0000001FC0
03FC0000001FC0
03F80000000FE0
03F80000000FE0
07F00000000FE0
07F00000000FE0
0FF0007F070FE0
0FE001FFFF0FE0
0FE007FFFF07F0
1FE00FFFFE07F0
1FC01FFFFE07F0
1FC01FFFFE07F0
1FC03FC3FE07F0
3F807F81FE07F0
3F807F01FE07F0
3F80FE01FE07F0
3F80FE01FE07F0
7F80FE01FC07F0
7F01FC01FC07F0
7F01FC01FC07F0
7F01FC01FC07F0
7F03F803FC07F0
7F03F803FC07F0
7F03F803FC07F0
FF03F803F807F0
FE03F803F807F0
FE07F003F807F0
FE07F003F807E0
FE07F007F80FE0
FE07F007F80FE0
FE07F007F80FE0
FE07F007F00FE0
FE07F007F00FE0
FE07F007F00FE0
FE07F007F01FC0
FE07F00FF01FC0
FE07F00FF01FC0
FE07F00FF01F80
FE07F01FF03F80
FE07F03FF03F80
FE03F83FF07F00
FE03F8FDF8FF00
FE03FFFDFFFE00
7E01FFF9FFFC00
7F01FFF1FFFC00
7F00FFF0FFF800
7F007FE07FE000
7F001F801F8000
7F000000000000
7F000000000000
3F800000000000
3F800000000000
3F800000000000
1FC00000000000
1FC00000000000
1FE00000000000
0FE00000000000
0FF00000000000
07F00000000000
07F80000000000
03FC0000000000
03FE0000010000
01FF00000F0000
00FFC0003F0000
007FF003FF0000
003FFFFFFF0000
001FFFFFFF0000
0007FFFFFC0000
0001FFFFE00000
00001FFC000000
ENDCHAR
STARTCHAR 0041
ENCODING 65
SWIDTH 552 0
DWIDTH 53 0
BBX 51 61 1 0
BITMAP
00000FFF000000
00000FFF000000
00001FFF000000
00001FFF800000
00001FFF800000
00003FFF800000
00003FFFC00000
00003FBFC00000
00007FBFC00000
00007FBFE00000
00007F1FE00000
0000FF1FE00000
0000FF1FF00000
0000FE0FF00000
0001FE0FF00000
0001FE0FF80000
0001FC0FF80000
0003FC07F80000
0003FC07FC0000
0003FC07FC0000
0007F803FC0000
0007F803FE0000
000FF803FE0000
000FF001FE0000
000FF001FF0000
001FF001FF0000
001FE000FF0000
001FE000FF8000
003FE000FF8000
003FC0007F8000
003FC0007FC000
007FC0007FC000
007F80007FC000
007F80003FC000
00FF80003FE000
00FF00003FE000
00FF00001FE000
01FF00001FF000
01FE00001FF000
01FE00000FF000
03FE00000FF800
03FFFFFFFFF800
03FFFFFFFFF800
07FFFFFFFFFC00
07FFFFFFFFFC00
07FFFFFFFFFC00
0FFFFFFFFFFE00
0FFFFFFFFFFE00
0FF0000003FE00
1FF0000001FF00
1FF0000001FF00
1FE0000001FF00
3FE0000000FF80
3FE0000000FF80
3FC0000000FF80
7FC00000007FC0
7FC00000007FC0
7F800000007FC0
FF800000003FE0
FF800000003FE0
FF000000003FE0
ENDCHAR
STARTCHAR 0042
ENCODING 66
SWIDTH 552 0
DWIDTH 53 0
BBX 39 61 7 0
BITMAP
FFFFFF0000
FFFFFFF000
FFFFFFFC00
FFFFFFFF00
FFFFFFFF80
FFFFFFFFC0
FFFFFFFFE0
FF0003FFE0
FF00007FF0
FF00003FF0
FF00001FF0
FF00000FF8
FF00000FF8
FF000007F8
FF000007F8
FF000007F8
FF000007F8
FF000007F8
FF000007F8
FF00000FF0
FF00000FF0
FF00001FF0
FF00001FE0
FF00003FE0
FF0000FFC0
FF0007FF80
FFFFFFFE00
FFFFFFFC00
FFFFFFE000
FFFFFFFC00
FFFFFFFF00
FFFFFFFFC0
FFFFFFFFE0
FF0003FFF0
FF00007FF8
FF00001FF8
FF00000FFC
FF000007FC
FF000003FC
FF000003FE
FF000001FE
FF000001FE
FF000001FE
FF000001FE
FF000001FE
FF000001FE
FF000001FE
FF000003FC
FF000003FC
FF000007FC
FF00000FF8
FF00001FF8
FF00003FF0
FF0003FFE0
FFFFFFFFE0
FFFFFFFFC0
FFFFFFFF00
FFFFFFFE00
FFFFFFF800
FFFFFFC000
FFFFFC0000
ENDCHAR
STARTCHAR 0043
ENCODING 67
SWIDTH 552 0
DWIDTH 53 0
BBX 43 63 4 -1
BITMAP
000003FFC000
00003FFFFE00
0000FFFFFFC0
0003FFFFFFE0
000FFFFFFFE0
001FFFFFFFE0
003FFFFFFFE0
007FFF003FE0
00FFF80007E0
01FFE00000E0
03FF80000020
07FF00000000
07FE00000000
0FFC00000000
0FF800000000
1FF800000000
1FF000000000
3FF000000000
3FE000000000
3FE000000000
7FE000000000
7FC000000000
7FC000000000
7FC000000000
7FC000000000
FF8000000000
FF8000000000
FF8000000000
FF8000000000
FF8000000000
FF8000000000
FF8000000000
FF8000000000
FF8000000000
FF8000000000
FF8000000000
FF8000000000
FF8000000000
FF8000000000
FFC000000000
7FC000000000
7FC000000000
7FC000000000
7FE000000000
7FE000000000
3FE000000000
3FF000000000
3FF000000000
1FF800000000
1FFC00000000
0FFC00000000
0FFE00000000
07FF80000000
03FFC0000020
03FFF00001E0
01FFFE003FE0
00FFFFFFFFE0
007FFFFFFFE0
001FFFFFFFE0
000FFFFFFFE0
0003FFFFFFE0
00007FFFFF80
000007FFE000
ENDCHAR
STARTCHAR 0044
ENCODING 68
SWIDTH 552 0
DWIDTH 53 0
BBX 44 61 5 0
BITMAP
FFFFFE000000
FFFFFFE00000
FFFFFFFC0000
FFFFFFFF0000
FFFFFFFFC000
FFFFFFFFE000
FFFFFFFFF000
FF0007FFF800
FF00007FFC00
FF00001FFE00
FF00000FFE00
FF000007FF00
FF000003FF80
FF000001FF80
FF000000FF80
FF000000FFC0
FF0000007FC0
FF0000007FC0
FF0000007FE0
FF0000003FE0
FF0000003FE0
FF0000003FE0
FF0000003FF0
FF0000001FF0
FF0000001FF0
FF0000001FF0
FF0000001FF0
FF0000001FF0
FF0000001FF0
FF0000001FF0
FF0000001FF0
FF0000001FF0
FF0000001FF0
FF0000001FF0
FF0000001FF0
FF0000001FF0
FF0000001FF0
FF0000003FE0
FF0000003FE0
FF0000003FE0
FF0000003FE0
FF0000007FE0
FF0000007FC0
FF0000007FC0
FF000000FFC0
FF000000FF80
FF000001FF80
FF000003FF00
FF000007FF00
FF00000FFE00
FF00001FFC00
FF00003FFC00
FF0001FFF800
FF000FFFF000
FFFFFFFFE000
FFFFFFFF8000
FFFFFFFF0000
FFFFFFFC0000
FFFFFFF00000
FFFFFF800000
FFFFF0000000
ENDCHAR
STARTCHAR 0045
ENCODING 69
SWIDTH 552 0
DWIDTH 53 0
BBX 35 61 9 0
BITMAP
FFFFFFFFE0
FFFFFFFFE0
FFFFFFFFE0
FFFFFFFFE0
FFFFFFFFE0
FFFFFFFFE0
FFFFFFFFE0
FF00000000
FF00000000
FF00000000
FF00000000
FF00000000
FF00000000
FF00000000
FF00000000
FF00000000
FF00000000
FF00000000
FF00000000
FF00000000
FF00000000
FF00000000
FF00000000
FF00000000
FF00000000
FF00000000
FFFFFFFFC0
FFFFFFFFC0
FFFFFFFFC0
FFFFFFFFC0
FFFFFFFFC0
FFFFFFFFC0
FFFFFFFFC0
FF00000000
FF00000000
FF00000000
FF00000000
FF00000000
FF00000000
FF00000000
FF00000000
FF00000000
FF00000000
FF00000000
FF00000000
FF00000000
FF00000000
FF00000000
FF00000000
FF00000000
FF00000000
FF00000000
FF00000000
FF00000000
FFFFFFFFE0
FFFFFFFFE0
FFFFFFFFE0
FFFFFFFFE0
FFFFFFFFE0
FFFFFFFFE0
FFFFFFFFE0
ENDCHAR
STARTCHAR 0046
ENCODING 70
SWIDTH 552 0
DWIDTH 53 0
BBX 35 61 10 0
BITMAP
FFFFFFFFE0
FFFFFFFFE0
FFFFFFFFE0
FFFFFFFFE0
FFFFFFFFE0
FFFFFFFFE0
FFFFFFFFE0
FF80000000
FF80000000
FF80000000
FF80000000
FF80000000
FF80000000
FF80000000
FF80000000
FF80000000
FF80000000
FF80000000
FF80000000
FF80000000
FF80000000
FF80000000
FF80000000
FF80000000
FF80000000
FF80000000
FF80000000
FFFFFFFFC0
FFFFFFFFC0
FFFFFFFFC0
FFFFFFFFC0
FFFFFFFFC0
FFFFFFFFC0
FFFFFFFFC0
FF80000000
FF80000000
FF80000000
FF80000000
FF80000000
FF80000000
FF80000000
FF80000000
FF80000000
FF80000000
FF80000000
FF80000000
FF80000000
FF80000000
FF80000000
FF80000000
FF80000000
FF80000000
FF80000000
FF80000000
FF80000000
FF80000000
FF80000000
FF80000000
FF80000000
FF80000000
FF80000000
ENDCHAR
STARTCHAR 0047
ENCODING 71
SWIDTH 552 0
DWIDTH 53 0
BBX 44 63 3 -1
BITMAP
000001FFE000
00001FFFFE00
0000FFFFFF80
0003FFFFFFE0
0007FFFFFFF0
001FFFFFFFF0
003FFFFFFFF0
007FFFFFFFF0
00FFFF001FF0
01FFF80003F0
03FFE0000070
03FFC0000010
07FF00000000
0FFE00000000
0FFC00000000
1FFC00000000
1FF800000000
1FF000000000
3FF000000000
3FE000000000
7FE000000000
7FE000000000
7FC000000000
7FC000000000
7FC000000000
FFC000000000
FF8000000000
FF8000000000
FF8001FFFFF0
FF8001FFFFF0
FF8001FFFFF0
FF8001FFFFF0
FF8001FFFFF0
FF8001FFFFF0
FF8001FFFFF0
FF8000000FF0
FF8000000FF0
FF8000000FF0
FF8000000FF0
FFC000000FF0
7FC000000FF0
7FC000000FF0
7FC000000FF0
7FC000000FF0
3FE000000FF0
3FE000000FF0
3FF000000FF0
1FF000000FF0
1FF800000FF0
1FF800000FF0
0FFC00000FF0
07FE00000FF0
07FF00000FF0
03FFC0000FF0
01FFF0000FF0
00FFFE007FF0
007FFFFFFFF0
003FFFFFFFF0
001FFFFFFFF0
0007FFFFFFF0
0003FFFFFF80
00007FFFFC00
000007FF8000
ENDCHAR
STARTCHAR 0048
ENCODING 72
SWIDTH 552 0
DWIDTH 53 0
BBX 43 61 5 0
BITMAP
FF0000001FE0
FF0000001FE0
FF0000001FE0
FF0000001FE0
FF0000001FE0
FF0000001FE0
FF0000001FE0
FF0000001FE0
FF0000001FE0
FF0000001FE0
FF0000001FE0
FF0000001FE0
FF0000001FE0
FF0000001FE0
FF0000001FE0
FF0000001FE0
FF0000001FE0
FF0000001FE0
FF0000001FE0
FF0000001FE0
FF0000001FE0
FF0000001FE0
FF0000001FE0
FF0000001FE0
FF0000001FE0
FF0000001FE0
FFFFFFFFFFE0
FFFFFFFFFFE0
FFFFFFFFFFE0
FFFFFFFFFFE0
FFFFFFFFFFE0
FFFFFFFFFFE0
FFFFFFFFFFE0
FF0000001FE0
FF0000001FE0
FF0000001FE0
FF0000001FE0
FF0000001FE0
FF0000001FE0
FF0000001FE0
FF0000001FE0
FF0000001FE0
FF0000001FE0
FF0000001FE0
FF0000001FE0
FF0000001FE0
FF0000001FE0
FF0000001FE0
FF0000001FE0
FF0000001FE0
FF0000001FE0
FF0000001FE0
FF0000001FE0
FF0000001FE0
FF0000001FE0
FF0000001FE0
FF0000001FE0
FF0000001FE0
FF0000001FE0
FF0000001FE0
FF0000001FE0
ENDCHAR
STARTCHAR 0049
ENCODING 73
SWIDTH 552 0
DWIDTH 53 0
BBX 36 61 8 0
BITMAP
FFFFFFFFF0
FFFFFFFFF0
FFFFFFFFF0
FFFFFFFFF0
FFFFFFFFF0
FFFFFFFFF0
FFFFFFFFF0
0003FC0000
0003FC0000
0003FC0000
0003FC0000
0003FC0000
0003FC0000
0003FC0000
0003FC0000
0003FC0000
0003FC0000
0003FC0000
0003FC0000
0003FC0000
0003FC0000
0003FC0000
0003FC0000
0003FC0000
0003FC0000
0003FC0000
0003FC0000
0003FC0000
0003FC0000
0003FC0000
0003FC0000
0003FC0000
0003FC0000
0003FC0000
0003FC0000
0003FC0000
0003FC0000
0003FC0000
0003FC0000
0003FC0000
0003FC0000
0003FC0000
0003FC0000
0003FC0000
0003FC0000
0003FC0000
0003FC0000
0003FC0000
0003FC0000
0003FC0000
0003FC0000
0003FC0000
0003FC0000
0003FC0000
FFFFFFFFF0
FFFFFFFFF0
FFFFFFFFF0
FFFFFFFFF0
FFFFFFFFF0
FFFFFFFFF0
FFFFFFFFF0
ENDCHAR
STARTCHAR 004A
ENCODING 74
SWIDTH 552 0
DWIDTH 53 0
BBX 32 62 9 -1
BITMAP
7FFFFFFF
7FFFFFFF
7FFFFFFF
7FFFFFFF
7FFFFFFF
7FFFFFFF
7FFFFFFF
000000FF
000000FF
000000FF
000000FF
000000FF
000000FF
000000FF
000000FF
000000FF
000000FF
000000FF
000000FF
000000FF
000000FF
000000FF
000000FF
000000FF
000000FF
000000FF
000000FF
000000FF
000000FF
000000FF
000000FF
000000FF
000000FF
000000FF
000000FF
000000FF
000000FF
000000FF
000000FF
000000FF
000000FF
000000FF
000000FF
000000FF
000000FF
000000FF
000000FF
000001FF
000001FE
000001FE
800003FE
C00003FC
F00007FC
FC001FF8
FF807FF8
FFFFFFF0
FFFFFFE0
FFFFFFC0
7FFFFF80
3FFFFE00
07FFF800
00FFC000
ENDCHAR
STARTCHAR 004B
ENCODING 75
SWIDTH 552 0
DWIDTH 53 0
BBX 42 61 7 0
BITMAP
FF000001FF00
FF000003FF00
FF000007FE00
FF00000FFC00
FF00001FF800
FF00001FF000
FF00003FE000
FF00007FE000
FF0000FFC000
FF0001FF8000
FF0001FF0000
FF0003FE0000
FF0007FC0000
FF000FF80000
FF001FF80000
FF001FF00000
FF003FE00000
FF007FC00000
FF00FF800000
FF01FF000000
FF01FF000000
FF03FE000000
FF07FC000000
FF0FF8000000
FF1FF0000000
FF1FE0000000
FF3FC0000000
FF7FC0000000
FFFF80000000
FFFF00000000
FFFF80000000
FFFFC0000000
FF7FE0000000
FF3FF0000000
FF1FF8000000
FF0FF8000000
FF0FFC000000
FF07FE000000
FF03FF000000
FF01FF800000
FF00FF800000
FF00FFC00000
FF007FE00000
FF003FF00000
FF001FF80000
FF000FFC0000
FF000FFC0000
FF0007FE0000
FF0003FF0000
FF0001FF8000
FF0000FFC000
FF0000FFE000
FF00007FE000
FF00003FF000
FF00001FF800
FF00000FFC00
FF00000FFE00
FF000007FF00
FF000003FF00
FF000001FF80
FF000000FFC0
ENDCHAR
STARTCHAR 004C
ENCODING 76
SWIDTH 552 0
DWIDTH 53 0
BBX 35 61 11 0
BITMAP
FF00000000
FF00000000
FF00000000
FF00000000
FF00000000
FF00000000
FF00000000
FF00000000
FF00000000
FF00000000
FF00000000
FF00000000
FF00000000
FF00000000
FF00000000
FF00000000
FF00000000
FF00000000
FF00000000
FF00000000
FF00000000
FF00000000
FF00000000
FF00000000
FF00000000
FF00000000
FF00000000
FF00000000
FF00000000
FF00000000
FF00000000
FF00000000
FF00000000
FF00000000
FF00000000
FF00000000
FF00000000
FF00000000
FF00000000
FF00000000
FF00000000
FF00000000
FF00000000
FF00000000
FF00000000
FF00000000
FF00000000
FF00000000
FF00000000
FF00000000
FF00000000
FF00000000
FF00000000
FF00000000
FFFFFFFFE0
FFFFFFFFE0
FFFFFFFFE0
FFFFFFFFE0
FFFFFFFFE0
FFFFFFFFE0
FFFFFFFFE0
ENDCHAR
STARTCHAR 004D
ENCODING 77
SWIDTH 552 0
DWIDTH 53 0
BBX 48 61 2 0
BITMAP
1FF800001FF8
1FFC00001FF8
1FFC00003FFC
1FFC00003FFC
1FFE00003FFC
1FFE00007FFC
1FFF00007FFC
1FFF0000FFFC
1FFF0000FDFC
1FFF8000FDFC
1FBF8001FDFC
1FBF8001F9FC
1F9FC001F9FC
1F9FC003F9FC
1F9FC003F1FC
1F8FE007F1FC
3F8FE007F1FC
3F8FE007E1FC
3F87F00FE1FC
3F87F00FE1FC
3F87F00FC1FC
3F83F81FC1FC
3F83F81F81FC
3F81F81F81FC
3F81FC3F81FE
3F81FC3F01FE
3F80FC3F01FE
3F80FE7F01FE
3F80FE7E01FE
3F807E7E01FE
3F807FFC01FE
3F807FFC01FE
3F803FFC01FE
3F803FF801FE
3F803FF801FE
7F801FF801FE
7F801FF001FE
7F800FF001FE
7F800FF001FE
7F800FE001FE
7F8007E001FE
7F80000001FE
7F80000000FE
7F80000000FE
7F80000000FE
7F80000000FE
7F00000000FF
7F00000000FF
7F00000000FF
7F00000000FF
7F00000000FF
7F00000000FF
7F00000000FF
7F00000000FF
FF00000000FF
FF00000000FF
FF00000000FF
FF00000000FF
FF00000000FF
FF00000000FF
FF00000000FF
ENDCHAR
STARTCHAR 004E
ENCODING 78
SWIDTH 552 0
DWIDTH 53 0
BBX 41 61 6 0
BITMAP
FFE000007F80
FFE000007F80
FFF000007F80
FFF000007F80
FFF800007F80
FFF800007F80
FFFC00007F80
FFFC00007F80
FFFE00007F80
FFFE00007F80
FFFF00007F80
FF7F00007F80
FF7F00007F80
FF7F80007F80
FF3F80007F80
FF3FC0007F80
FF1FC0007F80
FF1FE0007F80
FF1FE0007F80
FF0FF0007F80
FF0FF0007F80
FF07F8007F80
FF07F8007F80
FF07F8007F80
FF03FC007F80
FF03FC007F80
FF01FE007F80
FF01FE007F80
FF00FF007F80
FF00FF007F80
FF007F807F80
FF007F807F80
FF007FC07F80
FF003FC07F80
FF003FC07F80
FF001FE07F80
FF001FE07F80
FF000FF07F80
FF000FF07F80
FF0007F87F80
FF0007F87F80
FF0007F87F80
FF0003FC7F80
FF0003FC7F80
FF0001FE7F80
FF0001FE7F80
FF0000FF7F80
FF0000FF7F80
FF0000FF7F80
FF00007FFF80
FF00007FFF80
FF00003FFF80
FF00003FFF80
FF00001FFF80
FF00001FFF80
FF00000FFF80
FF00000FFF80
FF00000FFF80
FF000007FF80
FF000007FF80
FF000003FF80
ENDCHAR
STARTCHAR 004F
ENCODING 79
SWIDTH 552 0
DWIDTH 53 0
BBX 47 63 3 -1
BITMAP
00001FF80000
0000FFFF8000
0007FFFFE000
000FFFFFF000
003FFFFFFC00
007FFFFFFE00
00FFFFFFFF00
01FFF01FFF80
03FF8003FF80
03FF0000FFC0
07FE00007FE0
0FFC00003FE0
0FF800001FF0
1FF000001FF0
1FF000000FF0
1FE000000FF8
3FE0000007F8
3FC0000007F8
3FC0000007FC
7F80000003FC
7F80000003FC
7F80000003FC
7F80000003FC
7F80000003FE
FF00000001FE
FF00000001FE
FF00000001FE
FF00000001FE
FF00000001FE
FF00000001FE
FF00000001FE
FF00000001FE
FF00000001FE
FF00000001FE
FF00000001FE
FF00000001FE
FF00000001FE
FF00000001FE
FF00000003FE
FF80000003FC
7F80000003FC
7F80000003FC
7F80000003FC
7F80000007FC
7FC0000007F8
3FC0000007F8
3FC000000FF8
3FE000000FF0
3FE000001FF0
1FF000001FE0
1FF000003FE0
0FF800007FC0
0FFC0000FFC0
07FE0001FF80
07FF8003FF80
03FFE01FFF00
01FFFFFFFE00
00FFFFFFFC00
007FFFFFF800
003FFFFFE000
000FFFFFC000
0003FFFE0000
00003FF00000
ENDCHAR
STARTCHAR 0050
ENCODING 80
SWIDTH 552 0
DWIDTH 53 0
BBX 41 61 7 0
BITMAP
FFFFFF000000
FFFFFFF00000
FFFFFFFE0000
FFFFFFFF8000
FFFFFFFFC000
FFFFFFFFF000
FFFFFFFFF800
FF0003FFF800
FF00007FFC00
FF00001FFE00
FF00000FFE00
FF000007FF00
FF000003FF00
FF000001FF00
FF000001FF80
FF000000FF80
FF000000FF80
FF000000FF80
FF000000FF80
FF000000FF80
FF000000FF80
FF000000FF80
FF000000FF80
FF000001FF00
FF000001FF00
FF000001FF00
FF000003FE00
FF000007FE00
FF00000FFC00
FF00001FFC00
FF00007FF800
FF0003FFF000
FFFFFFFFE000
FFFFFFFFC000
FFFFFFFF8000
FFFFFFFE0000
FFFFFFF80000
FFFFFFC00000
FFFFFC000000
FF0000000000
FF0000000000
FF0000000000
FF0000000000
FF0000000000
FF0000000000
FF0000000000
FF0000000000
FF0000000000
FF0000000000
FF0000000000
FF0000000000
FF0000000000
FF0000000000
FF0000000000
FF0000000000
FF0000000000
FF0000000000
FF0000000000
FF0000000000
FF0000000000
FF0000000000
ENDCHAR
STARTCHAR 0051
ENCODING 81
SWIDTH 552 0
DWIDTH 53 0
BBX 51 79 3 -17
BITMAP
00001FFC000000
0000FFFF800000
0003FFFFE00000
000FFFFFF80000
001FFFFFFE0000
007FFFFFFF0000
00FFFFFFFF8000
01FFF00FFFC000
01FFC003FFC000
03FF0000FFE000
07FE00007FF000
07FC00003FF000
0FFC00001FF800
0FF800001FF800
1FF000000FF800
1FF000000FFC00
3FE0000007FC00
3FE0000007FC00
3FE0000007FE00
7FC0000003FE00
7FC0000003FE00
7FC0000003FE00
7FC0000003FE00
7FC0000003FF00
FF80000001FF00
FF80000001FF00
FF80000001FF00
FF80000001FF00
FF80000001FF00
FF80000001FF00
FF80000001FF00
FF80000001FF00
FF80000001FF00
FF80000001FF00
FF80000001FF00
FF80000001FF00
FF80000001FF00
FF80000001FF00
FF80000001FF00
FFC0000003FE00
FFC0000003FE00
7FC0000003FE00
7FC0000003FE00
7FC0000003FE00
7FE0000007FC00
7FE0000007FC00
3FE0000007FC00
3FF000000FF800
3FF000000FF800
1FF800001FF000
1FF800003FF000
0FFC00003FE000
0FFE00007FE000
07FF0001FFC000
07FFC003FF8000
03FFF00FFF8000
01FFFFFFFF0000
00FFFFFFFE0000
007FFFFFFC0000
003FFFFFF00000
000FFFFFE00000
0003FFFF800000
00007FFC000000
00001FE0000000
00001FE0000000
00001FF0000000
00000FF0000000
00000FF8000000
00000FF8000000
000007FC000300
000007FF000700
000003FFC03F80
000003FFFFFFC0
000001FFFFFFE0
000000FFFFFFC0
0000007FFFFF80
0000001FFFFE00
00000007FFF800
00000000FFC000
ENDCHAR
STARTCHAR 0052
ENCODING 82
SWIDTH 552 0
DWIDTH 53 0
BBX 42 61 8 0
BITMAP
FFFFFE000000
FFFFFFE00000
FFFFFFF80000
FFFFFFFE0000
FFFFFFFF0000
FFFFFFFF8000
FFFFFFFFC000
FF0007FFE000
FF0001FFE000
FF00007FF000
FF00003FF000
FF00001FF000
FF00001FF800
FF00000FF800
FF00000FF800
FF00000FF800
FF00000FF800
FF00000FF800
FF00000FF800
FF00000FF800
FF00001FF000
FF00001FF000
FF00003FF000
FF00007FE000
FF0000FFE000
FF0001FFC000
FF000FFF8000
FFFFFFFF0000
FFFFFFFE0000
FFFFFFFC0000
FFFFFFF00000
FFFFFF800000
FFFFFF800000
FFFFFFC00000
FF00FFE00000
FF003FF00000
FF001FF80000
FF000FFC0000
FF0007FC0000
FF0003FE0000
FF0003FF0000
FF0001FF0000
FF0001FF8000
FF0000FF8000
FF0000FFC000
FF00007FC000
FF00007FE000
FF00003FE000
FF00003FF000
FF00001FF000
FF00001FF800
FF00000FF800
FF00000FFC00
FF000007FC00
FF000007FE00
FF000003FE00
FF000003FF00
FF000001FF00
FF000001FF80
FF000000FF80
FF000000FFC0
ENDCHAR
STARTCHAR 0053
ENCODING 83
SWIDTH 552 0
DWIDTH 53 0
BBX 42 63 5 -1
BITMAP
00003FFF8000
0007FFFFFC00
001FFFFFFC00
007FFFFFFC00
01FFFFFFFC00
03FFFFFFFC00
07FFFFFFFC00
0FFFC001FC00
1FFE00000C00
1FF800000000
3FF000000000
3FE000000000
3FE000000000
7FC000000000
7FC000000000
7FC000000000
7FC000000000
7FC000000000
7FC000000000
7FE000000000
7FF000000000
3FF000000000
3FFC00000000
1FFE00000000
1FFF80000000
0FFFE0000000
07FFF8000000
03FFFF000000
01FFFFC00000
00FFFFF00000
003FFFFE0000
000FFFFF8000
0003FFFFC000
0000FFFFF000
00001FFFF800
000007FFFC00
000000FFFE00
0000003FFF00
0000000FFF00
00000007FF80
00000003FF80
00000001FF80
00000000FFC0
000000007FC0
000000007FC0
000000007FC0
000000007FC0
000000007FC0
000000007FC0
00000000FFC0
00000000FF80
00000001FF80
00000001FF80
80000007FF00
F800000FFE00
FFC000FFFE00
FFFFFFFFFC00
FFFFFFFFF800
FFFFFFFFE000
FFFFFFFFC000
FFFFFFFF0000
3FFFFFF80000
007FFF000000
ENDCHAR
STARTCHAR 0054
ENCODING 84
SWIDTH 552 0
DWIDTH 53 0
BBX 44 61 4 0
BITMAP
FFFFFFFFFFF0
FFFFFFFFFFF0
FFFFFFFFFFF0
FFFFFFFFFFF0
FFFFFFFFFFF0
FFFFFFFFFFF0
FFFFFFFFFFF0
00003FC00000
00003FC00000
00003FC00000
00003FC00000
00003FC00000
00003FC00000
00003FC00000
00003FC00000
00003FC00000
00003FC00000
00003FC00000
00003FC00000
00003FC00000
00003FC00000
00003FC00000
00003FC00000
00003FC00000
00003FC00000
00003FC00000
00003FC00000
00003FC00000
00003FC00000
00003FC00000
00003FC00000
00003FC00000
00003FC00000
00003FC00000
00003FC00000
00003FC00000
00003FC00000
00003FC00000
00003FC00000
00003FC00000
00003FC00000
00003FC00000
00003FC00000
00003FC00000
00003FC00000
00003FC00000
00003FC00000
00003FC00000
00003FC00000
00003FC00000
00003FC00000
00003FC00000
00003FC00000
00003FC00000
00003FC00000
00003FC00000
00003FC00000
00003FC00000
00003FC00000
00003FC00000
00003FC00000
ENDCHAR
STARTCHAR 0055
ENCODING 85
SWIDTH 552 0
DWIDTH 53 0
BBX 42 62 5 -1
BITMAP
FF0000003FC0
FF0000003FC0
FF0000003FC0
FF0000003FC0
FF0000003FC0
FF0000003FC0
FF0000003FC0
FF0000003FC0
FF0000003FC0
FF0000003FC0
FF0000003FC0
FF0000003FC0
FF0000003FC0
FF0000003FC0
FF0000003FC0
FF0000003FC0
FF0000003FC0
FF0000003FC0
FF0000003FC0
FF0000003FC0
FF0000003FC0
FF0000003FC0
FF0000003FC0
FF0000003FC0
FF0000003FC0
FF0000003FC0
FF0000003FC0
FF0000003FC0
FF0000003FC0
FF0000003FC0
FF0000003FC0
FF0000003FC0
FF0000003FC0
FF0000003FC0
FF0000003FC0
FF0000003FC0
FF0000003FC0
FF0000003FC0
FF0000003FC0
FF0000003FC0
FF0000003FC0
FF0000003FC0
FF0000003FC0
FF0000003FC0
FF0000003FC0
FF0000007F80
FF8000007F80
7F8000007F80
7F800000FF80
7FC00000FF00
7FC00001FF00
3FE00001FF00
3FF00007FE00
1FFC000FFC00
1FFF007FFC00
0FFFFFFFF800
07FFFFFFF000
03FFFFFFE000
01FFFFFFC000
007FFFFF0000
001FFFFC0000
0001FFC00000
ENDCHAR
STARTCHAR 0056
ENCODING 86
SWIDTH 552 0
DWIDTH 53 0
BBX 51 61 1 0
BITMAP
FF800000003FE0
FF800000003FE0
FFC00000003FE0
7FC00000007FC0
7FC00000007FC0
7FE00000007FC0
3FE0000000FF80
3FE0000000FF80
3FF0000000FF80
1FF0000000FF00
1FF0000001FF00
1FF8000001FF00
0FF8000001FE00
0FF8000003FE00
0FF8000003FE00
07FC000003FC00
07FC000007FC00
07FC000007FC00
03FE000007F800
03FE00000FF800
03FE00000FF800
01FF00000FF000
01FF00001FF000
01FF00001FF000
00FF80001FE000
00FF80003FE000
00FF80003FC000
007FC0003FC000
007FC0007FC000
007FC0007F8000
007FE0007F8000
003FE000FF8000
003FE000FF0000
003FE000FF0000
001FF001FF0000
001FF001FE0000
001FF001FE0000
000FF803FE0000
000FF803FC0000
000FF803FC0000
0007FC03FC0000
0007FC07F80000
0007FC07F80000
0003FE07F80000
0003FE0FF00000
0003FE0FF00000
0001FE0FF00000
0001FF1FE00000
0001FF1FE00000
0000FF1FE00000
0000FFBFC00000
0000FFBFC00000
00007FBFC00000
00007FFF800000
00007FFF800000
00003FFF800000
00003FFF000000
00003FFF000000
00001FFF000000
00001FFE000000
00001FFE000000
ENDCHAR
STARTCHAR 0057
ENCODING 87
SWIDTH 552 0
DWIDTH 53 0
BBX 49 61 2 0
BITMAP
FF000000003F80
FF000000003F80
FF000000003F80
FF000000003F80
FF000000003F80
FF000000003F80
FF000000003F80
FF000000003F80
7F000000007F00
7F000000007F00
7F000000007F00
7F800000007F00
7F800000007F00
7F800000007F00
7F800000007F00
7F800000007F00
7F800000007F00
7F800000007F00
7F800000007F00
7F800000007F00
7F800000007F00
7F8007E0007F00
7F8007F0007F00
3F800FF0007E00
3F800FF800FE00
3F800FF800FE00
3F801FF800FE00
3F801FFC00FE00
3F801FFC00FE00
3F803FFC00FE00
3F803FFE00FE00
3F803FFE00FE00
3F807FFE00FE00
3F807FFF00FE00
3FC07E7F00FE00
3FC0FE7F00FE00
3FC0FE7F80FE00
3FC0FC3F80FE00
1FC1FC3FC0FC00
1FC1FC3FC0FC00
1FC1F81FC1FC00
1FC3F81FE1FC00
1FC3F81FE1FC00
1FC3F00FE1FC00
1FC7F00FF1FC00
1FC7F00FF1FC00
1FC7E007F1FC00
1FCFE007F9FC00
1FCFC003F9FC00
1FCFC003FDFC00
1FDFC003FDFC00
1FDF8001FDFC00
1FDF8001FFFC00
0FFF8001FFFC00
0FFF0000FFF800
0FFF0000FFF800
0FFF0000FFF800
0FFE00007FF800
0FFE00007FF800
0FFE00007FF800
0FFC00003FF800
ENDCHAR
STARTCHAR 0058
ENCODING 88
SWIDTH 552 0
DWIDTH 53 0
BBX 51 61 1 0
BITMAP
7FE0000001FF80
3FF0000003FF00
1FF8000003FE00
1FF8000007FE00
0FFC00000FFC00
07FE00000FFC00
07FE00001FF800
03FF00001FF000
01FF80003FF000
01FF80007FE000
00FFC0007FC000
00FFE000FFC000
007FE001FF8000
003FF001FF0000
003FF003FF0000
001FF807FE0000
000FFC07FE0000
000FFC0FFC0000
0007FE1FF80000
0003FF1FF80000
0003FF3FF00000
0001FFFFE00000
0000FFFFE00000
0000FFFFC00000
00007FFFC00000
00007FFF800000
00003FFF000000
00001FFF000000
00001FFE000000
00000FFC000000
00000FFE000000
00001FFF000000
00003FFF000000
00003FFF800000
00007FFFC00000
0000FFFFC00000
0000FFFFE00000
0001FFFFF00000
0001FFBFF00000
0003FF1FF80000
0007FE1FFC0000
0007FE0FFC0000
000FFC0FFE0000
001FFC07FF0000
001FF803FF0000
003FF003FF8000
007FF001FFC000
007FE000FFC000
00FFC000FFE000
01FFC0007FE000
01FF80003FF000
03FF00003FF800
07FF00001FF800
07FE00000FFC00
0FFE00000FFE00
0FFC000007FE00
1FF8000003FF00
3FF8000003FF80
3FF0000001FF80
7FE0000001FFC0
FFE0000000FFE0
ENDCHAR
STARTCHAR 0059
ENCODING 89
SWIDTH 552 0
DWIDTH 53 0
BBX 52 61 0 0
BITMAP
FFC00000003FF0
7FE00000007FE0
7FE00000007FE0
3FF0000000FFC0
1FF0000000FF80
1FF8000001FF80
0FF8000001FF00
0FFC000003FF00
07FE000003FE00
07FE000007FE00
03FF000007FC00
03FF00000FFC00
01FF80000FF800
00FF80001FF000
00FFC0001FF000
007FC0003FE000
007FE0003FE000
003FE0007FC000
003FF0007FC000
001FF000FF8000
000FF800FF8000
000FFC01FF0000
0007FC01FE0000
0007FE03FE0000
0003FE03FC0000
0003FF07FC0000
0001FF07F80000
0000FF8FF80000
0000FF8FF00000
00007F9FE00000
00007FDFE00000
00003FFFC00000
00003FFFC00000
00001FFF800000
00001FFF800000
00000FFF000000
000007FF000000
000007FE000000
000003FC000000
000003FC000000
000003FC000000
000003FC000000
000003FC000000
000003FC000000
000003FC000000
000003FC000000
000003FC000000
000003FC000000
000003FC000000
000003FC000000
000003FC000000
000003FC000000
000003FC000000
000003FC000000
000003FC000000
000003FC000000
000003FC000000
000003FC000000
000003FC000000
000003FC000000
000003FC000000
ENDCHAR
STARTCHAR 005A
ENCODING 90
SWIDTH 552 0
DWIDTH 53 0
BBX 43 61 5 0
BITMAP
7FFFFFFFFFC0
7FFFFFFFFFC0
7FFFFFFFFFC0
7FFFFFFFFFC0
7FFFFFFFFFC0
7FFFFFFFFFC0
7FFFFFFFFFC0
7FFFFFFFFF80
00000001FF80
00000001FF00
00000003FE00
00000007FE00
00000007FC00
0000000FF800
0000001FF800
0000001FF000
0000003FE000
0000007FE000
0000007FC000
000000FF8000
000001FF8000
000001FF0000
000003FE0000
000007FC0000
000007FC0000
00000FF80000
00001FF00000
00001FF00000
00003FE00000
00007FC00000
00007FC00000
0000FF800000
0001FF000000
0001FF000000
0003FE000000
0007FC000000
000FFC000000
000FF8000000
001FF0000000
003FF0000000
003FE0000000
007FC0000000
00FFC0000000
00FF80000000
01FF00000000
03FF00000000
03FE00000000
07FC00000000
0FFC00000000
0FF800000000
1FF000000000
3FE000000000
3FE000000000
7FFFFFFFFFE0
FFFFFFFFFFE0
FFFFFFFFFFE0
FFFFFFFFFFE0
FFFFFFFFFFE0
FFFFFFFFFFE0
FFFFFFFFFFE0
FFFFFFFFFFE0
ENDCHAR
STARTCHAR 005B
ENCODING 91
SWIDTH 552 0
DWIDTH 53 0
BBX 23 87 16 -19
BITMAP
FFFFFE
FFFFFE
FFFFFE
FFFFFE
FFFFFE
FFFFFE
FFFFFE
FF0000
FF0000
FF0000
FF0000
FF0000
FF0000
FF0000
FF0000
FF0000
FF0000
FF0000
FF0000
FF0000
FF0000
FF0000
FF0000
FF0000
FF0000
FF0000
FF0000
FF0000
FF0000
FF0000
FF0000
FF0000
FF0000
FF0000
FF0000
FF0000
FF0000
FF0000
FF0000
FF0000
FF0000
FF0000
FF0000
FF0000
FF0000
FF0000
FF0000
FF0000
FF0000
FF0000
FF0000
FF0000
FF0000
FF0000
FF0000
FF0000
FF0000
FF0000
FF0000
FF0000
FF0000
FF0000
FF0000
FF0000
FF0000
FF0000
FF0000
FF0000
FF0000
FF0000
FF0000
FF0000
FF0000
FF0000
FF0000
FF0000
FF0000
FF0000
FF0000
FF0000
FFFFFE
FFFFFE
FFFFFE
FFFFFE
FFFFFE
FFFFFE
FFFFFE
ENDCHAR
STARTCHAR 005C
ENCODING 92
SWIDTH 552 0
DWIDTH 53 0
BBX 40 76 8 -10
BITMAP
FF00000000
7F00000000
7F80000000
7F80000000
3FC0000000
3FC0000000
1FE0000000
1FE0000000
0FE0000000
0FF0000000
0FF0000000
07F8000000
07F8000000
03F8000000
03FC000000
01FC000000
01FE000000
01FE000000
00FF000000
00FF000000
007F000000
007F800000
007F800000
003FC00000
003FC00000
001FE00000
001FE00000
000FE00000
000FF00000
000FF00000
0007F80000
0007F80000
0003F80000
0003FC0000
0001FC0000
0001FE0000
0001FE0000
0000FF0000
0000FF0000
00007F0000
00007F8000
00007F8000
00003FC000
00003FC000
00001FE000
00001FE000
00000FE000
00000FF000
00000FF000
000007F800
000007F800
000003F800
000003FC00
000001FC00
000001FE00
000001FE00
000000FF00
000000FF00
0000007F00
0000007F80
0000007F80
0000003FC0
0000003FC0
0000001FE0
0000001FE0
0000000FE0
0000000FF0
0000000FF0
00000007F8
00000007F8
00000003F8
00000003FC
00000001FC
00000001FE
00000001FE
00000000FF
ENDCHAR
STARTCHAR 005D
ENCODING 93
SWIDTH 552 0
DWIDTH 53 0
BBX 23 87 14 -19
BITMAP
FFFFFE
FFFFFE
FFFFFE
FFFFFE
FFFFFE
FFFFFE
FFFFFE
0001FE
0001FE
0001FE
0001FE
0001FE
0001FE
0001FE
0001FE
0001FE
0001FE
0001FE
0001FE
0001FE
0001FE
0001FE
0001FE
0001FE
0001FE
0001FE
0001FE
0001FE
0001FE
0001FE
0001FE
0001FE
0001FE
0001FE
0001FE
0001FE
0001FE
0001FE
0001FE
0001FE
0001FE
0001FE
0001FE
0001FE
0001FE
0001FE
0001FE
0001FE
0001FE
0001FE
0001FE
0001FE
0001FE
0001FE
0001FE
0001FE
0001FE
0001FE
0001FE
0001FE
0001FE
0001FE
0001FE
0001FE
0001FE
0001FE
0001FE
0001FE
0001FE
0001FE
0001FE
0001FE
0001FE
0001FE
0001FE
0001FE
0001FE
0001FE
0001FE
0001FE
FFFFFE
FFFFFE
FFFFFE
FFFFFE
FFFFFE
FFFFFE
FFFFFE
ENDCHAR
STARTCHAR 005E
ENCODING 94
SWIDTH 552 0
DWIDTH 53 0
BBX 41 30 6 31
BITMAP
0000FF000000
0000FF000000
0001FF800000
0001FF800000
0003FFC00000
0007FFE00000
0007FFE00000
000FEFF00000
000FC7F00000
001FC7F80000
001F83FC0000
003F83FC0000
007F01FE0000
007F00FE0000
00FE00FF0000
00FE007F8000
01FC007F8000
01F8003FC000
03F8001FC000
07F0001FE000
07F0000FF000
0FE0000FF000
0FE00007F800
1FC00003FC00
1FC00003FC00
3F800001FE00
7F000001FE00
7F000000FF00
FE0000007F80
FE0000007F80
ENDCHAR
STARTCHAR 005F
ENCODING 95
SWIDTH 552 0
DWIDTH 53 0
BBX 53 7 0 -19
BITMAP
FFFFFFFFFFFFF8
FFFFFFFFFFFFF8
FFFFFFFFFFFFF8
FFFFFFFFFFFFF8
FFFFFFFFFFFFF8
FFFFFFFFFFFFF8
FFFFFFFFFFFFF8
ENDCHAR
STARTCHAR 0060
ENCODING 96
SWIDTH 552 0
DWIDTH 53 0
BBX 22 11 9 47
BITMAP
FFF000
7FF800
3FFC00
0FFE00
07FF00
01FF80
00FFC0
007FE0
001FF0
000FF8
0007FC
ENDCHAR
STARTCHAR 0061
ENCODING 97
SWIDTH 552 0
DWIDTH 53 0
BBX 39 49 6 -1
BITMAP
0003FFC000
007FFFFC00
07FFFFFF00
0FFFFFFFC0
0FFFFFFFE0
0FFFFFFFF0
0FFFFFFFF8
0FFC00FFF8
0F80001FFC
0C00000FFC
00000007FC
00000003FE
00000003FE
00000001FE
00000001FE
00000001FE
00000001FE
00000001FE
00000001FE
00000001FE
00000001FE
0003FFFFFE
003FFFFFFE
00FFFFFFFE
03FFFFFFFE
07FFFFFFFE
0FFFFFFFFE
1FFF0001FE
3FF80001FE
7FF00001FE
7FE00001FE
7FC00001FE
FF800001FE
FF800001FE
FF800001FE
FF800001FE
FF800007FE
FF80000FFE
FFC0001FFE
FFC0007FFE
7FE001FFFE
7FF80FFFFE
3FFFFFFEFE
3FFFFFFCFE
1FFFFFF8FE
0FFFFFE0FE
07FFFFC0FE
01FFFE00FE
003FF00000
ENDCHAR
STARTCHAR 0062
ENCODING 98
SWIDTH 552 0
DWIDTH 53 0
BBX 40 67 8 -1
BITMAP
FF00000000
FF00000000
FF00000000
FF00000000
FF00000000
FF00000000
FF00000000
FF00000000
FF00000000
FF00000000
FF00000000
FF00000000
FF00000000
FF00000000
FF00000000
FF00000000
FF00000000
FF00000000
FF001FF000
FF00FFFC00
FF03FFFF00
FF07FFFF80
FF1FFFFFC0
FF3FFFFFE0
FF7FFFFFF0
FF7FE07FF0
FFFF801FF8
FFFE000FF8
FFFC0007FC
FFF80003FC
FFF00003FE
FFE00003FE
FFC00001FE
FF800001FE
FF000001FE
FF000000FF
FF000000FF
FF000000FF
FF000000FF
FF000000FF
FF000000FF
FF000000FF
FF000000FF
FF000000FF
FF000000FF
FF000000FF
FF000000FF
FF000000FF
FF000001FE
FF000001FE
FF000001FE
FF000003FE
FF000003FC
FF000003FC
FF000007FC
FF00000FF8
FF00001FF8
FF00003FF0
FF80007FE0
FFF803FFE0
FFFFFFFFC0
FFFFFFFF80
FFFFFFFE00
FFFFFFFC00
3FFFFFF000
07FFFFC000
003FFC0000
ENDCHAR
STARTCHAR 0063
ENCODING 99
SWIDTH 552 0
DWIDTH 53 0
BBX 37 49 7 -1
BITMAP
00001FFE00
0001FFFFE0
0007FFFFF8
001FFFFFF8
007FFFFFF8
00FFFFFFF8
01FFFFFFF8
03FFF803F8
07FFC00078
0FFF000008
0FFE000000
1FFC000000
1FF8000000
3FF0000000
3FF0000000
7FE0000000
7FE0000000
7FC0000000
7FC0000000
FFC0000000
FF80000000
FF80000000
FF80000000
FF80000000
FF80000000
FF80000000
FF80000000
FF80000000
FF80000000
FF80000000
FFC0000000
7FC0000000
7FC0000000
7FC0000000
7FE0000000
3FE0000000
3FF0000000
3FF8000000
1FFC000000
1FFE000008
0FFF800038
07FFF003F8
03FFFFFFF8
01FFFFFFF8
00FFFFFFF8
007FFFFFF8
001FFFFFF8
0003FFFFE0
00003FFC00
ENDCHAR
STARTCHAR 0064
ENCODING 100
SWIDTH 552 0
DWIDTH 53 0
BBX 40 67 5 -1
BITMAP
00000000FF
00000000FF
00000000FF
00000000FF
00000000FF
00000000FF
00000000FF
00000000FF
00000000FF
00000000FF
00000000FF
00000000FF
00000000FF
00000000FF
00000000FF
00000000FF
00000000FF
00000000FF
00003FF8FF
0003FFFFFF
000FFFFFFF
003FFFFFFF
007FFFFFFF
01FFFFFFFF
03FFFFFFFF
03FFC01FFF
07FF0001FF
0FFC0000FF
1FF80000FF
1FF00000FF
3FE00000FF
3FC00000FF
3FC00000FF
7F800000FF
7F800000FF
7F800000FF
7F800000FF
FF000000FF
FF000000FF
FF000000FF
FF000000FF
FF000000FF
FF000000FF
FF000000FF
FF000000FF
FF000000FF
FF000000FF
FF000000FF
FF000000FF
FF000000FF
7F800001FF
7F800003FF
7F800007FF
7F80000FFF
7FC0001FFF
3FC0001FFF
3FE0007FFF
3FF000FF7F
1FF801FF7F
1FFE07FE7F
0FFFFFFC7F
07FFFFF87F
03FFFFF07F
01FFFFE07F
00FFFF807F
003FFE007F
000FF00000
ENDCHAR
STARTCHAR 0065
ENCODING 101
SWIDTH 552 0
DWIDTH 53 0
BBX 41 49 5 -1
BITMAP
0000FFC00000
0007FFF80000
001FFFFE0000
003FFFFF8000
00FFFFFFC000
01FFFFFFE000
03FFFFFFF000
07FFC07FF800
07FF001FFC00
0FFC0007FC00
1FF80003FE00
1FF00001FE00
3FF00001FF00
3FE00000FF00
3FE00000FF00
7FC00000FF00
7FC000007F80
7FC000007F80
7F8000007F80
FF8000007F80
FF8000007F80
FFFFFFFFFF80
FFFFFFFFFF80
FFFFFFFFFF80
FFFFFFFFFF80
FFFFFFFFFF80
FFFFFFFFFF80
FF8000000000
FF8000000000
FF8000000000
FF8000000000
7F8000000000
7FC000000000
7FC000000000
7FC000000000
7FE000000000
3FF000000000
3FF000000000
1FF800000000
1FFE00000000
0FFF00000600
07FFE001FE00
07FFFFFFFE00
03FFFFFFFE00
01FFFFFFFE00
007FFFFFFE00
001FFFFFFE00
0007FFFFF800
00007FFE0000
ENDCHAR
STARTCHAR 0066
ENCODING 102
SWIDTH 552 0
DWIDTH 53 0
BBX 45 67 4 0
BITMAP
00000007FFC0
0000007FFFF8
000001FFFFF8
000007FFFFF8
00000FFFFFF8
00001FFFFFF8
00003FFFFFF8
00003FFC0078
00007FE00000
00007FC00000
0000FF800000
0000FF000000
0000FF000000
0001FF000000
0001FE000000
0001FE000000
0001FE000000
0001FE000000
0001FE000000
0001FE000000
0001FE000000
0001FE000000
0001FE000000
0001FE000000
0001FE000000
0001FE000000
FFFFFFFFFFF0
FFFFFFFFFFF0
FFFFFFFFFFF0
FFFFFFFFFFF0
FFFFFFFFFFF0
FFFFFFFFFFF0
FFFFFFFFFFF0
0001FE000000
0001FE000000
0001FE000000
0001FE000000
0001FE000000
0001FE000000
0001FE000000
0001FE000000
0001FE000000
0001FE000000
0001FE000000
0001FE000000
0001FE000000
0001FE000000
0001FE000000
0001FE000000
0001FE000000
0001FE000000
0001FE000000
0001FE000000
0001FE000000
0001FE000000
0001FE000000
0001FE000000
0001FE000000
0001FE000000
0001FE000000
0001FE000000
0001FE000000
0001FE000000
0001FE000000
0001FE000000
0001FE000000
0001FE000000
ENDCHAR
STARTCHAR 0067
ENCODING 103
SWIDTH 552 0
DWIDTH 53 0
BBX 45 68 4 -20
BITMAP
00007FC00000
0007FFFFFFF8
001FFFFFFFF8
007FFFFFFFF8
00FFFFFFFFF8
01FFFFFFFFF8
03FFC07FFFF8
07FF001FFFF8
07FC0007FC00
0FF80003FC00
0FF80003FE00
0FF00001FE00
1FF00001FF00
1FE00000FF00
1FE00000FF00
1FE00000FF00
1FE00000FF00
1FE00000FF00
1FE00000FF00
1FF00001FF00
0FF00001FE00
0FF00003FE00
0FF80003FE00
07FC0007FC00
07FF001FFC00
03FFC07FF800
03FFFFFFF000
03FFFFFFE000
07FFFFFFC000
0FFFFFFF0000
0FE7FFFC0000
1FE07FE00000
1FC000000000
3FC000000000
3FC000000000
3FC000000000
3FC000000000
3FE000000000
3FF000000000
3FFFC0000000
1FFFFFFFC000
0FFFFFFFF800
0FFFFFFFFE00
03FFFFFFFF80
03FFFFFFFFC0
07FFFFFFFFE0
0FFC1FFFFFF0
1FF80001FFF0
3FF000003FF0
7FE000001FF8
7FC000000FF8
7FC000000FF8
FF8000000FF8
FF8000000FF8
FF8000000FF8
FF8000001FF8
FF8000001FF0
FFC000003FF0
FFE000007FE0
7FF80001FFE0
7FFF000FFFC0
3FFFFFFFFF80
1FFFFFFFFF00
0FFFFFFFFE00
07FFFFFFF800
01FFFFFFE000
003FFFFF8000
0003FFF00000
ENDCHAR
STARTCHAR 0068
ENCODING 104
SWIDTH 552 0
DWIDTH 53 0
BBX 38 66 8 0
BITMAP
FF00000000
FF00000000
FF00000000
FF00000000
FF00000000
FF00000000
FF00000000
FF00000000
FF00000000
FF00000000
FF00000000
FF00000000
FF00000000
FF00000000
FF00000000
FF00000000
FF00000000
FF00000000
FF001FE000
FF00FFFC00
FF03FFFF00
FF07FFFF80
FF1FFFFFC0
FF3FFFFFE0
FF7FFFFFF0
FFFFE07FF0
FFFF801FF8
FFFE000FF8
FFFC000FF8
FFF80007F8
FFF00007FC
FFE00003FC
FFC00003FC
FF800003FC
FF000003FC
FF000003FC
FF000003FC
FF000003FC
FF000003FC
FF000003FC
FF000003FC
FF000003FC
FF000003FC
FF000003FC
FF000003FC
FF000003FC
FF000003FC
FF000003FC
FF000003FC
FF000003FC
FF000003FC
FF000003FC
FF000003FC
FF000003FC
FF000003FC
FF000003FC
FF000003FC
FF000003FC
FF000003FC
FF000003FC
FF000003FC
FF000003FC
FF000003FC
FF000003FC
FF000003FC
FF000003FC
ENDCHAR
STARTCHAR 0069
ENCODING 105
SWIDTH 552 0
DWIDTH 53 0
BBX 38 67 8 0
BITMAP
0000F80000
0003FE0000
0007FF0000
0007FF0000
000FFF8000
000FFF8000
000FFF8000
000FFF8000
000FFF8000
0007FF0000
0007FF0000
0003FE0000
0000F80000
0000000000
0000000000
0000000000
0000000000
0000000000
0000000000
0000000000
3FFFFF0000
3FFFFF0000
3FFFFF0000
3FFFFF0000
3FFFFF0000
3FFFFF0000
3FFFFF0000
0000FF0000
0000FF0000
0000FF0000
0000FF0000
0000FF0000
0000FF0000
0000FF0000
0000FF0000
0000FF0000
0000FF0000
0000FF0000
0000FF0000
0000FF0000
0000FF0000
0000FF0000
0000FF0000
0000FF0000
0000FF0000
0000FF0000
0000FF0000
0000FF0000
0000FF0000
0000FF0000
0000FF0000
0000FF0000
0000FF0000
0000FF0000
0000FF0000
0000FF0000
0000FF0000
0000FF0000
0000FF0000
0000FF0000
FFFFFFFFFC
FFFFFFFFFC
FFFFFFFFFC
FFFFFFFFFC
FFFFFFFFFC
FFFFFFFFFC
FFFFFFFFFC
ENDCHAR
STARTCHAR 006A
ENCODING 106
SWIDTH 552 0
DWIDTH 53 0
BBX 35 87 6 -20
BITMAP
0000003E00
000000FF80
000001FFC0
000001FFC0
000003FFE0
000003FFE0
000003FFE0
000003FFE0
000003FFE0
000001FFC0
000001FFC0
000000FF80
0000003E00
0000000000
0000000000
0000000000
0000000000
0000000000
0000000000
0000000000
3FFFFFFF80
3FFFFFFF80
3FFFFFFF80
3FFFFFFF80
3FFFFFFF80
3FFFFFFF80
3FFFFFFF80
0000007F80
0000007F80
0000007F80
0000007F80
0000007F80
0000007F80
0000007F80
0000007F80
0000007F80
0000007F80
0000007F80
0000007F80
0000007F80
0000007F80
0000007F80
0000007F80
0000007F80
0000007F80
0000007F80
0000007F80
0000007F80
0000007F80
0000007F80
0000007F80
0000007F80
0000007F80
0000007F80
0000007F80
0000007F80
0000007F80
0000007F80
0000007F80
0000007F80
0000007F80
0000007F80
0000007F80
0000007F80
0000007F80
0000007F80
0000007F80
0000007F80
0000007F80
0000007F80
0000007F80
000000FF80
000000FF00
000000FF00
000001FF00
000001FE00
000003FE00
800007FE00
F0000FFC00
FF007FF800
FFFFFFF800
FFFFFFF000
FFFFFFE000
FFFFFF8000
FFFFFF0000
3FFFFC0000
03FFC00000
ENDCHAR
STARTCHAR 006B
ENCODING 107
SWIDTH 552 0
DWIDTH 53 0
BBX 41 66 9 0
BITMAP
FF0000000000
FF0000000000
FF0000000000
FF0000000000
FF0000000000
FF0000000000
FF0000000000
FF0000000000
FF0000000000
FF0000000000
FF0000000000
FF0000000000
FF0000000000
FF0000000000
FF0000000000
FF0000000000
FF0000000000
FF0000000000
FF0000000000
FF00000FFF00
FF00000FFE00
FF00001FF800
FF00003FF000
FF00007FE000
FF0000FFC000
FF0001FF8000
FF0003FF0000
FF0007FE0000
FF000FFC0000
FF001FF80000
FF003FF00000
FF007FE00000
FF00FFC00000
FF01FF800000
FF03FF000000
FF07FE000000
FF0FFC000000
FF1FF8000000
FF3FF0000000
FF7FE0000000
FFFFC0000000
FF7FE0000000
FF7FF0000000
FF3FF8000000
FF1FF8000000
FF0FFC000000
FF07FE000000
FF03FF000000
FF01FF800000
FF00FFC00000
FF00FFE00000
FF007FF00000
FF003FF80000
FF001FFC0000
FF000FFE0000
FF0007FE0000
FF0003FF0000
FF0001FF8000
FF0001FFC000
FF0000FFE000
FF00007FF000
FF00003FF800
FF00001FFC00
FF00000FFE00
FF000007FF00
FF000003FF80
ENDCHAR
STARTCHAR 006C
ENCODING 108
SWIDTH 552 0
DWIDTH 53 0
BBX 38 66 8 0
BITMAP
3FFFFF0000
3FFFFF0000
3FFFFF0000
3FFFFF0000
3FFFFF0000
3FFFFF0000
3FFFFF0000
0000FF0000
0000FF0000
0000FF0000
0000FF0000
0000FF0000
0000FF0000
0000FF0000
0000FF0000
0000FF0000
0000FF0000
0000FF0000
0000FF0000
0000FF0000
0000FF0000
0000FF0000
0000FF0000
0000FF0000
0000FF0000
0000FF0000
0000FF0000
0000FF0000
0000FF0000
0000FF0000
0000FF0000
0000FF0000
0000FF0000
0000FF0000
0000FF0000
0000FF0000
0000FF0000
0000FF0000
0000FF0000
0000FF0000
0000FF0000
0000FF0000
0000FF0000
0000FF0000
0000FF0000
0000FF0000
0000FF0000
0000FF0000
0000FF0000
0000FF0000
0000FF0000
0000FF0000
0000FF0000
0000FF0000
0000FF0000
0000FF0000
0000FF0000
0000FF0000
0000FF0000
FFFFFFFFFC
FFFFFFFFFC
FFFFFFFFFC
FFFFFFFFFC
FFFFFFFFFC
FFFFFFFFFC
FFFFFFFFFC
ENDCHAR
STARTCHAR 006D
ENCODING 109
SWIDTH 552 0
DWIDTH 53 0
BBX 44 48 5 0
BITMAP
0003F000FC00
FE07FC01FF00
FE1FFE07FF80
FE1FFE07FFC0
FE3FFF0FFFC0
FE7FFF1FFFE0
FE7FFF1FFFE0
FEFC7FBF1FE0
FEF87FBE1FF0
FFF03FFC0FF0
FFE03FFC0FF0
FFE03FF80FF0
FFC03FF00FF0
FFC03FF00FF0
FF803FF00FF0
FF803FE00FF0
FF803FE00FF0
FF003FC00FF0
FF003FC00FF0
FF003FC00FF0
FF003FC00FF0
FF003FC00FF0
FF003FC00FF0
FF003FC00FF0
FF003FC00FF0
FF003FC00FF0
FF003FC00FF0
FF003FC00FF0
FF003FC00FF0
FF003FC00FF0
FF003FC00FF0
FF003FC00FF0
FF003FC00FF0
FF003FC00FF0
FF003FC00FF0
FF003FC00FF0
FF003FC00FF0
FF003FC00FF0
FF003FC00FF0
FF003FC00FF0
FF003FC00FF0
FF003FC00FF0
FF003FC00FF0
FF003FC00FF0
FF003FC00FF0
FF003FC00FF0
FF003FC00FF0
FF003FC00FF0
ENDCHAR
STARTCHAR 006E
ENCODING 110
SWIDTH 552 0
DWIDTH 53 0
BBX 38 48 8 0
BITMAP
00001FF000
FE00FFFC00
FE03FFFF00
FE07FFFF80
FE1FFFFFC0
FE3FFFFFE0
FE7FFFFFF0
FEFFC07FF0
FEFF001FF8
FFFE000FF8
FFFC000FF8
FFF80007F8
FFF00007FC
FFE00003FC
FFC00003FC
FF800003FC
FF000003FC
FF000003FC
FF000003FC
FF000003FC
FF000003FC
FF000003FC
FF000003FC
FF000003FC
FF000003FC
FF000003FC
FF000003FC
FF000003FC
FF000003FC
FF000003FC
FF000003FC
FF000003FC
FF000003FC
FF000003FC
FF000003FC
FF000003FC
FF000003FC
FF000003FC
FF000003FC
FF000003FC
FF000003FC
FF000003FC
FF000003FC
FF000003FC
FF000003FC
FF000003FC
FF000003FC
FF000003FC
ENDCHAR
STARTCHAR 006F
ENCODING 111
SWIDTH 552 0
DWIDTH 53 0
BBX 44 49 4 -1
BITMAP
00007FF00000
0003FFFE0000
000FFFFF8000
003FFFFFE000
007FFFFFF000
01FFFFFFFC00
03FFFFFFFE00
07FFC03FFE00
07FF0007FF00
0FFC0003FF80
1FF80001FF80
1FF00000FFC0
3FE000007FC0
3FE000003FC0
3FC000003FE0
7FC000001FE0
7F8000001FE0
7F8000001FE0
7F8000001FF0
FF0000000FF0
FF0000000FF0
FF0000000FF0
FF0000000FF0
FF0000000FF0
FF0000000FF0
FF0000000FF0
FF0000000FF0
FF0000000FF0
FF0000000FF0
FF0000000FF0
FF8000001FE0
7F8000001FE0
7F8000001FE0
7F8000003FE0
7FC000003FC0
3FC000007FC0
3FE000007FC0
3FF00000FF80
1FF80001FF80
1FFC0003FF00
0FFE000FFE00
07FFC03FFE00
07FFFFFFFC00
03FFFFFFF800
01FFFFFFE000
007FFFFFC000
003FFFFF0000
0007FFFC0000
0000FFE00000
ENDCHAR
STARTCHAR 0070
ENCODING 112
SWIDTH 552 0
DWIDTH 53 0
BBX 39 67 8 -19
BITMAP
00001FE000
FE00FFFC00
FE03FFFE00
FE07FFFF00
FE1FFFFF80
FE3FFFFFC0
FE7FFFFFE0
FF7FE0FFF0
FFFF003FF0
FFFE001FF8
FFFC000FF8
FFF80007F8
FFF00007FC
FFE00003FC
FFC00003FC
FF800003FC
FF000003FC
FF000001FE
FF000001FE
FF000001FE
FF000001FE
FF000001FE
FF000001FE
FF000001FE
FF000001FE
FF000001FE
FF000001FE
FF000001FE
FF000001FE
FF000001FE
FF000003FC
FF000003FC
FF000003FC
FF000003FC
FF000007F8
FF000007F8
FF00000FF8
FF00001FF0
FF00003FF0
FF00007FE0
FF8000FFC0
FFF807FFC0
FFFFFFFF80
FFFFFFFF00
FFFFFFFE00
FFFFFFF800
FFFFFFF000
FFFFFF8000
FF0FFC0000
FF00000000
FF00000000
FF00000000
FF00000000
FF00000000
FF00000000
FF00000000
FF00000000
FF00000000
FF00000000
FF00000000
FF00000000
FF00000000
FF00000000
FF00000000
FF00000000
FF00000000
FF00000000
ENDCHAR
STARTCHAR 0071
ENCODING 113
SWIDTH 552 0
DWIDTH 53 0
BBX 40 67 5 -19
BITMAP
00003FF803
0003FFFFFF
000FFFFFFF
003FFFFFFF
007FFFFFFF
01FFFFFFFF
03FFFFFFFF
03FFC01FFF
07FF0001FF
0FFC0000FF
1FF80000FF
1FF00000FF
3FE00000FF
3FC00000FF
3FC00000FF
7F800000FF
7F800000FF
7F800000FF
7F800000FF
FF000000FF
FF000000FF
FF000000FF
FF000000FF
FF000000FF
FF000000FF
FF000000FF
FF000000FF
FF000000FF
FF000000FF
FF000000FF
FF000000FF
FF000000FF
7F800001FF
7F800003FF
7F800007FF
7FC0000FFF
7FC0000FFF
3FC0001FFF
3FE0007FFF
3FF000FFFF
1FF801FFFF
1FFE07FEFF
0FFFFFFCFF
07FFFFF8FF
03FFFFF0FF
01FFFFE0FF
00FFFF80FF
003FFE00FF
000FF000FF
00000000FF
00000000FF
00000000FF
00000000FF
00000000FF
00000000FF
00000000FF
00000000FF
00000000FF
00000000FF
00000000FF
00000000FF
00000000FF
00000000FF
00000000FF
00000000FF
00000000FF
00000000FF
ENDCHAR
STARTCHAR 0072
ENCODING 114
SWIDTH 552 0
DWIDTH 53 0
BBX 38 48 9 0
BITMAP
00000FF000
FE007FFE00
FE01FFFF00
FE03FFFF80
FE0FFFFFC0
FE1FFFFFE0
FE3FFFFFF0
FE7FF07FF0
FEFF801FF8
FEFF000FF8
FFFE0007F8
FFFC0007F8
FFF80007FC
FFF00003FC
FFE00003FC
FFC00003FC
FF800003FC
FF000003FC
FF000003FC
FF00000000
FF00000000
FF00000000
FF00000000
FF00000000
FF00000000
FF00000000
FF00000000
FF00000000
FF00000000
FF00000000
FF00000000
FF00000000
FF00000000
FF00000000
FF00000000
FF00000000
FF00000000
FF00000000
FF00000000
FF00000000
FF00000000
FF00000000
FF00000000
FF00000000
FF00000000
FF00000000
FF00000000
FF00000000
ENDCHAR
STARTCHAR 0073
ENCODING 115
SWIDTH 552 0
DWIDTH 53 0
BBX 36 49 9 -1
BITMAP
0003FFC000
003FFFFE00
00FFFFFF80
03FFFFFF80
07FFFFFF80
0FFFFFFF80
1FFFFFFF80
1FFE003F80
3FF0000180
3FC0000000
7FC0000000
7F80000000
7F80000000
7F80000000
7F80000000
7FC0000000
7FC0000000
3FF0000000
3FF8000000
1FFF000000
1FFFE00000
0FFFFC0000
07FFFF8000
03FFFFE000
00FFFFF800
003FFFFE00
0007FFFF00
0000FFFF80
00001FFFC0
000003FFE0
000000FFE0
0000003FF0
0000001FF0
0000001FF0
0000000FF0
0000000FF0
0000000FF0
0000000FF0
0000001FF0
0000003FE0
C000007FE0
FF0003FFC0
FFFFFFFFC0
FFFFFFFF80
FFFFFFFF00
FFFFFFFC00
FFFFFFF000
FFFFFFC000
0FFFFC0000
ENDCHAR
STARTCHAR 0074
ENCODING 116
SWIDTH 552 0
DWIDTH 53 0
BBX 42 63 3 -1
BITMAP
000018000000
0001F8000000
0007F8000000
0007F8000000
0007F8000000
0007F8000000
0007F8000000
0007F8000000
0007F8000000
0007F8000000
0007F8000000
0007F8000000
0007F8000000
0007F8000000
0007F8000000
FFFFFFFFFFC0
FFFFFFFFFFC0
FFFFFFFFFFC0
FFFFFFFFFFC0
FFFFFFFFFFC0
FFFFFFFFFFC0
FFFFFFFFFFC0
0007F8000000
0007F8000000
0007F8000000
0007F8000000
0007F8000000
0007F8000000
0007F8000000
0007F8000000
0007F8000000
0007F8000000
0007F8000000
0007F8000000
0007F8000000
0007F8000000
0007F8000000
0007F8000000
0007F8000000
0007F8000000
0007F8000000
0007F8000000
0007F8000000
0007F8000000
0007F8000000
0007F8000000
0007F8000000
0007F8000000
0007F8000000
0007F8000000
0007FC000000
0007FC000000
0003FE000000
0003FF000000
0003FF800000
0001FFF001C0
0001FFFFFFC0
0000FFFFFFC0
00007FFFFFC0
00003FFFFFC0
00001FFFFFC0
000007FFFFC0
0000007FFE00
ENDCHAR
STARTCHAR 0075
ENCODING 117
SWIDTH 552 0
DWIDTH 53 0
BBX 38 48 8 -1
BITMAP
FF000003FC
FF000003FC
FF000003FC
FF000003FC
FF000003FC
FF000003FC
FF000003FC
FF000003FC
FF000003FC
FF000003FC
FF000003FC
FF000003FC
FF000003FC
FF000003FC
FF000003FC
FF000003FC
FF000003FC
FF000003FC
FF000003FC
FF000003FC
FF000003FC
FF000003FC
FF000003FC
FF000003FC
FF000003FC
FF000003FC
FF000003FC
FF000003FC
FF000003FC
FF000003FC
FF000003FC
FF000003FC
FF000007FC
FF00000FFC
FF00001FFC
FF80003FFC
FF80007FFC
7FC000FFFC
7FC001FFFC
7FE003FDFC
3FF81FFDFC
3FFFFFF9FC
1FFFFFF1FC
0FFFFFE1FC
0FFFFF81FC
03FFFF01FC
01FFFC01FC
003FE00000
ENDCHAR
STARTCHAR 0076
ENCODING 118
SWIDTH 552 0
DWIDTH 53 0
BBX 45 47 4 0
BITMAP
FF8000000FF8
FF8000000FF8
FFC000000FF8
7FC000001FF0
7FC000001FF0
3FE000001FE0
3FE000003FE0
3FE000003FE0
1FF000007FC0
1FF000007FC0
0FF800007F80
0FF80000FF80
0FF80000FF80
07FC0000FF00
07FC0001FF00
07FC0001FE00
03FE0001FE00
03FE0003FE00
01FE0003FC00
01FF0007FC00
01FF0007F800
00FF0007F800
00FF800FF800
007F800FF000
007F800FF000
007FC01FE000
003FC01FE000
003FE01FE000
003FE03FC000
001FE03FC000
001FF07FC000
000FF07F8000
000FF07F8000
000FF8FF0000
0007F8FF0000
0007F8FF0000
0003FDFE0000
0003FDFE0000
0003FDFC0000
0001FFFC0000
0001FFFC0000
0000FFF80000
0000FFF80000
0000FFF00000
00007FF00000
00007FF00000
00007FE00000
ENDCHAR
STARTCHAR 0077
ENCODING 119
SWIDTH 552 0
DWIDTH 53 0
BBX 48 47 3 0
BITMAP
FF00000000FF
FF00000000FF
FF00000000FF
FF00000000FF
FF00000000FF
FF00000000FF
FF00000000FF
7F00000000FE
7F80000000FE
7F80000001FE
7F80000001FE
7F80000001FE
7F800FE001FE
3F800FE001FE
3F800FE001FE
3F800FF001FC
3FC01FF001FC
3FC01FF801FC
3FC01FF801FC
3FC03FF803FC
1FC03FFC03FC
1FC03FFC03FC
1FC03EFC03F8
1FC07EFE03F8
1FE07EFE03F8
1FE07EFF03F8
1FE0FC7F03F8
0FE0FC7F03F8
0FE0FC7F83F8
0FE0F83F87F0
0FE1F83F87F0
0FF1F81FC7F0
0FF1F81FC7F0
07F3F01FE7F0
07F3F00FE7F0
07F3F00FE7F0
07F7E00FF7F0
07F7E007F7E0
07F7E007F7E0
07FFC007FFE0
03FFC003FFE0
03FFC003FFE0
03FFC001FFE0
03FF8001FFE0
03FF8001FFC0
03FF8000FFC0
03FF0000FFC0
ENDCHAR
STARTCHAR 0078
ENCODING 120
SWIDTH 552 0
DWIDTH 53 0
BBX 47 47 3 0
BITMAP
7FF000000FFC
3FF000001FF8
1FF800003FF0
0FFC00003FE0
0FFC00007FE0
07FE0000FFC0
03FF0001FF80
01FF8001FF00
01FF8003FF00
00FFC007FE00
007FE007FC00
003FE00FF800
003FF01FF800
001FF81FF000
000FF83FE000
0007FC7FC000
0007FE7FC000
0003FEFF8000
0001FFFF0000
0000FFFE0000
0000FFFE0000
00007FFC0000
00003FF80000
00003FF00000
00007FF80000
0000FFFC0000
0000FFFE0000
0001FFFF0000
0003FFFF0000
0007FEFF8000
0007FE7FC000
000FFC7FE000
001FF83FF000
003FF01FF000
003FF00FF800
007FE00FFC00
00FFC007FE00
01FFC003FE00
03FF8003FF00
03FF0001FF80
07FE0000FFC0
0FFE0000FFE0
1FFC00007FE0
1FF800003FF0
3FF000003FF8
7FF000001FFC
FFE000000FFE
ENDCHAR
STARTCHAR 0079
ENCODING 121
SWIDTH 552 0
DWIDTH 53 0
BBX 47 67 2 -20
BITMAP
7FC0000003FE
7FC0000003FE
3FE0000003FE
3FE0000007FC
3FF0000007FC
1FF0000007F8
1FF000000FF8
0FF800000FF8
0FF800001FF0
0FF800001FF0
07FC00001FE0
07FC00003FE0
03FE00003FE0
03FE00003FC0
03FE00007FC0
01FF00007F80
01FF00007F80
00FF8000FF80
00FF8000FF00
00FF8001FF00
007FC001FE00
007FC001FE00
003FE003FE00
003FE003FC00
001FE003FC00
001FF007F800
001FF007F800
000FF00FF800
000FF80FF000
0007F80FF000
0007FC1FF000
0007FC1FE000
0003FC1FE000
0003FE3FC000
0001FE3FC000
0001FE3FC000
0001FF7F8000
0000FF7F8000
0000FFFF0000
00007FFF0000
00007FFF0000
00007FFE0000
00003FFE0000
00003FFC0000
00001FFC0000
00001FFC0000
00000FF80000
00001FF80000
00001FF00000
00001FF00000
00003FE00000
00007FE00000
00007FC00000
0000FFC00000
0000FF800000
0001FF800000
0003FF000000
0007FE000000
001FFE000000
007FFC000000
FFFFF8000000
FFFFF0000000
FFFFE0000000
FFFF80000000
FFFF00000000
FFFC00000000
FFC000000000
ENDCHAR
STARTCHAR 007A
ENCODING 122
SWIDTH 552 0
DWIDTH 53 0
BBX 38 47 8 0
BITMAP
7FFFFFFFF0
7FFFFFFFF0
7FFFFFFFF0
7FFFFFFFF0
7FFFFFFFF0
7FFFFFFFF0
7FFFFFFFF0
0000003FE0
0000007FC0
000000FF80
000000FF80
000001FF00
000003FE00
000007FC00
00000FFC00
00000FF800
00001FF000
00003FE000
00007FE000
00007FC000
0000FF8000
0001FF0000
0003FF0000
0003FE0000
0007FC0000
000FF80000
001FF80000
001FF00000
003FE00000
007FC00000
00FF800000
00FF800000
01FF000000
03FE000000
07FC000000
07FC000000
0FF8000000
1FF0000000
3FE0000000
3FE0000000
7FFFFFFFFC
FFFFFFFFFC
FFFFFFFFFC
FFFFFFFFFC
FFFFFFFFFC
FFFFFFFFFC
FFFFFFFFFC
ENDCHAR
STARTCHAR 007B
ENCODING 123
SWIDTH 552 0
DWIDTH 53 0
BBX 34 87 8 -19
BITMAP
0000007FC0
000003FFC0
00000FFFC0
00003FFFC0
00007FFFC0
0000FFFFC0
0001FFFFC0
0001FFF000
0003FF8000
0003FF0000
0003FE0000
0007FC0000
0007FC0000
0007F80000
0007F80000
0007F80000
0007F80000
0007F80000
0007F80000
0007F80000
0007F80000
0007F80000
0007F80000
0007F80000
0007F80000
0007F80000
0007F80000
0007F80000
0007F80000
0007F80000
0007F80000
0007F80000
000FF80000
000FF00000
001FF00000
003FE00000
01FFE00000
FFFFC00000
FFFF800000
FFFE000000
FFE0000000
FFFE000000
FFFF800000
FFFFC00000
01FFE00000
007FE00000
001FF00000
001FF00000
000FF00000
000FF80000
0007F80000
0007F80000
0007F80000
0007F80000
0007F80000
0007F80000
0007F80000
0007F80000
0007F80000
0007F80000
0007F80000
0007F80000
0007F80000
0007F80000
0007F80000
0007F80000
0007F80000
0007F80000
0007F80000
0007F80000
0007F80000
0007F80000
0007F80000
0007F80000
0007FC0000
0003FC0000
0003FE0000
0003FF0000
0003FF8000
0001FFE000
0000FFFFC0
0000FFFFC0
00007FFFC0
00003FFFC0
00000FFFC0
000003FFC0
0000007FC0
ENDCHAR
STARTCHAR 007C
ENCODING 124
SWIDTH 552 0
DWIDTH 53 0
BBX 8 96 23 -19
BITMAP
FF
FF
FF
FF
FF
FF
FF
FF
FF
FF
FF
FF
FF
FF
FF
FF
FF
FF
FF
FF
FF
FF
FF
FF
FF
FF
FF
FF
FF
FF
FF
FF
FF
FF
FF
FF
FF
FF
FF
FF
FF
FF
FF
FF
FF
FF
FF
FF
FF
FF
FF
FF
FF
FF
FF
FF
FF
FF
FF
FF
FF
FF
FF
FF
FF
FF
FF
FF
FF
FF
FF
FF
FF
FF
FF
FF
FF
FF
FF
FF
FF
FF
FF
FF
FF
FF
FF
FF
FF
FF
FF
FF
FF
FF
FF
FF
ENDCHAR
STARTCHAR 007D
ENCODING 125
SWIDTH 552 0
DWIDTH 53 0
BBX 34 87 11 -19
BITMAP
FF80000000
FFF0000000
FFFC000000
FFFF000000
FFFF800000
FFFFC00000
FFFFE00000
01FFE00000
007FF00000
003FF00000
001FF00000
000FF00000
000FF80000
0007F80000
0007F80000
0007F80000
0007F80000
0007F80000
0007F80000
0007F80000
0007F80000
0007F80000
0007F80000
0007F80000
0007F80000
0007F80000
0007F80000
0007F80000
0007F80000
0007F80000
0007F80000
0007FC0000
0007FC0000
0003FC0000
0003FE0000
0001FF8000
0001FFE000
0000FFFFC0
00007FFFC0
00001FFFC0
000001FFC0
00001FFFC0
00003FFFC0
0000FFFFC0
0001FFE000
0001FF0000
0003FE0000
0003FC0000
0003FC0000
0007F80000
0007F80000
0007F80000
0007F80000
0007F80000
0007F80000
0007F80000
0007F80000
0007F80000
0007F80000
0007F80000
0007F80000
0007F80000
0007F80000
0007F80000
0007F80000
0007F80000
0007F80000
0007F80000
0007F80000
0007F80000
0007F80000
0007F80000
0007F80000
000FF80000
000FF80000
000FF00000
001FF00000
003FF00000
007FF00000
01FFE00000
FFFFE00000
FFFFC00000
FFFF800000
FFFF000000
FFFC000000
FFF0000000
FF80000000
ENDCHAR
STARTCHAR 007E
ENCODING 126
SWIDTH 552 0
DWIDTH 53 0
BBX 47 19 3 16
BITMAP
007F80000000
01FFE0000000
07FFF8000000
0FFFFC0001FE
1FFFFE0001FE
1FFFFF0001FE
3FFFFF8001FE
7FE0FFC001FE
7FC07FE003FC
7F801FF003FC
FF800FFC07FC
FF0007FE0FFC
FF0003FFFFF8
FF0001FFFFF0
FF0000FFFFF0
FF00007FFFE0
0000003FFFC0
0000000FFF00
00000003FC00
ENDCHAR
STARTCHAR 00A0
ENCODING 160
SWIDTH 552 0
DWIDTH 53 0
BBX 0 0 0 0
BITMAP
ENDCHAR
STARTCHAR 00A1
ENCODING 161
SWIDTH 552 0
DWIDTH 53 0
BBX 12 67 20 -19
BITMAP
0F00
3FC0
7FE0
7FE0
FFF0
FFF0
FFF0
FFF0
7FE0
7FE0
3FC0
0F00
0000
0000
0000
0000
0000
0000
3FC0
3FC0
3FC0
3FC0
3FC0
3FC0
3FC0
3FC0
3FC0
3FC0
3FC0
3FC0
3FC0
3FC0
3FC0
3FC0
3FC0
3FC0
3FC0
3FC0
3FC0
3FC0
3FC0
3FC0
3FC0
3FC0
3FC0
3FC0
3FC0
7FC0
7FC0
7FC0
7FC0
7FE0
7FE0
7FE0
7FE0
7FE0
7FE0
7FE0
7FE0
7FE0
7FE0
7FE0
7FE0
7FE0
7FE0
7FE0
7FE0
ENDCHAR
STARTCHAR 00A2
ENCODING 162
SWIDTH 552 0
DWIDTH 53 0
BBX 37 82 6 -12
BITMAP
0000007F00
0000007F00
0000007F00
0000007F00
000000FE00
000000FE00
000000FE00
000000FE00
000000FE00
000000FE00
000000FE00
000001FC00
000001FC00
000001FC00
000001FC00
000001FC00
00003FFF00
0001FFFFF0
000FFFFFF8
003FFFFFF8
007FFFFFF8
00FFFFFFF8
01FFFFFFF8
03FFE3F9F8
07FF83F838
0FFE03F808
1FFC07F000
1FF807F000
3FF007F000
3FE007F000
7FE007F000
7FC007F000
7FC007F000
7FC007E000
FF800FE000
FF800FE000
FF800FE000
FF800FE000
FF800FE000
FF800FE000
FF800FC000
FF801FC000
FF801FC000
FF801FC000
FFC01FC000
7FC01FC000
7FC01FC000
7FE01FC000
7FE03F8000
3FF03F8000
3FF83F8000
1FFC3F8000
1FFE3F8008
0FFFBF8038
0FFFFF83F8
07FFFFFFF8
03FFFFFFF8
00FFFFFFF8
007FFFFFF8
001FFFFFF0
0007FFFF80
00007FF800
00007E0000
0000FE0000
0000FE0000
0000FE0000
0000FE0000
0000FE0000
0000FE0000
0000FE0000
0000FC0000
0001FC0000
0001FC0000
0001FC0000
0001FC0000
0001FC0000
0001FC0000
0001F80000
0003F80000
0003F80000
0003F80000
0003F80000
ENDCHAR
STARTCHAR 00A3
ENCODING 163
SWIDTH 552 0
DWIDTH 53 0
BBX 43 62 4 0
BITMAP
000003FF0000
00001FFFF000
00007FFFFC00
0001FFFFFF00
0003FFFFFF80
0007FFFFFFC0
000FFFFFFFE0
001FFE00FFC0
001FF8001F80
003FF0000F00
003FE0000200
007FC0000000
007F80000000
007F80000000
00FF80000000
00FF00000000
00FF00000000
00FF00000000
00FF00000000
00FF00000000
00FF00000000
00FF00000000
00FF00000000
00FF00000000
00FF00000000
00FF00000000
00FF00000000
00FF00000000
FFFFFFFFF000
FFFFFFFFF000
FFFFFFFFF000
FFFFFFFFF000
FFFFFFFFF000
FFFFFFFFF000
FFFFFFFFF000
00FF00000000
00FF00000000
00FF00000000
00FF00000000
00FF00000000
00FF00000000
00FF00000000
00FF00000000
00FF00000000
00FF00000000
00FF00000000
00FF00000000
00FF00000000
00FF00000000
00FF00000000
00FF00000000
00FF00000000
00FF00000000
00FF00000000
00FF00000000
FFFFFFFFFFE0
FFFFFFFFFFE0
FFFFFFFFFFE0
FFFFFFFFFFE0
FFFFFFFFFFE0
FFFFFFFFFFE0
FFFFFFFFFFE0
ENDCHAR
STARTCHAR 00A4
ENCODING 164
SWIDTH 552 0
DWIDTH 53 0
BBX 45 56 4 3
BITMAP
020000000200
0F0000000780
1F8000000FC0
7F8000000FF0
FFC000001FF8
7FC000001FF0
3FE000003FE0
1FF000007FC0
1FF000007FC0
0FF83FF0FF80
07FDFFFFFF00
03FFFFFFFE00
03FFFFFFFE00
01FFFFFFFC00
00FFFFFFF800
007FFFFFF800
00FFF03FF800
00FFC00FFC00
01FF0007FC00
01FF0003FE00
03FE0003FE00
03FC0001FE00
03FC0001FF00
07FC0000FF00
07F80000FF00
07F80000FF00
07F80000FF00
07F80000FF00
07F80000FF00
07F80000FF00
07F80000FF00
07F80000FF00
07F80001FF00
07FC0001FE00
03FC0001FE00
03FE0003FE00
03FE0007FC00
01FF0007FC00
01FF801FF800
00FFE03FF800
00FFFFFFF000
00FFFFFFF800
01FFFFFFFC00
03FFFFFFFE00
03FFFFFFFE00
07FFFFFDFF00
0FF87FE0FF80
1FF000007FC0
1FF000007FC0
3FE000003FE0
7FC000001FF0
FFC000001FF8
7F8000000FF0
1F8000000FC0
0F0000000780
020000000200
ENDCHAR
STARTCHAR 00A5
ENCODING 165
SWIDTH 552 0
DWIDTH 53 0
BBX 48 61 2 0
BITMAP
FFC0000001FF
7FE0000003FE
3FE0000003FC
3FF0000007FC
1FF800000FF8
1FF800000FF8
0FFC00001FF0
07FC00001FE0
07FE00003FE0
03FE00003FC0
03FF00007FC0
01FF8000FF80
00FF8000FF00
00FFC001FF00
007FC001FE00
007FE003FE00
003FE007FC00
001FF007F800
001FF00FF800
000FF80FF000
0007F81FE000
0007FC1FE000
0003FE3FC000
0003FE7FC000
0001FF7F8000
0000FFFF0000
0000FFFF0000
00007FFE0000
00007FFE0000
00003FFC0000
00001FF80000
00001FF80000
00000FF00000
00000FF00000
07FFFFFFFFE0
07FFFFFFFFE0
07FFFFFFFFE0
07FFFFFFFFE0
07FFFFFFFFE0
07FFFFFFFFE0
00000FF00000
00000FF00000
00000FF00000
00000FF00000
00000FF00000
00000FF00000
00000FF00000
00000FF00000
07FFFFFFFFE0
07FFFFFFFFE0
07FFFFFFFFE0
07FFFFFFFFE0
07FFFFFFFFE0
07FFFFFFFFE0
00000FF00000
00000FF00000
00000FF00000
00000FF00000
00000FF00000
00000FF00000
00000FF00000
ENDCHAR
STARTCHAR 00A6
ENCODING 166
SWIDTH 552 0
DWIDTH 53 0
BBX 8 96 23 -19
BITMAP
FF
FF
FF
FF
FF
FF
FF
FF
FF
FF
FF
FF
FF
FF
FF
FF
FF
FF
FF
FF
FF
FF
FF
FF
FF
FF
FF
FF
FF
FF
FF
FF
FF
FF
FF
FF
FF
FF
00
00
00
00
00
00
00
00
00
00
00
00
00
00
00
00
00
00
00
FF
FF
FF
FF
FF
FF
FF
FF
FF
FF
FF
FF
FF
FF
FF
FF
FF
FF
FF
FF
FF
FF
FF
FF
FF
FF
FF
FF
FF
FF
FF
FF
FF
FF
FF
FF
FF
FF
FF
ENDCHAR
STARTCHAR 00A7
ENCODING 167
SWIDTH 552 0
DWIDTH 53 0
BBX 40 79 7 -12
BITMAP
00001FFF00
0001FFFFE0
0007FFFFE0
001FFFFFE0
003FFFFFE0
007FFFFFE0
00FFFFFFE0
01FFE000E0
03FF000000
03FE000000
03FC000000
07F8000000
07F8000000
07F8000000
07F8000000
07F8000000
07FC000000
07FE000000
03FF000000
03FF800000
01FFC00000
00FFF00000
00FFFC0000
03FFFE0000
07FFFF8000
0FFFFFE000
1FFFFFF000
1FF1FFFC00
3FE07FFE00
3FC01FFF80
7F800FFFC0
7F8003FFE0
FF8001FFF0
FF00007FF8
FF00003FF8
FF00000FFC
FF000007FC
FF000003FE
FF800003FE
FF800001FF
7FC00001FF
7FE00000FF
3FF00000FF
3FF80000FF
1FFC0000FF
0FFE0000FF
07FF8001FE
03FFC001FE
01FFF003FE
00FFFC03FC
007FFE07FC
001FFF9FF8
000FFFFFF0
0003FFFFE0
0000FFFFC0
00007FFF80
00001FFE00
000007FF00
000003FF80
000000FFC0
0000007FC0
0000003FE0
0000003FE0
0000001FE0
0000001FE0
0000001FE0
0000001FE0
0000003FE0
0000003FC0
0000007FC0
300001FF80
3F0007FF80
3FFFFFFF00
3FFFFFFE00
3FFFFFFC00
3FFFFFF800
3FFFFFE000
3FFFFF8000
03FFF80000
ENDCHAR
STARTCHAR 00A8
ENCODING 168
SWIDTH 552 0
DWIDTH 53 0
BBX 31 11 11 47
BITMAP
1F0001F0
3F8003F8
7FC007FC
FFE00FFE
FFE00FFE
FFE00FFE
FFE00FFE
FFE00FFE
7FC007FC
3F8003F8
1F0001F0
ENDCHAR
STARTCHAR 00A9
ENCODING 169
SWIDTH 552 0
DWIDTH 53 0
BBX 51 63 1 -1
BITMAP
000007FE000000
00007FFFC00000
0001FFFFF00000
0007FFFFFC0000
000FFFFFFF0000
003FFC07FF8000
007FE000FFC000
00FF80003FE000
01FF00001FF000
03FC00000FF800
03FC000007F800
07F8000003FC00
07F0000001FC00
0FE0000000FE00
1FE0000000FE00
1FC001FE007F00
1FC007FFC07F00
3F801FFFE07F80
3F803FFFE03F80
3F807FFFE03F80
7F00FF80E01FC0
7F01FF00201FC0
7F01FE00001FC0
7F03FC00001FC0
FF03F800001FC0
FE03F800000FE0
FE03F800000FE0
FE07F000000FE0
FE07F000000FE0
FE07F000000FE0
FE07F000000FE0
FE07F000000FE0
FE07F000000FE0
FE07F000000FE0
FE07F000000FE0
FE07F000000FE0
FE07F000000FE0
FE03F800000FE0
7F03F800001FC0
7F03FC00001FC0
7F03FC00001FC0
7F01FE00201FC0
7F01FF80E01FC0
3F80FFFFE03F80
3F807FFFE03F80
3F803FFFE03F80
1FC00FFFC07F00
1FC003FE007F00
1FE0000000FF00
0FE0000000FE00
0FF0000001FE00
07F8000003FC00
03FC000003F800
03FE000007F800
01FF00001FF000
00FF80003FE000
007FE000FFC000
003FF803FF8000
001FFFFFFF0000
0007FFFFFC0000
0001FFFFF00000
00007FFFC00000
00000FFC000000
ENDCHAR
STARTCHAR 00AA
ENCODING 170
SWIDTH 552 0
DWIDTH 53 0
BBX 32 45 10 17
BITMAP
007FF000
0FFFFE00
1FFFFF80
1FFFFFC0
1FFFFFE0
1FC03FF0
1E000FF0
100007F8
000003F8
000003F8
000003F8
000003F8
000003F8
001FFFF8
01FFFFF8
07FFFFF8
0FFFFFF8
1FFFFFF8
3FF803F8
3FE003F8
7FC003F8
7F8003F8
7F8003F8
7F8007F8
7F800FF8
7F801FF8
7FC03FF8
3FE0FFF8
3FFFFDF8
1FFFF9F8
0FFFE1F8
07FFC1F8
01FE0000
00000000
00000000
00000000
00000000
00000000
00000000
FFFFFFFF
FFFFFFFF
FFFFFFFF
FFFFFFFF
FFFFFFFF
FFFFFFFF
ENDCHAR
STARTCHAR 00AB
ENCODING 171
SWIDTH 552 0
DWIDTH 53 0
BBX 38 38 7 6
BITMAP
0008000080
001E0001C0
003F8003F0
003FC003FC
007F8007F8
00FF800FF8
00FF000FF0
01FE001FE0
01FE003FC0
03FC003FC0
07F8007F80
07F800FF00
0FF001FF00
1FE001FE00
1FE003FC00
3FC007F800
3FC007F800
7F800FF000
FF001FE000
FF001FE000
7F800FF000
3FC007F800
3FC007FC00
1FE003FC00
0FF001FE00
0FF000FF00
07F800FF00
07F8007F80
03FC003FC0
01FE003FE0
01FE001FE0
00FF000FF0
007F800FF8
007F8007F8
003FC003FC
003F8003F0
001E0001C0
0008000000
ENDCHAR
STARTCHAR 00AC
ENCODING 172
SWIDTH 552 0
DWIDTH 53 0
BBX 40 21 5 8
BITMAP
FFFFFFFFFF
FFFFFFFFFF
FFFFFFFFFF
FFFFFFFFFF
FFFFFFFFFF
FFFFFFFFFF
FFFFFFFFFF
00000000FF
00000000FF
00000000FF
00000000FF
00000000FF
00000000FF
00000000FF
00000000FF
00000000FF
00000000FF
00000000FF
00000000FF
00000000FF
00000000FF
ENDCHAR
STARTCHAR 00AD
ENCODING 173
SWIDTH 552 0
DWIDTH 53 0
BBX 28 8 12 22
BITMAP
FFFFFFF0
FFFFFFF0
FFFFFFF0
FFFFFFF0
FFFFFFF0
FFFFFFF0
FFFFFFF0
FFFFFFF0
ENDCHAR
STARTCHAR 00AE
ENCODING 174
SWIDTH 552 0
DWIDTH 53 0
BBX 43 43 5 24
BITMAP
00007FC00000
0003FFF80000
001FFFFE0000
003FFFFF8000
00FFFFFFE000
01FFC07FF000
03FE000FF800
07F80003FC00
0FE00000FE00
0FC7FF807E00
1F87FFF03F00
3F07FFF81F80
3F07FFFC1F80
3E07C0FC0F80
7E07C07C0FC0
7C07C07C07C0
7C07C07C07C0
F807C07C03E0
F807C07C03E0
F807C1F803E0
F807FFF803E0
F807FFE003E0
F807FF8003E0
F807FFE003E0
F807C3E003E0
F807C1F007E0
7C07C1F007C0
7C07C0F807C0
7E07C0F80FC0
3E07C07C0F80
3F07C07C1F80
3F07C03E1F80
1F87C03E3F00
0FC7C01F7E00
0FE00000FE00
07F80003FC00
03FE000FF800
01FF803FF000
00FFFFFFE000
003FFFFF8000
001FFFFF0000
0003FFF80000
00007FC00000
ENDCHAR
STARTCHAR 00AF
ENCODING 175
SWIDTH 552 0
DWIDTH 53 0
BBX 25 6 14 47
BITMAP
FFFFFF80
FFFFFF80
FFFFFF80
FFFFFF80
FFFFFF80
FFFFFF80
ENDCHAR
STARTCHAR 00B0
ENCODING 176
SWIDTH 552 0
DWIDTH 53 0
BBX 34 31 10 36
BITMAP
0007FC0000
003FFF8000
00FFFFE000
03FFFFF800
07FFFFFC00
0FFFFFFE00
1FFC0FFF00
3FF003FF00
3FC000FF80
7FC000FF80
7F80007F80
7F80007FC0
FF00003FC0
FF00003FC0
FF00003FC0
FF00003FC0
FF00003FC0
FF00003FC0
FF00003FC0
FF80007F80
7F80007F80
7F8000FF80
7FC000FF00
3FE003FF00
3FF80FFE00
1FFFFFFC00
0FFFFFF800
07FFFFF000
01FFFFC000
007FFF0000
000FF80000
ENDCHAR
STARTCHAR 00B1
ENCODING 177
SWIDTH 552 0
DWIDTH 53 0
BBX 44 57 5 0
BITMAP
00003FC00000
00003FC00000
00003FC00000
00003FC00000
00003FC00000
00003FC00000
00003FC00000
00003FC00000
00003FC00000
00003FC00000
00003FC00000
00003FC00000
00003FC00000
00003FC00000
00003FC00000
00003FC00000
00003FC00000
00003FC00000
FFFFFFFFFFF0
FFFFFFFFFFF0
FFFFFFFFFFF0
FFFFFFFFFFF0
FFFFFFFFFFF0
FFFFFFFFFFF0
FFFFFFFFFFF0
00003FC00000
00003FC00000
00003FC00000
00003FC00000
00003FC00000
00003FC00000
00003FC00000
00003FC00000
00003FC00000
00003FC00000
00003FC00000
00003FC00000
00003FC00000
00003FC00000
00003FC00000
00003FC00000
00003FC00000
00003FC00000
000000000000
000000000000
000000000000
000000000000
000000000000
000000000000
000000000000
7FFFFFFFFFE0
7FFFFFFFFFE0
7FFFFFFFFFE0
7FFFFFFFFFE0
7FFFFFFFFFE0
7FFFFFFFFFE0
7FFFFFFFFFE0
ENDCHAR
STARTCHAR 00B2
ENCODING 178
SWIDTH 552 0
DWIDTH 53 0
BBX 30 38 12 30
BITMAP
007FC000
03FFF800
0FFFFE00
3FFFFF00
7FFFFF80
FFFFFFC0
7FFFFFE0
3F80FFE0
1C007FF0
08003FF0
00001FF0
00001FF0
00001FF0
00001FF0
00001FF0
00003FE0
00003FE0
00007FE0
0000FFC0
0001FFC0
0003FF80
000FFF00
001FFE00
003FFC00
007FF800
00FFE000
03FFC000
07FF8000
0FFE0000
1FFC0000
7FF80000
FFFFFFFC
FFFFFFFC
FFFFFFFC
FFFFFFFC
FFFFFFFC
FFFFFFFC
FFFFFFFC
ENDCHAR
STARTCHAR 00B3
ENCODING 179
SWIDTH 552 0
DWIDTH 53 0
BBX 28 39 13 29
BITMAP
03FFC000
7FFFF800
7FFFFE00
7FFFFF00
7FFFFF80
7FFFFF80
7FFFFFC0
7C01FFC0
40007FC0
00003FC0
00003FC0
00003FC0
00003FC0
00007F80
0000FF80
0003FF00
03FFFE00
03FFFC00
03FFF800
03FFFE00
03FFFF80
03FFFFC0
0001FFE0
00007FE0
00003FF0
00001FF0
00001FF0
00001FF0
00001FF0
00003FF0
00007FE0
C003FFE0
FFFFFFC0
FFFFFFC0
FFFFFF80
FFFFFF00
FFFFFC00
FFFFF000
3FFF0000
ENDCHAR
STARTCHAR 00B4
ENCODING 180
SWIDTH 552 0
DWIDTH 53 0
BBX 22 11 22 47
BITMAP
003FFC
007FF8
00FFF0
01FFC0
03FF80
07FF00
0FFC00
1FF800
3FE000
7FC000
FF8000
ENDCHAR
STARTCHAR 00B5
ENCODING 181
SWIDTH 552 0
DWIDTH 53 0
BBX 43 66 8 -19
BITMAP
FF000007F800
FF000007F800
FF000007F800
FF000007F800
FF000007F800
FF000007F800
FF000007F800
FF000007F800
FF000007F800
FF000007F800
FF000007F800
FF000007F800
FF000007F800
FF000007F800
FF000007F800
FF000007F800
FF000007F800
FF000007F800
FF000007F800
FF000007F800
FF000007F800
FF000007F800
FF000007F800
FF000007F800
FF000007F800
FF000007F800
FF000007F800
FF000007F800
FF000007F800
FF000007F800
FF000007F800
FF000007F800
FF00000FF800
FF00001FF800
FF00001FF800
FF80003FF800
FF80007FF800
FFC000FFFC00
FFC001FFFC00
FFE007FFFE00
FFF81FFBFFE0
FFFFFFF1FFE0
FFFFFFE1FFE0
FFFFFFC0FFE0
FFFFFF80FFE0
FEFFFF007FE0
FF3FFC001FE0
FF0FE0000000
FF0000000000
FF0000000000
FF0000000000
FF0000000000
FF0000000000
FF0000000000
FF0000000000
FF0000000000
FF0000000000
FF0000000000
FF0000000000
FF0000000000
FF0000000000
FF0000000000
FF0000000000
FF0000000000
FF0000000000
FF0000000000
ENDCHAR
STARTCHAR 00B6
ENCODING 182
SWIDTH 552 0
DWIDTH 53 0
BBX 42 78 5 -12
BITMAP
00001FFFFFC0
0003FFFFFFC0
001FFFFFFFC0
007FFFFFFFC0
00FFFFFFFFC0
03FFFFFFFFC0
07FFFFFFFFC0
0FFFFFC03FC0
1FFFFFC03FC0
1FFFFFC03FC0
3FFFFFC03FC0
3FFFFFC03FC0
7FFFFFC03FC0
7FFFFFC03FC0
7FFFFFC03FC0
FFFFFFC03FC0
FFFFFFC03FC0
FFFFFFC03FC0
FFFFFFC03FC0
FFFFFFC03FC0
FFFFFFC03FC0
FFFFFFC03FC0
FFFFFFC03FC0
FFFFFFC03FC0
7FFFFFC03FC0
7FFFFFC03FC0
7FFFFFC03FC0
7FFFFFC03FC0
3FFFFFC03FC0
3FFFFFC03FC0
1FFFFFC03FC0
0FFFFFC03FC0
07FFFFC03FC0
03FFFFC03FC0
01FFFFC03FC0
007FFFC03FC0
001FFFC03FC0
0003FFC03FC0
00003FC03FC0
000000003FC0
000000003FC0
000000003FC0
000000003FC0
000000003FC0
000000003FC0
000000003FC0
000000003FC0
000000003FC0
000000003FC0
000000003FC0
000000003FC0
000000003FC0
000000003FC0
000000003FC0
000000003FC0
000000003FC0
000000003FC0
000000003FC0
000000003FC0
000000003FC0
000000003FC0
000000003FC0
000000007FC0
000000007F80
000000007F80
00000000FF80
00400000FF00
00E00001FF00
00F80003FF00
01FE000FFE00
03FFC03FFC00
07FFFFFFFC00
07FFFFFFF800
01FFFFFFF000
00FFFFFFC000
003FFFFF8000
0007FFFC0000
0000FFE00000
ENDCHAR
STARTCHAR 00B7
ENCODING 183
SWIDTH 552 0
DWIDTH 53 0
BBX 16 16 19 19
BITMAP
07E0
1FF8
3FFC
7FFE
7FFE
FFFF
FFFF
FFFF
FFFF
FFFF
FFFF
7FFE
7FFE
3FFC
1FF8
07E0
ENDCHAR
STARTCHAR 00B8
ENCODING 184
SWIDTH 552 0
DWIDTH 53 0
BBX 11 14 21 -14
BITMAP
1FE0
1FE0
3FC0
3FC0
3FC0
3F80
3F80
7F80
7F80
7F00
7F00
7F00
FE00
FE00
ENDCHAR
STARTCHAR 00B9
ENCODING 185
SWIDTH 552 0
DWIDTH 53 0
BBX 30 37 11 30
BITMAP
0003F800
001FF800
007FF800
01FFF800
07FFF800
1FFFF800
7FFFF800
FFFFF800
7FF7F800
7FC7F800
3F07F800
3C07F800
3007F800
0007F800
0007F800
0007F800
0007F800
0007F800
0007F800
0007F800
0007F800
0007F800
0007F800
0007F800
0007F800
0007F800
0007F800
0007F800
0007F800
0007F800
3FFFFFFC
3FFFFFFC
3FFFFFFC
3FFFFFFC
3FFFFFFC
3FFFFFFC
3FFFFFFC
ENDCHAR
STARTCHAR 00BA
ENCODING 186
SWIDTH 552 0
DWIDTH 53 0
BBX 33 45 10 17
BITMAP
000FFC0000
007FFF8000
01FFFFE000
03FFFFF000
07FFFFF800
0FFFFFFC00
1FFC0FFE00
3FF003FE00
3FE001FF00
7FC001FF00
7F8000FF00
7F8000FF80
FF80007F80
FF00007F80
FF00007F80
FF00007F80
FF00007F80
FF00007F80
FF00007F80
FF00007F80
FF0000FF80
FF8000FF00
7F8000FF00
7FC001FF00
7FC003FE00
3FE007FE00
3FF80FFC00
1FFFFFF800
0FFFFFF000
07FFFFE000
03FFFFC000
00FFFF0000
001FF80000
0000000000
0000000000
0000000000
0000000000
0000000000
0000000000
FFFFFFFF80
FFFFFFFF80
FFFFFFFF80
FFFFFFFF80
FFFFFFFF80
FFFFFFFF80
ENDCHAR
STARTCHAR 00BB
ENCODING 187
SWIDTH 552 0
DWIDTH 53 0
BBX 38 37 8 7
BITMAP
0400004000
1E0001E000
7F0007F000
FF000FF000
7F8007F800
3FC003FC00
3FE003FC00
1FE001FE00
0FF000FF00
0FF800FF00
07F8007F80
03FC007FC0
01FE003FC0
01FE001FE0
00FF001FE0
007F800FF0
003FC007F8
003FC007F8
001FE003FC
003FC007F8
003FC007F8
007F800FF0
00FF001FE0
01FF001FE0
01FE003FC0
03FC007FC0
07F8007F80
0FF800FF00
0FF000FF00
1FE001FE00
3FE003FC00
3FC003FC00
7F8007F800
FF000FF000
3F0007F000
1E0001E000
0400006000
ENDCHAR
STARTCHAR 00BC
ENCODING 188
SWIDTH 552 0
DWIDTH 53 0
BBX 50 67 1 0
BITMAP
001FC000000000
007FC000001FC0
01FFC000003FC0
07FFC000007F80
1FFFC000007F80
7FFFC00000FF00
FFFFC00001FE00
7FDFC00001FE00
7F1FC00003FC00
3C1FC00007F800
301FC00007F800
001FC0000FF000
001FC0001FE000
001FC0001FE000
001FC0003FC000
001FC0003F8000
001FC0007F8000
001FC000FF0000
001FC000FE0000
001FC001FE0000
001FC003FC0000
001FC003F80000
001FC007F80000
001FC00FF00000
001FC00FE00000
001FC01FE00000
001FC03FC00000
0000003FC00000
0000007F800000
000000FF000000
000000FF000000
000001FE000000
000003FC000000
000003FC000000
000007F8000000
000007F0000000
00000FF0000000
00001FE0000000
00001FC0000000
00003FC0000000
00007F803FF800
00007F007FF800
0000FF007FF800
0001FE00FFF800
0001FC00FFF800
0003FC01FFF800
0007F803FBF800
0007F003FBF800
000FF007F3F800
001FE007F3F800
001FC00FE3F800
003FC01FC3F800
007F801FC3F800
007F803F83F800
00FF007F83F800
01FE007F03F800
01FE00FE03F800
03FC00FFFFFF80
03F800FFFFFF80
07F800FFFFFF80
0FF000FFFFFF80
0FE000FFFFFF80
1FE0000003F800
3FC0000003F800
3F80000003F800
7F80000003F800
FF00000003F800
ENDCHAR
STARTCHAR 00BD
ENCODING 189
SWIDTH 552 0
DWIDTH 53 0
BBX 50 66 1 0
BITMAP
001FC000001FC0
007FC000003FC0
01FFC000007F80
07FFC000007F80
1FFFC00000FF00
7FFFC00001FE00
FFFFC00001FE00
7FDFC00003FC00
7F1FC00007F800
3C1FC00007F800
301FC0000FF000
001FC0001FE000
001FC0001FE000
001FC0003FC000
001FC0003F8000
001FC0007F8000
001FC000FF0000
001FC000FE0000
001FC001FE0000
001FC003FC0000
001FC003F80000
001FC007F80000
001FC00FF00000
001FC00FE00000
001FC01FE00000
001FC03FC00000
001FC03F800000
0000007F800000
000000FF000000
000000FF000000
000001FE000000
000003FC000000
000003FC000000
000007F8000000
000007F0000000
00000FF0000000
00001FE0000000
00001FC0000000
00003FC0000000
00007F803FC000
00007F00FFF800
0000FF03FFFC00
0001FE07FFFE00
0001FC03FFFF00
0003FC01F0FF00
0007F801C07F80
0007F000803F80
000FF000003F80
001FE000003F80
001FC000003F80
003FC000007F80
007F8000007F00
007F800000FF00
00FF000003FE00
01FE000007FC00
01FE00000FF800
03FC00001FF000
03F800007FE000
07F80000FFC000
0FF00001FF0000
0FE00003FE0000
1FE00007FFFFC0
3FC00007FFFFC0
3F800007FFFFC0
7F800007FFFFC0
FF000007FFFFC0
ENDCHAR
STARTCHAR 00BE
ENCODING 190
SWIDTH 552 0
DWIDTH 53 0
BBX 51 67 1 0
BITMAP
07FE0000000000
1FFF8000001FE0
1FFFE000003FC0
1FFFE000007F80
1FFFF000007F80
101FF00000FF00
000FF00001FE00
000FF00001FE00
000FF00003FC00
001FE00007F800
07FFC00007F800
07FF80000FF000
07FFE0000FE000
07FFF0001FE000
07FFF8003FC000
000FFC003F8000
0003FC007F8000
0003FC00FF0000
0003FC00FE0000
0007FC01FE0000
000FF803FC0000
1FFFF803F80000
1FFFF007F80000
1FFFE00FF00000
1FFF800FE00000
1FFC001FE00000
0000003FC00000
0000003FC00000
0000007F800000
000000FF000000
000000FF000000
000001FE000000
000003FC000000
000003FC000000
000007F8000000
000007F0000000
00000FF0000000
00001FE0000000
00001FC0000000
00003FC0000000
00007F803FF800
00007F007FF800
0000FF007FF800
0001FE00FFF800
0001FC00FFF800
0003FC01FFF800
0007F803FBF800
0007F003FBF800
000FF007F3F800
001FE007F3F800
001FC00FE3F800
003FC01FC3F800
007F801FC3F800
007F003F83F800
00FF007F83F800
01FE007F03F800
01FE00FE03F800
03FC00FFFFFF80
07F800FFFFFF80
07F800FFFFFF80
0FF000FFFFFF80
0FE000FFFFFF80
1FE0000003F800
3FC0000003F800
3F80000003F800
7F80000003F800
FF00000003F800
ENDCHAR
STARTCHAR 00BF
ENCODING 191
SWIDTH 552 0
DWIDTH 53 0
BBX 29 67 9 -19
BITMAP
00001E00
00007F80
0000FFC0
0001FFC0
0001FFE0
0001FFE0
0001FFE0
0001FFE0
0000FFC0
0000FFC0
00007F80
00001E00
00000000
00000000
00000000
00000000
00000000
00000000
00007F00
00007F00
00007F00
00007F80
00007F80
00007F80
00007F80
00007F80
00007F80
00007F80
00007F80
00007F80
00007F80
0007FF80
007FFF80
01FFFF80
07FFFF80
0FFFFF80
1FFFFF80
3FFE0000
3FF00000
7FE00000
7FC00000
7FC00000
FF800000
FF800000
FF800000
FF800000
FF800000
FF800000
FF800000
FF800000
FFC00000
7FC00000
7FE00000
3FF00000
3FF00000
1FF80000
1FFE0000
0FFF0000
07FFE000
03FFFC00
01FFFFF8
00FFFFF8
003FFFF8
000FFFF8
0003FFF8
00007FF8
000007F8
ENDCHAR
STARTCHAR 00C0
ENCODING 192
SWIDTH 552 0
DWIDTH 53 0
BBX 51 78 1 0
BITMAP
003FF800000000
001FFC00000000
000FFE00000000
0003FF00000000
0001FF80000000
0000FFC0000000
00007FE0000000
00001FF0000000
00000FF8000000
000007FC000000
00000000000000
00000000000000
00000000000000
00000000000000
00000000000000
00000000000000
00000000000000
00000FFF000000
00000FFF000000
00001FFF000000
00001FFF800000
00001FFF800000
00003FFF800000
00003FFFC00000
00003FBFC00000
00007FBFC00000
00007FBFE00000
00007F1FE00000
0000FF1FE00000
0000FF1FF00000
0000FE0FF00000
0001FE0FF00000
0001FE0FF80000
0001FC0FF80000
0003FC07F80000
0003FC07FC0000
0003FC07FC0000
0007F803FC0000
0007F803FE0000
000FF803FE0000
000FF001FE0000
000FF001FF0000
001FF001FF0000
001FE000FF0000
001FE000FF8000
003FE000FF8000
003FC0007F8000
003FC0007FC000
007FC0007FC000
007F80007FC000
007F80003FC000
00FF80003FE000
00FF00003FE000
00FF00001FE000
01FF00001FF000
01FE00001FF000
01FE00000FF000
03FE00000FF800
03FFFFFFFFF800
03FFFFFFFFF800
07FFFFFFFFFC00
07FFFFFFFFFC00
07FFFFFFFFFC00
0FFFFFFFFFFE00
0FFFFFFFFFFE00
0FF0000003FE00
1FF0000001FF00
1FF0000001FF00
1FE0000001FF00
3FE0000000FF80
3FE0000000FF80
3FC0000000FF80
7FC00000007FC0
7FC00000007FC0
7F800000007FC0
FF800000003FE0
FF800000003FE0
FF000000003FE0
ENDCHAR
STARTCHAR 00C1
ENCODING 193
SWIDTH 552 0
DWIDTH 53 0
BBX 51 78 1 0
BITMAP
00000003FFC000
00000007FF8000
0000000FFF0000
0000001FFC0000
0000003FF80000
0000007FE00000
000000FFC00000
000001FF800000
000003FE000000
000007FC000000
00000000000000
00000000000000
00000000000000
00000000000000
00000000000000
00000000000000
00000000000000
00000FFF000000
00000FFF000000
00001FFF000000
00001FFF800000
00001FFF800000
00003FFF800000
00003FFFC00000
00003FBFC00000
00007FBFC00000
00007FBFE00000
00007F1FE00000
0000FF1FE00000
0000FF1FF00000
0000FE0FF00000
0001FE0FF00000
0001FE0FF80000
0001FC0FF80000
0003FC07F80000
0003FC07FC0000
0003FC07FC0000
0007F803FC0000
0007F803FE0000
000FF803FE0000
000FF001FE0000
000FF001FF0000
001FF001FF0000
001FE000FF0000
001FE000FF8000
003FE000FF8000
003FC0007F8000
003FC0007FC000
007FC0007FC000
007F80007FC000
007F80003FC000
00FF80003FE000
00FF00003FE000
00FF00001FE000
01FF00001FF000
01FE00001FF000
01FE00000FF000
03FE00000FF800
03FFFFFFFFF800
03FFFFFFFFF800
07FFFFFFFFFC00
07FFFFFFFFFC00
07FFFFFFFFFC00
0FFFFFFFFFFE00
0FFFFFFFFFFE00
0FF0000003FE00
1FF0000001FF00
1FF0000001FF00
1FE0000001FF00
3FE0000000FF80
3FE0000000FF80
3FC0000000FF80
7FC00000007FC0
7FC00000007FC0
7F800000007FC0
FF800000003FE0
FF800000003FE0
FF000000003FE0
ENDCHAR
STARTCHAR 00C2
ENCODING 194
SWIDTH 552 0
DWIDTH 53 0
BBX 51 78 1 0
BITMAP
000007F8000000
00000FFE000000
00001FFF000000
00003FFF800000
0000FFFFC00000
0001FFBFE00000
0003FF1FF00000
0007FC0FFC0000
000FF803FE0000
001FE001FF0000
00000000000000
00000000000000
00000000000000
00000000000000
00000000000000
00000000000000
00000000000000
00000FFF000000
00000FFF000000
00001FFF000000
00001FFF800000
00001FFF800000
00003FFF800000
00003FFFC00000
00003FBFC00000
00007FBFC00000
00007FBFE00000
00007F1FE00000
0000FF1FE00000
0000FF1FF00000
0000FE0FF00000
0001FE0FF00000
0001FE0FF80000
0001FC0FF80000
0003FC07F80000
0003FC07FC0000
0003FC07FC0000
0007F803FC0000
0007F803FE0000
000FF803FE0000
000FF001FE0000
000FF001FF0000
001FF001FF0000
001FE000FF0000
001FE000FF8000
003FE000FF8000
003FC0007F8000
003FC0007FC000
007FC0007FC000
007F80007FC000
007F80003FC000
00FF80003FE000
00FF00003FE000
00FF00001FE000
01FF00001FF000
01FE00001FF000
01FE00000FF000
03FE00000FF800
03FFFFFFFFF800
03FFFFFFFFF800
07FFFFFFFFFC00
07FFFFFFFFFC00
07FFFFFFFFFC00
0FFFFFFFFFFE00
0FFFFFFFFFFE00
0FF0000003FE00
1FF0000001FF00
1FF0000001FF00
1FE0000001FF00
3FE0000000FF80
3FE0000000FF80
3FC0000000FF80
7FC00000007FC0
7FC00000007FC0
7F800000007FC0
FF800000003FE0
FF800000003FE0
FF000000003FE0
ENDCHAR
STARTCHAR 00C3
ENCODING 195
SWIDTH 552 0
DWIDTH 53 0
BBX 51 78 1 0
BITMAP
0001FC00000000
0007FF00060000
000FFFC00F0000
001FFFF01F8000
003FFFFC3FC000
007FFFFFFF8000
00FF0FFFFF0000
007E03FFFE0000
003C00FFFC0000
0018007FF80000
0000000FE00000
00000000000000
00000000000000
00000000000000
00000000000000
00000000000000
00000000000000
00000FFF000000
00000FFF000000
00001FFF000000
00001FFF800000
00001FFF800000
00003FFF800000
00003FFFC00000
00003FBFC00000
00007FBFC00000
00007FBFE00000
00007F1FE00000
0000FF1FE00000
0000FF1FF00000
0000FE0FF00000
0001FE0FF00000
0001FE0FF80000
0001FC0FF80000
0003FC07F80000
0003FC07FC0000
0003FC07FC0000
0007F803FC0000
0007F803FE0000
000FF803FE0000
000FF001FE0000
000FF001FF0000
001FF001FF0000
001FE000FF0000
001FE000FF8000
003FE000FF8000
003FC0007F8000
003FC0007FC000
007FC0007FC000
007F80007FC000
007F80003FC000
00FF80003FE000
00FF00003FE000
00FF00001FE000
01FF00001FF000
01FE00001FF000
01FE00000FF000
03FE00000FF800
03FFFFFFFFF800
03FFFFFFFFF800
07FFFFFFFFFC00
07FFFFFFFFFC00
07FFFFFFFFFC00
0FFFFFFFFFFE00
0FFFFFFFFFFE00
0FF0000003FE00
1FF0000001FF00
1FF0000001FF00
1FE0000001FF00
3FE0000000FF80
3FE0000000FF80
3FC0000000FF80
7FC00000007FC0
7FC00000007FC0
7F800000007FC0
FF800000003FE0
FF800000003FE0
FF000000003FE0
ENDCHAR
STARTCHAR 00C4
ENCODING 196
SWIDTH 552 0
DWIDTH 53 0
BBX 51 78 1 0
BITMAP
000780003C0000
001FE000FF0000
001FE000FF0000
003FF001FF8000
003FF001FF8000
003FF001FF8000
003FF001FF8000
001FE000FF0000
001FE000FF0000
000780003C0000
00000000000000
00000000000000
00000000000000
00000000000000
00000000000000
00000000000000
00000000000000
00000FFF000000
00000FFF000000
00001FFF000000
00001FFF800000
00001FFF800000
00003FFF800000
00003FFFC00000
00003FBFC00000
00007FBFC00000
00007FBFE00000
00007F1FE00000
0000FF1FE00000
0000FF1FF00000
0000FE0FF00000
0001FE0FF00000
0001FE0FF80000
0001FC0FF80000
0003FC07F80000
0003FC07FC0000
0003FC07FC0000
0007F803FC0000
0007F803FE0000
000FF803FE0000
000FF001FE0000
000FF001FF0000
001FF001FF0000
001FE000FF0000
001FE000FF8000
003FE000FF8000
003FC0007F8000
003FC0007FC000
007FC0007FC000
007F80007FC000
007F80003FC000
00FF80003FE000
00FF00003FE000
00FF00001FE000
01FF00001FF000
01FE00001FF000
01FE00000FF000
03FE00000FF800
03FFFFFFFFF800
03FFFFFFFFF800
07FFFFFFFFFC00
07FFFFFFFFFC00
07FFFFFFFFFC00
0FFFFFFFFFFE00
0FFFFFFFFFFE00
0FF0000003FE00
1FF0000001FF00
1FF0000001FF00
1FE0000001FF00
3FE0000000FF80
3FE0000000FF80
3FC0000000FF80
7FC00000007FC0
7FC00000007FC0
7F800000007FC0
FF800000003FE0
FF800000003FE0
FF000000003FE0
ENDCHAR
STARTCHAR 00C5
ENCODING 197
SWIDTH 552 0
DWIDTH 53 0
BBX 51 81 1 0
BITMAP
000003F0000000
00000FFC000000
00001FFE000000
00003FFF000000
00007FFF800000
00007E1F800000
0000FC0FC00000
0000F807C00000
0000F807C00000
0000F807C00000
0000F807C00000
0000FC0FC00000
00007E1F800000
00007FFF800000
00003FFF000000
00001FFE000000
00000FFC000000
000003F0000000
00000000000000
00000000000000
00000FFF000000
00000FFF000000
00001FFF000000
00001FFF800000
00001FFF800000
00003FFF800000
00003FFFC00000
00003FBFC00000
00007FBFC00000
00007FBFE00000
00007F1FE00000
0000FF1FE00000
0000FF1FF00000
0000FE0FF00000
0001FE0FF00000
0001FE0FF80000
0001FC0FF80000
0003FC07F80000
0003FC07FC0000
0003FC07FC0000
0007F803FC0000
0007F803FE0000
000FF803FE0000
000FF001FE0000
000FF001FF0000
001FF001FF0000
001FE000FF0000
001FE000FF8000
003FE000FF8000
003FC0007F8000
003FC0007FC000
007FC0007FC000
007F80007FC000
007F80003FC000
00FF80003FE000
00FF00003FE000
00FF00001FE000
01FF00001FF000
01FE00001FF000
01FE00000FF000
03FE00000FF800
03FFFFFFFFF800
03FFFFFFFFF800
07FFFFFFFFFC00
07FFFFFFFFFC00
07FFFFFFFFFC00
0FFFFFFFFFFE00
0FFFFFFFFFFE00
0FF0000003FE00
1FF0000001FF00
1FF0000001FF00
1FE0000001FF00
3FE0000000FF80
3FE0000000FF80
3FC0000000FF80
7FC00000007FC0
7FC00000007FC0
7F800000007FC0
FF800000003FE0
FF800000003FE0
FF000000003FE0
ENDCHAR
STARTCHAR 00C6
ENCODING 198
SWIDTH 552 0
DWIDTH 53 0
BBX 53 61 -2 0
BITMAP
000000FFFFFFF0
000000FFFFFFF0
000000FFFFFFF0
000001FFFFFFF0
000001FFFFFFF0
000003FFFFFFF0
000003FFFFFFF0
000003FFF80000
000007F7F80000
000007F7F80000
00000FF7F80000
00000FE7F80000
00000FE7F80000
00001FC7F80000
00001FC7F80000
00003FC7F80000
00003F87F80000
00007F87F80000
00007F07F80000
00007F07F80000
0000FF07F80000
0000FE07F80000
0001FE07F80000
0001FE07F80000
0001FC07F80000
0003FC07F80000
0003F807FFFFE0
0007F807FFFFE0
0007F807FFFFE0
0007F007FFFFE0
000FF007FFFFE0
000FF007FFFFE0
001FE007FFFFE0
001FE007F80000
001FC007F80000
003FC007F80000
003FC007F80000
007F8007F80000
007F8007F80000
007F0007F80000
00FF0007F80000
00FFFFFFF80000
01FFFFFFF80000
01FFFFFFF80000
01FFFFFFF80000
03FFFFFFF80000
03FFFFFFF80000
07FFFFFFF80000
07F80007F80000
07F80007F80000
0FF00007F80000
0FF00007F80000
1FF00007F80000
1FE00007F80000
1FE00007FFFFF8
3FC00007FFFFF8
3FC00007FFFFF8
7FC00007FFFFF8
7F800007FFFFF8
7F800007FFFFF8
FF000007FFFFF8
ENDCHAR
STARTCHAR 00C7
ENCODING 199
SWIDTH 552 0
DWIDTH 53 0
BBX 42 75 4 -13
BITMAP
000003FFC000
00003FFFFC00
0001FFFFFF80
0007FFFFFFC0
000FFFFFFFC0
001FFFFFFFC0
007FFFFFFFC0
00FFFE007FC0
01FFF00007C0
01FFC00001C0
03FF80000040
07FF00000000
07FE00000000
0FFC00000000
0FF800000000
1FF800000000
1FF000000000
3FF000000000
3FE000000000
3FE000000000
7FC000000000
7FC000000000
7FC000000000
7FC000000000
7FC000000000
FF8000000000
FF8000000000
FF8000000000
FF8000000000
FF8000000000
FF8000000000
FF8000000000
FF8000000000
FF8000000000
FF8000000000
FF8000000000
FF8000000000
FF8000000000
FF8000000000
FFC000000000
7FC000000000
7FC000000000
7FC000000000
7FE000000000
7FE000000000
3FE000000000
3FF000000000
3FF000000000
1FF800000000
1FFC00000000
0FFC00000000
0FFE00000000
07FF00000000
03FFC0000040
03FFF00003C0
01FFFE003FC0
00FFFFFFFFC0
007FFFFFFFC0
003FFFFFFFC0
000FFFFFFFC0
0003FFFFFFC0
0000FFFFFF00
00001FFFE000
00001FE00000
00003FE00000
00003FC00000
00003FC00000
00003FC00000
00003F800000
00007F800000
00007F800000
00007F000000
00007F000000
0000FF000000
0000FE000000
ENDCHAR
STARTCHAR 00C8
ENCODING 200
SWIDTH 552 0
DWIDTH 53 0
BBX 35 78 9 0
BITMAP
3FF8000000
1FFC000000
0FFE000000
03FF000000
01FF800000
00FFC00000
007FE00000
001FF00000
000FF80000
0007FC0000
0000000000
0000000000
0000000000
0000000000
0000000000
0000000000
0000000000
FFFFFFFFE0
FFFFFFFFE0
FFFFFFFFE0
FFFFFFFFE0
FFFFFFFFE0
FFFFFFFFE0
FFFFFFFFE0
FF00000000
FF00000000
FF00000000
FF00000000
FF00000000
FF00000000
FF00000000
FF00000000
FF00000000
FF00000000
FF00000000
FF00000000
FF00000000
FF00000000
FF00000000
FF00000000
FF00000000
FF00000000
FF00000000
FFFFFFFFC0
FFFFFFFFC0
FFFFFFFFC0
FFFFFFFFC0
FFFFFFFFC0
FFFFFFFFC0
FFFFFFFFC0
FF00000000
FF00000000
FF00000000
FF00000000
FF00000000
FF00000000
FF00000000
FF00000000
FF00000000
FF00000000
FF00000000
FF00000000
FF00000000
FF00000000
FF00000000
FF00000000
FF00000000
FF00000000
FF00000000
FF00000000
FF00000000
FFFFFFFFE0
FFFFFFFFE0
FFFFFFFFE0
FFFFFFFFE0
FFFFFFFFE0
FFFFFFFFE0
FFFFFFFFE0
ENDCHAR
STARTCHAR 00C9
ENCODING 201
SWIDTH 552 0
DWIDTH 53 0
BBX 35 78 9 0
BITMAP
000003FFC0
000007FF80
00000FFF00
00001FFC00
00003FF800
00007FE000
0000FFC000
0001FF8000
0003FE0000
0007FC0000
0000000000
0000000000
0000000000
0000000000
0000000000
0000000000
0000000000
FFFFFFFFE0
FFFFFFFFE0
FFFFFFFFE0
FFFFFFFFE0
FFFFFFFFE0
FFFFFFFFE0
FFFFFFFFE0
FF00000000
FF00000000
FF00000000
FF00000000
FF00000000
FF00000000
FF00000000
FF00000000
FF00000000
FF00000000
FF00000000
FF00000000
FF00000000
FF00000000
FF00000000
FF00000000
FF00000000
FF00000000
FF00000000
FFFFFFFFC0
FFFFFFFFC0
FFFFFFFFC0
FFFFFFFFC0
FFFFFFFFC0
FFFFFFFFC0
FFFFFFFFC0
FF00000000
FF00000000
FF00000000
FF00000000
FF00000000
FF00000000
FF00000000
FF00000000
FF00000000
FF00000000
FF00000000
FF00000000
FF00000000
FF00000000
FF00000000
FF00000000
FF00000000
FF00000000
FF00000000
FF00000000
FF00000000
FFFFFFFFE0
FFFFFFFFE0
FFFFFFFFE0
FFFFFFFFE0
FFFFFFFFE0
FFFFFFFFE0
FFFFFFFFE0
ENDCHAR
STARTCHAR 00CA
ENCODING 202
SWIDTH 552 0
DWIDTH 53 0
BBX 35 78 9 0
BITMAP
0007F80000
000FFE0000
001FFF0000
003FFF8000
00FFFFC000
01FFBFE000
03FF1FF000
07FC0FFC00
0FF803FE00
1FE001FF00
0000000000
0000000000
0000000000
0000000000
0000000000
0000000000
0000000000
FFFFFFFFE0
FFFFFFFFE0
FFFFFFFFE0
FFFFFFFFE0
FFFFFFFFE0
FFFFFFFFE0
FFFFFFFFE0
FF00000000
FF00000000
FF00000000
FF00000000
FF00000000
FF00000000
FF00000000
FF00000000
FF00000000
FF00000000
FF00000000
FF00000000
FF00000000
FF00000000
FF00000000
FF00000000
FF00000000
FF00000000
FF00000000
FFFFFFFFC0
FFFFFFFFC0
FFFFFFFFC0
FFFFFFFFC0
FFFFFFFFC0
FFFFFFFFC0
FFFFFFFFC0
FF00000000
FF00000000
FF00000000
FF00000000
FF00000000
FF00000000
FF00000000
FF00000000
FF00000000
FF00000000
FF00000000
FF00000000
FF00000000
FF00000000
FF00000000
FF00000000
FF00000000
FF00000000
FF00000000
FF00000000
FF00000000
FFFFFFFFE0
FFFFFFFFE0
FFFFFFFFE0
FFFFFFFFE0
FFFFFFFFE0
FFFFFFFFE0
FFFFFFFFE0
ENDCHAR
STARTCHAR 00CB
ENCODING 203
SWIDTH 552 0
DWIDTH 53 0
BBX 35 78 9 0
BITMAP
0780003C00
1FE000FF00
1FE000FF00
3FF001FF80
3FF001FF80
3FF001FF80
3FF001FF80
1FE000FF00
1FE000FF00
0780003C00
0000000000
0000000000
0000000000
0000000000
0000000000
0000000000
0000000000
FFFFFFFFE0
FFFFFFFFE0
FFFFFFFFE0
FFFFFFFFE0
FFFFFFFFE0
FFFFFFFFE0
FFFFFFFFE0
FF00000000
FF00000000
FF00000000
FF00000000
FF00000000
FF00000000
FF00000000
FF00000000
FF00000000
FF00000000
FF00000000
FF00000000
FF00000000
FF00000000
FF00000000
FF00000000
FF00000000
FF00000000
FF00000000
FFFFFFFFC0
FFFFFFFFC0
FFFFFFFFC0
FFFFFFFFC0
FFFFFFFFC0
FFFFFFFFC0
FFFFFFFFC0
FF00000000
FF00000000
FF00000000
FF00000000
FF00000000
FF00000000
FF00000000
FF00000000
FF00000000
FF00000000
FF00000000
FF00000000
FF00000000
FF00000000
FF00000000
FF00000000
FF00000000
FF00000000
FF00000000
FF00000000
FF00000000
FFFFFFFFE0
FFFFFFFFE0
FFFFFFFFE0
FFFFFFFFE0
FFFFFFFFE0
FFFFFFFFE0
FFFFFFFFE0
ENDCHAR
STARTCHAR 00CC
ENCODING 204
SWIDTH 552 0
DWIDTH 53 0
BBX 36 78 8 0
BITMAP
1FFC000000
0FFE000000
07FF000000
01FF800000
00FFC00000
007FE00000
003FF00000
000FF80000
0007FC0000
0003FE0000
0000000000
0000000000
0000000000
0000000000
0000000000
0000000000
0000000000
FFFFFFFFF0
FFFFFFFFF0
FFFFFFFFF0
FFFFFFFFF0
FFFFFFFFF0
FFFFFFFFF0
FFFFFFFFF0
0003FC0000
0003FC0000
0003FC0000
0003FC0000
0003FC0000
0003FC0000
0003FC0000
0003FC0000
0003FC0000
0003FC0000
0003FC0000
0003FC0000
0003FC0000
0003FC0000
0003FC0000
0003FC0000
0003FC0000
0003FC0000
0003FC0000
0003FC0000
0003FC0000
0003FC0000
0003FC0000
0003FC0000
0003FC0000
0003FC0000
0003FC0000
0003FC0000
0003FC0000
0003FC0000
0003FC0000
0003FC0000
0003FC0000
0003FC0000
0003FC0000
0003FC0000
0003FC0000
0003FC0000
0003FC0000
0003FC0000
0003FC0000
0003FC0000
0003FC0000
0003FC0000
0003FC0000
0003FC0000
0003FC0000
FFFFFFFFF0
FFFFFFFFF0
FFFFFFFFF0
FFFFFFFFF0
FFFFFFFFF0
FFFFFFFFF0
FFFFFFFFF0
ENDCHAR
STARTCHAR 00CD
ENCODING 205
SWIDTH 552 0
DWIDTH 53 0
BBX 36 78 8 0
BITMAP
000001FFE0
000003FFC0
000007FF80
00000FFE00
00001FFC00
00003FF000
00007FE000
0000FFC000
0001FF0000
0003FE0000
0000000000
0000000000
0000000000
0000000000
0000000000
0000000000
0000000000
FFFFFFFFF0
FFFFFFFFF0
FFFFFFFFF0
FFFFFFFFF0
FFFFFFFFF0
FFFFFFFFF0
FFFFFFFFF0
0003FC0000
0003FC0000
0003FC0000
0003FC0000
0003FC0000
0003FC0000
0003FC0000
0003FC0000
0003FC0000
0003FC0000
0003FC0000
0003FC0000
0003FC0000
0003FC0000
0003FC0000
0003FC0000
0003FC0000
0003FC0000
0003FC0000
0003FC0000
0003FC0000
0003FC0000
0003FC0000
0003FC0000
0003FC0000
0003FC0000
0003FC0000
0003FC0000
0003FC0000
0003FC0000
0003FC0000
0003FC0000
0003FC0000
0003FC0000
0003FC0000
0003FC0000
0003FC0000
0003FC0000
0003FC0000
0003FC0000
0003FC0000
0003FC0000
0003FC0000
0003FC0000
0003FC0000
0003FC0000
0003FC0000
FFFFFFFFF0
FFFFFFFFF0
FFFFFFFFF0
FFFFFFFFF0
FFFFFFFFF0
FFFFFFFFF0
FFFFFFFFF0
ENDCHAR
STARTCHAR 00CE
ENCODING 206
SWIDTH 552 0
DWIDTH 53 0
BBX 36 78 8 0
BITMAP
0003FC0000
0007FF0000
000FFF8000
001FFFC000
007FFFE000
00FFDFF000
01FF8FF800
03FE07FE00
07FC01FF00
0FF000FF80
0000000000
0000000000
0000000000
0000000000
0000000000
0000000000
0000000000
FFFFFFFFF0
FFFFFFFFF0
FFFFFFFFF0
FFFFFFFFF0
FFFFFFFFF0
FFFFFFFFF0
FFFFFFFFF0
0003FC0000
0003FC0000
0003FC0000
0003FC0000
0003FC0000
0003FC0000
0003FC0000
0003FC0000
0003FC0000
0003FC0000
0003FC0000
0003FC0000
0003FC0000
0003FC0000
0003FC0000
0003FC0000
0003FC0000
0003FC0000
0003FC0000
0003FC0000
0003FC0000
0003FC0000
0003FC0000
0003FC0000
0003FC0000
0003FC0000
0003FC0000
0003FC0000
0003FC0000
0003FC0000
0003FC0000
0003FC0000
0003FC0000
0003FC0000
0003FC0000
0003FC0000
0003FC0000
0003FC0000
0003FC0000
0003FC0000
0003FC0000
0003FC0000
0003FC0000
0003FC0000
0003FC0000
0003FC0000
0003FC0000
FFFFFFFFF0
FFFFFFFFF0
FFFFFFFFF0
FFFFFFFFF0
FFFFFFFFF0
FFFFFFFFF0
FFFFFFFFF0
ENDCHAR
STARTCHAR 00CF
ENCODING 207
SWIDTH 552 0
DWIDTH 53 0
BBX 36 78 8 0
BITMAP
03C0001E00
0FF0007F80
0FF0007F80
1FF800FFC0
1FF800FFC0
1FF800FFC0
1FF800FFC0
0FF0007F80
0FF0007F80
03C0001E00
0000000000
0000000000
0000000000
0000000000
0000000000
0000000000
0000000000
FFFFFFFFF0
FFFFFFFFF0
FFFFFFFFF0
FFFFFFFFF0
FFFFFFFFF0
FFFFFFFFF0
FFFFFFFFF0
0003FC0000
0003FC0000
0003FC0000
0003FC0000
0003FC0000
0003FC0000
0003FC0000
0003FC0000
0003FC0000
0003FC0000
0003FC0000
0003FC0000
0003FC0000
0003FC0000
0003FC0000
0003FC0000
0003FC0000
0003FC0000
0003FC0000
0003FC0000
0003FC0000
0003FC0000
0003FC0000
0003FC0000
0003FC0000
0003FC0000
0003FC0000
0003FC0000
0003FC0000
0003FC0000
0003FC0000
0003FC0000
0003FC0000
0003FC0000
0003FC0000
0003FC0000
0003FC0000
0003FC0000
0003FC0000
0003FC0000
0003FC0000
0003FC0000
0003FC0000
0003FC0000
0003FC0000
0003FC0000
0003FC0000
FFFFFFFFF0
FFFFFFFFF0
FFFFFFFFF0
FFFFFFFFF0
FFFFFFFFF0
FFFFFFFFF0
FFFFFFFFF0
ENDCHAR
STARTCHAR 00D0
ENCODING 208
SWIDTH 552 0
DWIDTH 53 0
BBX 50 61 0 0
BITMAP
01FFFFF8000000
01FFFFFF800000
01FFFFFFF00000
01FFFFFFFC0000
01FFFFFFFF0000
01FFFFFFFF8000
01FFFFFFFFC000
01FE001FFFE000
01FE0001FFF000
01FE00007FF800
01FE00003FFC00
01FE00000FFC00
01FE00000FFE00
01FE000007FE00
01FE000003FF00
01FE000003FF00
01FE000001FF00
01FE000001FF80
01FE000000FF80
01FE000000FF80
01FE000000FF80
01FE000000FF80
01FE000000FFC0
01FE0000007FC0
01FE0000007FC0
01FE0000007FC0
FFFFFFC0007FC0
FFFFFFC0007FC0
FFFFFFC0007FC0
FFFFFFC0007FC0
FFFFFFC0007FC0
FFFFFFC0007FC0
FFFFFFC0007FC0
01FE0000007FC0
01FE0000007FC0
01FE0000007FC0
01FE0000007FC0
01FE000000FF80
01FE000000FF80
01FE000000FF80
01FE000000FF80
01FE000001FF80
01FE000001FF00
01FE000001FF00
01FE000003FF00
01FE000003FE00
01FE000007FE00
01FE00000FFC00
01FE00000FFC00
01FE00001FF800
01FE00007FF800
01FE0000FFF000
01FE0003FFE000
01FE003FFFC000
01FFFFFFFF8000
01FFFFFFFF0000
01FFFFFFFC0000
01FFFFFFF00000
01FFFFFFC00000
01FFFFFE000000
01FFFFC0000000
ENDCHAR
STARTCHAR 00D1
ENCODING 209
SWIDTH 552 0
DWIDTH 53 0
BBX 41 78 6 0
BITMAP
003F80000000
00FFE000C000
01FFF801E000
03FFFE03F000
07FFFF87F800
0FFFFFFFF000
1FE1FFFFE000
0FC07FFFC000
07801FFF8000
03000FFF0000
000001FC0000
000000000000
000000000000
000000000000
000000000000
000000000000
000000000000
FFE000007F80
FFE000007F80
FFF000007F80
FFF000007F80
FFF800007F80
FFF800007F80
FFFC00007F80
FFFC00007F80
FFFE00007F80
FFFE00007F80
FFFF00007F80
FF7F00007F80
FF7F00007F80
FF7F80007F80
FF3F80007F80
FF3FC0007F80
FF1FC0007F80
FF1FE0007F80
FF1FE0007F80
FF0FF0007F80
FF0FF0007F80
FF07F8007F80
FF07F8007F80
FF07F8007F80
FF03FC007F80
FF03FC007F80
FF01FE007F80
FF01FE007F80
FF00FF007F80
FF00FF007F80
FF007F807F80
FF007F807F80
FF007FC07F80
FF003FC07F80
FF003FC07F80
FF001FE07F80
FF001FE07F80
FF000FF07F80
FF000FF07F80
FF0007F87F80
FF0007F87F80
FF0007F87F80
FF0003FC7F80
FF0003FC7F80
FF0001FE7F80
FF0001FE7F80
FF0000FF7F80
FF0000FF7F80
FF0000FF7F80
FF00007FFF80
FF00007FFF80
FF00003FFF80
FF00003FFF80
FF00001FFF80
FF00001FFF80
FF00000FFF80
FF00000FFF80
FF00000FFF80
FF000007FF80
FF000007FF80
FF000003FF80
ENDCHAR
STARTCHAR 00D2
ENCODING 210
SWIDTH 552 0
DWIDTH 53 0
BBX 47 79 3 -1
BITMAP
00FFE0000000
007FF0000000
003FF8000000
000FFC000000
0007FE000000
0003FF000000
0001FF800000
00007FC00000
00003FE00000
00001FF00000
000000000000
000000000000
000000000000
000000000000
000000000000
000000000000
00001FF80000
0000FFFF8000
0007FFFFE000
000FFFFFF000
003FFFFFFC00
007FFFFFFE00
00FFFFFFFF00
01FFF01FFF80
03FF8003FF80
03FF0000FFC0
07FE00007FE0
0FFC00003FE0
0FF800001FF0
1FF000001FF0
1FF000000FF0
1FE000000FF8
3FE0000007F8
3FC0000007F8
3FC0000007FC
7F80000003FC
7F80000003FC
7F80000003FC
7F80000003FC
7F80000003FE
FF00000001FE
FF00000001FE
FF00000001FE
FF00000001FE
FF00000001FE
FF00000001FE
FF00000001FE
FF00000001FE
FF00000001FE
FF00000001FE
FF00000001FE
FF00000001FE
FF00000001FE
FF00000001FE
FF00000003FE
FF80000003FC
7F80000003FC
7F80000003FC
7F80000003FC
7F80000007FC
7FC0000007F8
3FC0000007F8
3FC000000FF8
3FE000000FF0
3FE000001FF0
1FF000001FE0
1FF000003FE0
0FF800007FC0
0FFC0000FFC0
07FE0001FF80
07FF8003FF80
03FFE01FFF00
01FFFFFFFE00
00FFFFFFFC00
007FFFFFF800
003FFFFFE000
000FFFFFC000
0003FFFE0000
00003FF00000
ENDCHAR
STARTCHAR 00D3
ENCODING 211
SWIDTH 552 0
DWIDTH 53 0
BBX 47 79 3 -1
BITMAP
0000000FFF00
0000001FFE00
0000003FFC00
0000007FF000
000000FFE000
000001FF8000
000003FF0000
000007FE0000
00000FF80000
00001FF00000
000000000000
000000000000
000000000000
000000000000
000000000000
000000000000
00001FF80000
0000FFFF8000
0007FFFFE000
000FFFFFF000
003FFFFFFC00
007FFFFFFE00
00FFFFFFFF00
01FFF01FFF80
03FF8003FF80
03FF0000FFC0
07FE00007FE0
0FFC00003FE0
0FF800001FF0
1FF000001FF0
1FF000000FF0
1FE000000FF8
3FE0000007F8
3FC0000007F8
3FC0000007FC
7F80000003FC
7F80000003FC
7F80000003FC
7F80000003FC
7F80000003FE
FF00000001FE
FF00000001FE
FF00000001FE
FF00000001FE
FF00000001FE
FF00000001FE
FF00000001FE
FF00000001FE
FF00000001FE
FF00000001FE
FF00000001FE
FF00000001FE
FF00000001FE
FF00000001FE
FF00000003FE
FF80000003FC
7F80000003FC
7F80000003FC
7F80000003FC
7F80000007FC
7FC0000007F8
3FC0000007F8
3FC000000FF8
3FE000000FF0
3FE000001FF0
1FF000001FE0
1FF000003FE0
0FF800007FC0
0FFC0000FFC0
07FE0001FF80
07FF8003FF80
03FFE01FFF00
01FFFFFFFE00
00FFFFFFFC00
007FFFFFF800
003FFFFFE000
000FFFFFC000
0003FFFE0000
00003FF00000
ENDCHAR
STARTCHAR 00D4
ENCODING 212
SWIDTH 552 0
DWIDTH 53 0
BBX 47 79 3 -1
BITMAP
00001FE00000
00003FF80000
00007FFC0000
0000FFFE0000
0003FFFF0000
0007FEFF8000
000FFC7FC000
001FF03FF000
003FE00FF800
007F8007FC00
000000000000
000000000000
000000000000
000000000000
000000000000
000000000000
00001FF80000
0000FFFF8000
0007FFFFE000
000FFFFFF000
003FFFFFFC00
007FFFFFFE00
00FFFFFFFF00
01FFF01FFF80
03FF8003FF80
03FF0000FFC0
07FE00007FE0
0FFC00003FE0
0FF800001FF0
1FF000001FF0
1FF000000FF0
1FE000000FF8
3FE0000007F8
3FC0000007F8
3FC0000007FC
7F80000003FC
7F80000003FC
7F80000003FC
7F80000003FC
7F80000003FE
FF00000001FE
FF00000001FE
FF00000001FE
FF00000001FE
FF00000001FE
FF00000001FE
FF00000001FE
FF00000001FE
FF00000001FE
FF00000001FE
FF00000001FE
FF00000001FE
FF00000001FE
FF00000001FE
FF00000003FE
FF80000003FC
7F80000003FC
7F80000003FC
7F80000003FC
7F80000007FC
7FC0000007F8
3FC0000007F8
3FC000000FF8
3FE000000FF0
3FE000001FF0
1FF000001FE0
1FF000003FE0
0FF800007FC0
0FFC0000FFC0
07FE0001FF80
07FF8003FF80
03FFE01FFF00
01FFFFFFFE00
00FFFFFFFC00
007FFFFFF800
003FFFFFE000
000FFFFFC000
0003FFFE0000
00003FF00000
ENDCHAR
STARTCHAR 00D5
ENCODING 213
SWIDTH 552 0
DWIDTH 53 0
BBX 47 79 3 -1
BITMAP
0007F0000000
001FFC001800
003FFF003C00
007FFFC07E00
00FFFFF0FF00
01FFFFFFFE00
03FC3FFFFC00
01F80FFFF800
00F003FFF000
006001FFE000
0000003F8000
000000000000
000000000000
000000000000
000000000000
000000000000
00001FF80000
0000FFFF8000
0007FFFFE000
000FFFFFF000
003FFFFFFC00
007FFFFFFE00
00FFFFFFFF00
01FFF01FFF80
03FF8003FF80
03FF0000FFC0
07FE00007FE0
0FFC00003FE0
0FF800001FF0
1FF000001FF0
1FF000000FF0
1FE000000FF8
3FE0000007F8
3FC0000007F8
3FC0000007FC
7F80000003FC
7F80000003FC
7F80000003FC
7F80000003FC
7F80000003FE
FF00000001FE
FF00000001FE
FF00000001FE
FF00000001FE
FF00000001FE
FF00000001FE
FF00000001FE
FF00000001FE
FF00000001FE
FF00000001FE
FF00000001FE
FF00000001FE
FF00000001FE
FF00000001FE
FF00000003FE
FF80000003FC
7F80000003FC
7F80000003FC
7F80000003FC
7F80000007FC
7FC0000007F8
3FC0000007F8
3FC000000FF8
3FE000000FF0
3FE000001FF0
1FF000001FE0
1FF000003FE0
0FF800007FC0
0FFC0000FFC0
07FE0001FF80
07FF8003FF80
03FFE01FFF00
01FFFFFFFE00
00FFFFFFFC00
007FFFFFF800
003FFFFFE000
000FFFFFC000
0003FFFE0000
00003FF00000
ENDCHAR
STARTCHAR 00D6
ENCODING 214
SWIDTH 552 0
DWIDTH 53 0
BBX 47 79 3 -1
BITMAP
001E0000F000
007F8003FC00
007F8003FC00
00FFC007FE00
00FFC007FE00
00FFC007FE00
00FFC007FE00
007F8003FC00
007F8003FC00
001E0000F000
000000000000
000000000000
000000000000
000000000000
000000000000
000000000000
00001FF80000
0000FFFF8000
0007FFFFE000
000FFFFFF000
003FFFFFFC00
007FFFFFFE00
00FFFFFFFF00
01FFF01FFF80
03FF8003FF80
03FF0000FFC0
07FE00007FE0
0FFC00003FE0
0FF800001FF0
1FF000001FF0
1FF000000FF0
1FE000000FF8
3FE0000007F8
3FC0000007F8
3FC0000007FC
7F80000003FC
7F80000003FC
7F80000003FC
7F80000003FC
7F80000003FE
FF00000001FE
FF00000001FE
FF00000001FE
FF00000001FE
FF00000001FE
FF00000001FE
FF00000001FE
FF00000001FE
FF00000001FE
FF00000001FE
FF00000001FE
FF00000001FE
FF00000001FE
FF00000001FE
FF00000003FE
FF80000003FC
7F80000003FC
7F80000003FC
7F80000003FC
7F80000007FC
7FC0000007F8
3FC0000007F8
3FC000000FF8
3FE000000FF0
3FE000001FF0
1FF000001FE0
1FF000003FE0
0FF800007FC0
0FFC0000FFC0
07FE0001FF80
07FF8003FF80
03FFE01FFF00
01FFFFFFFE00
00FFFFFFFC00
007FFFFFF800
003FFFFFE000
000FFFFFC000
0003FFFE0000
00003FF00000
ENDCHAR
STARTCHAR 00D7
ENCODING 215
SWIDTH 552 0
DWIDTH 53 0
BBX 38 38 8 6
BITMAP
0800000080
1C000001E0
3E000003F0
7F000003F8
FF800007FC
FFC0000FF8
7FE0001FF0
3FF0003FE0
1FF8007FC0
0FFC00FF80
07FE01FF00
03FF03FE00
01FF87FC00
00FFCFF800
007FFFF000
003FFFE000
001FFFC000
000FFF8000
0007FF0000
0003FF0000
0007FF8000
000FFFC000
001FFFE000
003FFFF000
007FDFF800
00FF8FFC00
01FF07FE00
03FE03FF00
07FC01FF80
0FF800FFC0
1FF0007FE0
3FE0003FF0
7FC0001FF8
FF80000FFC
FF000007F8
7E000003F0
3C000001E0
18000000C0
ENDCHAR
STARTCHAR 00D8
ENCODING 216
SWIDTH 552 0
DWIDTH 53 0
BBX 48 81 3 -10
BITMAP
000000007F00
000000007F00
00000000FE00
00000000FE00
00000000FE00
00000001FC00
00000001FC00
00000001FC00
00000001F800
00000FFFF800
0000FFFFF800
0003FFFFF000
000FFFFFF800
001FFFFFFE00
007FFFFFFF00
00FFFFFFFF80
01FFF00FFFC0
01FFC00FFFC0
03FF001FFFE0
07FE001FFFF0
07FC001FFFF0
0FFC003F9FF8
0FF8003F9FF8
1FF0003F8FF8
1FF0003F0FFC
3FE0007F07FC
3FE0007F07FC
3FE0007E07FE
7FC000FE03FE
7FC000FE03FE
7FC000FE03FE
7FC001FC03FE
7FC001FC03FF
FF8001FC01FF
FF8003F801FF
FF8003F801FF
FF8003F801FF
FF8003F001FF
FF8007F001FF
FF8007F001FF
FF8007E001FF
FF800FE001FF
FF800FE001FF
FF800FE001FF
FF801FC001FF
FF801FC001FF
FF801FC001FF
FF803F8001FF
FF803F8003FE
7FC03F8003FE
7FC07F0003FE
7FC07F0003FE
7FC07F0003FE
7FC07E0007FC
3FE0FE0007FC
3FE0FE000FFC
3FE0FC000FF8
3FF1FC000FF8
1FF1FC001FF0
1FF9FC003FF0
0FFFF8003FE0
0FFFF8007FE0
07FFF801FFC0
07FFF003FF80
03FFF00FFF80
01FFFFFFFF00
00FFFFFFFE00
007FFFFFF800
003FFFFFF000
000FFFFFC000
001FFFFF0000
001FFFF00000
001F80000000
003F80000000
003F80000000
003F80000000
007F00000000
007F00000000
007F00000000
00FE00000000
00FE00000000
ENDCHAR
STARTCHAR 00D9
ENCODING 217
SWIDTH 552 0
DWIDTH 53 0
BBX 42 79 5 -1
BITMAP
03FF80000000
01FFC0000000
00FFE0000000
003FF0000000
001FF8000000
000FFC000000
0007FE000000
0001FF000000
0000FF800000
00007FC00000
000000000000
000000000000
000000000000
000000000000
000000000000
000000000000
000000000000
FF0000003FC0
FF0000003FC0
FF0000003FC0
FF0000003FC0
FF0000003FC0
FF0000003FC0
FF0000003FC0
FF0000003FC0
FF0000003FC0
FF0000003FC0
FF0000003FC0
FF0000003FC0
FF0000003FC0
FF0000003FC0
FF0000003FC0
FF0000003FC0
FF0000003FC0
FF0000003FC0
FF0000003FC0
FF0000003FC0
FF0000003FC0
FF0000003FC0
FF0000003FC0
FF0000003FC0
FF0000003FC0
FF0000003FC0
FF0000003FC0
FF0000003FC0
FF0000003FC0
FF0000003FC0
FF0000003FC0
FF0000003FC0
FF0000003FC0
FF0000003FC0
FF0000003FC0
FF0000003FC0
FF0000003FC0
FF0000003FC0
FF0000003FC0
FF0000003FC0
FF0000003FC0
FF0000003FC0
FF0000003FC0
FF0000003FC0
FF0000003FC0
FF0000007F80
FF8000007F80
7F8000007F80
7F800000FF80
7FC00000FF00
7FC00001FF00
3FE00001FF00
3FF00007FE00
1FFC000FFC00
1FFF007FFC00
0FFFFFFFF800
07FFFFFFF000
03FFFFFFE000
01FFFFFFC000
007FFFFF0000
001FFFFC0000
0001FFC00000
ENDCHAR
STARTCHAR 00DA
ENCODING 218
SWIDTH 552 0
DWIDTH 53 0
BBX 42 79 5 -1
BITMAP
0000003FFC00
0000007FF800
000000FFF000
000001FFC000
000003FF8000
000007FE0000
00000FFC0000
00001FF80000
00003FE00000
00007FC00000
000000000000
000000000000
000000000000
000000000000
000000000000
000000000000
000000000000
FF0000003FC0
FF0000003FC0
FF0000003FC0
FF0000003FC0
FF0000003FC0
FF0000003FC0
FF0000003FC0
FF0000003FC0
FF0000003FC0
FF0000003FC0
FF0000003FC0
FF0000003FC0
FF0000003FC0
FF0000003FC0
FF0000003FC0
FF0000003FC0
FF0000003FC0
FF0000003FC0
FF0000003FC0
FF0000003FC0
FF0000003FC0
FF0000003FC0
FF0000003FC0
FF0000003FC0
FF0000003FC0
FF0000003FC0
FF0000003FC0
FF0000003FC0
FF0000003FC0
FF0000003FC0
FF0000003FC0
FF0000003FC0
FF0000003FC0
FF0000003FC0
FF0000003FC0
FF0000003FC0
FF0000003FC0
FF0000003FC0
FF0000003FC0
FF0000003FC0
FF0000003FC0
FF0000003FC0
FF0000003FC0
FF0000003FC0
FF0000003FC0
FF0000007F80
FF8000007F80
7F8000007F80
7F800000FF80
7FC00000FF00
7FC00001FF00
3FE00001FF00
3FF00007FE00
1FFC000FFC00
1FFF007FFC00
0FFFFFFFF800
07FFFFFFF000
03FFFFFFE000
01FFFFFFC000
007FFFFF0000
001FFFFC0000
0001FFC00000
ENDCHAR
STARTCHAR 00DB
ENCODING 219
SWIDTH 552 0
DWIDTH 53 0
BBX 42 79 5 -1
BITMAP
00007F800000
0000FFE00000
0001FFF00000
0003FFF80000
000FFFFC0000
001FFBFE0000
003FF1FF0000
007FC0FFC000
00FF803FE000
01FE001FF000
000000000000
000000000000
000000000000
000000000000
000000000000
000000000000
000000000000
FF0000003FC0
FF0000003FC0
FF0000003FC0
FF0000003FC0
FF0000003FC0
FF0000003FC0
FF0000003FC0
FF0000003FC0
FF0000003FC0
FF0000003FC0
FF0000003FC0
FF0000003FC0
FF0000003FC0
FF0000003FC0
FF0000003FC0
FF0000003FC0
FF0000003FC0
FF0000003FC0
FF0000003FC0
FF0000003FC0
FF0000003FC0
FF0000003FC0
FF0000003FC0
FF0000003FC0
FF0000003FC0
FF0000003FC0
FF0000003FC0
FF0000003FC0
FF0000003FC0
FF0000003FC0
FF0000003FC0
FF0000003FC0
FF0000003FC0
FF0000003FC0
FF0000003FC0
FF0000003FC0
FF0000003FC0
FF0000003FC0
FF0000003FC0
FF0000003FC0
FF0000003FC0
FF0000003FC0
FF0000003FC0
FF0000003FC0
FF0000003FC0
FF0000007F80
FF8000007F80
7F8000007F80
7F800000FF80
7FC00000FF00
7FC00001FF00
3FE00001FF00
3FF00007FE00
1FFC000FFC00
1FFF007FFC00
0FFFFFFFF800
07FFFFFFF000
03FFFFFFE000
01FFFFFFC000
007FFFFF0000
001FFFFC0000
0001FFC00000
ENDCHAR
STARTCHAR 00DC
ENCODING 220
SWIDTH 552 0
DWIDTH 53 0
BBX 42 79 5 -1
BITMAP
00780003C000
01FE000FF000
01FE000FF000
03FF001FF800
03FF001FF800
03FF001FF800
03FF001FF800
01FE000FF000
01FE000FF000
00780003C000
000000000000
000000000000
000000000000
000000000000
000000000000
000000000000
000000000000
FF0000003FC0
FF0000003FC0
FF0000003FC0
FF0000003FC0
FF0000003FC0
FF0000003FC0
FF0000003FC0
FF0000003FC0
FF0000003FC0
FF0000003FC0
FF0000003FC0
FF0000003FC0
FF0000003FC0
FF0000003FC0
FF0000003FC0
FF0000003FC0
FF0000003FC0
FF0000003FC0
FF0000003FC0
FF0000003FC0
FF0000003FC0
FF0000003FC0
FF0000003FC0
FF0000003FC0
FF0000003FC0
FF0000003FC0
FF0000003FC0
FF0000003FC0
FF0000003FC0
FF0000003FC0
FF0000003FC0
FF0000003FC0
FF0000003FC0
FF0000003FC0
FF0000003FC0
FF0000003FC0
FF0000003FC0
FF0000003FC0
FF0000003FC0
FF0000003FC0
FF0000003FC0
FF0000003FC0
FF0000003FC0
FF0000003FC0
FF0000003FC0
FF0000007F80
FF8000007F80
7F8000007F80
7F800000FF80
7FC00000FF00
7FC00001FF00
3FE00001FF00
3FF00007FE00
1FFC000FFC00
1FFF007FFC00
0FFFFFFFF800
07FFFFFFF000
03FFFFFFE000
01FFFFFFC000
007FFFFF0000
001FFFFC0000
0001FFC00000
ENDCHAR
STARTCHAR 00DD
ENCODING 221
SWIDTH 552 0
DWIDTH 53 0
BBX 52 78 0 0
BITMAP
00000001FFE000
00000003FFC000
00000007FF8000
0000000FFE0000
0000001FFC0000
0000003FF00000
0000007FE00000
000000FFC00000
000001FF000000
000003FE000000
00000000000000
00000000000000
00000000000000
00000000000000
00000000000000
00000000000000
00000000000000
FFC00000003FF0
7FE00000007FE0
7FE00000007FE0
3FF0000000FFC0
1FF0000000FFC0
1FF8000001FF80
0FF8000001FF00
0FFC000003FF00
07FE000003FE00
07FE000007FE00
03FF000007FC00
03FF00000FFC00
01FF80000FF800
00FF80001FF000
00FFC0001FF000
007FC0003FE000
007FE0003FE000
003FE0007FC000
003FF0007FC000
001FF000FF8000
000FF800FF8000
000FFC01FF0000
0007FC01FE0000
0007FE03FE0000
0003FE03FC0000
0003FF07FC0000
0001FF07F80000
0000FF8FF80000
0000FF8FF00000
00007F9FE00000
00007FDFE00000
00003FFFC00000
00003FFFC00000
00001FFF800000
00001FFF800000
00000FFF000000
000007FF000000
000007FE000000
000003FC000000
000003FC000000
000003FC000000
000003FC000000
000003FC000000
000003FC000000
000003FC000000
000003FC000000
000003FC000000
000003FC000000
000003FC000000
000003FC000000
000003FC000000
000003FC000000
000003FC000000
000003FC000000
000003FC000000
000003FC000000
000003FC000000
000003FC000000
000003FC000000
000003FC000000
000003FC000000
ENDCHAR
STARTCHAR 00DE
ENCODING 222
SWIDTH 552 0
DWIDTH 53 0
BBX 41 61 7 0
BITMAP
FF0000000000
FF0000000000
FF0000000000
FF0000000000
FF0000000000
FF0000000000
FF0000000000
FF0000000000
FF0000000000
FFFFFE000000
FFFFFFF00000
FFFFFFFC0000
FFFFFFFF0000
FFFFFFFFC000
FFFFFFFFE000
FFFFFFFFF000
FF0003FFF800
FF00007FFC00
FF00001FFE00
FF00000FFE00
FF000007FF00
FF000003FF00
FF000001FF00
FF000001FF80
FF000001FF80
FF000000FF80
FF000000FF80
FF000000FF80
FF000000FF80
FF000000FF80
FF000000FF80
FF000000FF80
FF000000FF00
FF000001FF00
FF000001FF00
FF000003FF00
FF000003FE00
FF000007FE00
FF00000FFC00
FF00001FF800
FF00007FF800
FF0007FFF000
FFFFFFFFE000
FFFFFFFFC000
FFFFFFFF0000
FFFFFFFE0000
FFFFFFF80000
FFFFFFC00000
FFFFFC000000
FF0000000000
FF0000000000
FF0000000000
FF0000000000
FF0000000000
FF0000000000
FF0000000000
FF0000000000
FF0000000000
FF0000000000
FF0000000000
FF0000000000
ENDCHAR
STARTCHAR 00DF
ENCODING 223
SWIDTH 552 0
DWIDTH 53 0
BBX 41 68 7 -1
BITMAP
0001FF800000
001FFFF80000
007FFFFE0000
01FFFFFF0000
03FFFFFFC000
07FFFFFFC000
0FFFFFFFE000
1FFE00FFF000
1FF8003FF000
3FF0001FF000
3FE0000FF800
7FC00007F800
7F800007F800
7F800007F800
FF800007F800
FF000007F800
FF00000FF800
FF00000FF000
FF00001FF000
FF00003FE000
FF00007FE000
FF0001FFC000
FF0003FF8000
FF0007FF0000
FF001FFC0000
FF001FF80000
FF003FE00000
FF007FC00000
FF007F800000
FF00FF800000
FF00FF000000
FF00FF000000
FF00FF000000
FF00FF000000
FF00FF800000
FF00FF800000
FF007FC00000
FF007FE00000
FF003FF80000
FF003FFC0000
FF001FFE0000
FF000FFF8000
FF0007FFC000
FF0003FFE000
FF0000FFF000
FF00007FF800
FF00001FFC00
FF00000FFE00
FF000007FF00
FF000003FF00
FF000001FF00
FF000000FF80
FF000000FF80
FF0000007F80
FF0000007F80
FF0000007F80
FF0000007F80
FF000000FF80
FF000000FF00
FF000003FF00
FF00C00FFF00
FF00FFFFFE00
FF00FFFFFC00
FF00FFFFF800
FF00FFFFF000
FF00FFFFC000
FF00FFFF0000
00003FF80000
ENDCHAR
STARTCHAR 00E0
ENCODING 224
SWIDTH 552 0
DWIDTH 53 0
BBX 39 67 6 -1
BITMAP
1FFE000000
0FFF000000
07FF800000
01FFC00000
00FFE00000
003FF00000
001FF80000
000FFC0000
0003FE0000
0001FF0000
0000FF8000
0000000000
0000000000
0000000000
0000000000
0000000000
0000000000
0000000000
0003FFC000
007FFFFC00
07FFFFFF00
0FFFFFFFC0
0FFFFFFFE0
0FFFFFFFF0
0FFFFFFFF8
0FFC00FFF8
0F80001FFC
0C00000FFC
00000007FC
00000003FE
00000003FE
00000001FE
00000001FE
00000001FE
00000001FE
00000001FE
00000001FE
00000001FE
00000001FE
0003FFFFFE
003FFFFFFE
00FFFFFFFE
03FFFFFFFE
07FFFFFFFE
0FFFFFFFFE
1FFF0001FE
3FF80001FE
7FF00001FE
7FE00001FE
7FC00001FE
FF800001FE
FF800001FE
FF800001FE
FF800001FE
FF800007FE
FF80000FFE
FFC0001FFE
FFC0007FFE
7FE001FFFE
7FF80FFFFE
3FFFFFFEFE
3FFFFFFCFE
1FFFFFF8FE
0FFFFFE0FE
07FFFFC0FE
01FFFE00FE
003FF00000
ENDCHAR
STARTCHAR 00E1
ENCODING 225
SWIDTH 552 0
DWIDTH 53 0
BBX 39 67 6 -1
BITMAP
0000003FFC
0000007FF8
000000FFF0
000001FFC0
000003FF80
000007FF00
00000FFC00
00001FF800
00003FE000
00007FC000
0000FF8000
0000000000
0000000000
0000000000
0000000000
0000000000
0000000000
0000000000
0003FFC000
007FFFFC00
07FFFFFF00
0FFFFFFFC0
0FFFFFFFE0
0FFFFFFFF0
0FFFFFFFF8
0FFC00FFF8
0F80001FFC
0C00000FFC
00000007FC
00000003FE
00000003FE
00000001FE
00000001FE
00000001FE
00000001FE
00000001FE
00000001FE
00000001FE
00000001FE
0003FFFFFE
003FFFFFFE
00FFFFFFFE
03FFFFFFFE
07FFFFFFFE
0FFFFFFFFE
1FFF0001FE
3FF80001FE
7FF00001FE
7FE00001FE
7FC00001FE
FF800001FE
FF800001FE
FF800001FE
FF800001FE
FF800007FE
FF80000FFE
FFC0001FFE
FFC0007FFE
7FE001FFFE
7FF80FFFFE
3FFFFFFEFE
3FFFFFFCFE
1FFFFFF8FE
0FFFFFE0FE
07FFFFC0FE
01FFFE00FE
003FF00000
ENDCHAR
STARTCHAR 00E2
ENCODING 226
SWIDTH 552 0
DWIDTH 53 0
BBX 39 67 6 -1
BITMAP
00007F8000
0000FFC000
0001FFE000
0007FFF000
000FFFF800
001FF7FC00
003FE3FE00
007FC1FF00
00FF007F80
01FE003FC0
03FC001FE0
0000000000
0000000000
0000000000
0000000000
0000000000
0000000000
0000000000
0003FFC000
007FFFFC00
07FFFFFF00
0FFFFFFFC0
0FFFFFFFE0
0FFFFFFFF0
0FFFFFFFF8
0FFC00FFF8
0F80001FFC
0C00000FFC
00000007FC
00000003FE
00000003FE
00000001FE
00000001FE
00000001FE
00000001FE
00000001FE
00000001FE
00000001FE
00000001FE
0003FFFFFE
003FFFFFFE
00FFFFFFFE
03FFFFFFFE
07FFFFFFFE
0FFFFFFFFE
1FFF0001FE
3FF80001FE
7FF00001FE
7FE00001FE
7FC00001FE
FF800001FE
FF800001FE
FF800001FE
FF800001FE
FF800007FE
FF80000FFE
FFC0001FFE
FFC0007FFE
7FE001FFFE
7FF80FFFFE
3FFFFFFEFE
3FFFFFFCFE
1FFFFFF8FE
0FFFFFE0FE
07FFFFC0FE
01FFFE00FE
003FF00000
ENDCHAR
STARTCHAR 00E3
ENCODING 227
SWIDTH 552 0
DWIDTH 53 0
BBX 39 67 6 -1
BITMAP
003F800000
00FFE000C0
01FFF801E0
03FFFE03F0
07FFFF87F8
0FFFFFFFF0
1FE1FFFFE0
0FC07FFFC0
07801FFF80
03000FFF00
000001FC00
0000000000
0000000000
0000000000
0000000000
0000000000
0000000000
0000000000
0003FFC000
007FFFFC00
07FFFFFF00
0FFFFFFFC0
0FFFFFFFE0
0FFFFFFFF0
0FFFFFFFF8
0FFC00FFF8
0F80001FFC
0C00000FFC
00000007FC
00000003FE
00000003FE
00000001FE
00000001FE
00000001FE
00000001FE
00000001FE
00000001FE
00000001FE
00000001FE
0003FFFFFE
003FFFFFFE
00FFFFFFFE
03FFFFFFFE
07FFFFFFFE
0FFFFFFFFE
1FFF0001FE
3FF80001FE
7FF00001FE
7FE00001FE
7FC00001FE
FF800001FE
FF800001FE
FF800001FE
FF800001FE
FF800007FE
FF80000FFE
FFC0001FFE
FFC0007FFE
7FE001FFFE
7FF80FFFFE
3FFFFFFEFE
3FFFFFFCFE
1FFFFFF8FE
0FFFFFE0FE
07FFFFC0FE
01FFFE00FE
003FF00000
ENDCHAR
STARTCHAR 00E4
ENCODING 228
SWIDTH 552 0
DWIDTH 53 0
BBX 39 67 6 -1
BITMAP
00F8000F80
01FC001FC0
03FE003FE0
07FF007FF0
07FF007FF0
07FF007FF0
07FF007FF0
07FF007FF0
03FE003FE0
01FC001FC0
00F8000F80
0000000000
0000000000
0000000000
0000000000
0000000000
0000000000
0000000000
0003FFC000
007FFFFC00
07FFFFFF00
0FFFFFFFC0
0FFFFFFFE0
0FFFFFFFF0
0FFFFFFFF8
0FFC00FFF8
0F80001FFC
0C00000FFC
00000007FC
00000003FE
00000003FE
00000001FE
00000001FE
00000001FE
00000001FE
00000001FE
00000001FE
00000001FE
00000001FE
0003FFFFFE
003FFFFFFE
00FFFFFFFE
03FFFFFFFE
07FFFFFFFE
0FFFFFFFFE
1FFF0001FE
3FF80001FE
7FF00001FE
7FE00001FE
7FC00001FE
FF800001FE
FF800001FE
FF800001FE
FF800001FE
FF800007FE
FF80000FFE
FFC0001FFE
FFC0007FFE
7FE001FFFE
7FF80FFFFE
3FFFFFFEFE
3FFFFFFCFE
1FFFFFF8FE
0FFFFFE0FE
07FFFFC0FE
01FFFE00FE
003FF00000
ENDCHAR
STARTCHAR 00E5
ENCODING 229
SWIDTH 552 0
DWIDTH 53 0
BBX 39 71 6 -1
BITMAP
00007F0000
0001FFC000
0003FFE000
0007FFF000
000FFFF800
000FE3F800
001F80FC00
001F007C00
001F007C00
001F007C00
001F007C00
001F007C00
001F80FC00
000FC3F800
000FFFF800
0007FFF000
0003FFE000
0001FFC000
00007F0000
0000000000
0000000000
0000000000
0003FFC000
007FFFFC00
07FFFFFF00
0FFFFFFFC0
0FFFFFFFE0
0FFFFFFFF0
0FFFFFFFF8
0FFC00FFF8
0F80001FFC
0C00000FFC
00000007FC
00000003FE
00000003FE
00000001FE
00000001FE
00000001FE
00000001FE
00000001FE
00000001FE
00000001FE
00000001FE
0003FFFFFE
003FFFFFFE
00FFFFFFFE
03FFFFFFFE
07FFFFFFFE
0FFFFFFFFE
1FFF0001FE
3FF80001FE
7FF00001FE
7FE00001FE
7FC00001FE
FF800001FE
FF800001FE
FF800001FE
FF800001FE
FF800007FE
FF80000FFE
FFC0001FFE
FFC0007FFE
7FE001FFFE
7FF80FFFFE
3FFFFFFEFE
3FFFFFFCFE
1FFFFFF8FE
0FFFFFE0FE
07FFFFC0FE
01FFFE00FE
003FF00000
ENDCHAR
STARTCHAR 00E6
ENCODING 230
SWIDTH 552 0
DWIDTH 53 0
BBX 50 49 1 -1
BITMAP
003FE0007F0000
01FFFC01FFE000
0FFFFF07FFF000
1FFFFF8FFFF800
1FFFFFDFFFFC00
1FFFFFFFFFFE00
1FFFFFFFFFFE00
1FC03FFFC3FF00
1E001FFF81FF00
10000FFF00FF00
000007FE00FF80
000007FE007F80
000007FC007F80
000003FC007F80
000003FC003FC0
000003F8003FC0
000003F8003FC0
000003F8003FC0
000003F8003FC0
000003F8003FC0
000003F8003FC0
001FFFFFFFFFC0
00FFFFFFFFFFC0
03FFFFFFFFFFC0
0FFFFFFFFFFFC0
1FFFFFFFFFFFC0
3FFFFFFFFFFFC0
3FF803F8000000
7FE003F8000000
7FC003F8000000
7F8003F8000000
FF8003F8000000
FF0003F8000000
FF0003FC000000
FF0003FC000000
FF0003FC000000
FF0007FC000000
FF000FFE000000
FF001FFE000000
FF803FFF000000
FF807FFF800100
7FE1FF7FE01F00
7FFFFE7FFFFF00
3FFFFC3FFFFF00
3FFFF83FFFFF00
1FFFF01FFFFF00
0FFFE00FFFFF00
07FFC003FFFE00
00FE0000FFC000
ENDCHAR
STARTCHAR 00E7
ENCODING 231
SWIDTH 552 0
DWIDTH 53 0
BBX 37 62 7 -14
BITMAP
00001FFE00
0001FFFFE0
0007FFFFF8
001FFFFFF8
007FFFFFF8
00FFFFFFF8
01FFFFFFF8
03FFF803F8
07FFC00078
0FFF000008
0FFE000000
1FFC000000
1FF8000000
3FF0000000
3FF0000000
7FE0000000
7FE0000000
7FC0000000
7FC0000000
FFC0000000
FF80000000
FF80000000
FF80000000
FF80000000
FF80000000
FF80000000
FF80000000
FF80000000
FF80000000
FF80000000
FFC0000000
7FC0000000
7FC0000000
7FC0000000
7FE0000000
3FE0000000
3FF0000000
1FF8000000
1FFC000000
0FFE000008
0FFF800038
07FFF003F8
03FFFFFFF8
01FFFFFFF8
00FFFFFFF8
003FFFFFF8
000FFFFFF8
0001FFFFE0
00007FFC00
00007F8000
0000FF8000
0000FF0000
0000FF0000
0000FF0000
0000FE0000
0001FE0000
0001FE0000
0001FC0000
0001FC0000
0001FC0000
0003F80000
0003F80000
ENDCHAR
STARTCHAR 00E8
ENCODING 232
SWIDTH 552 0
DWIDTH 53 0
BBX 41 67 5 -1
BITMAP
0FFF00000000
07FF80000000
03FFC0000000
00FFE0000000
007FF0000000
001FF8000000
000FFC000000
0007FE000000
0001FF000000
0000FF800000
00007FC00000
000000000000
000000000000
000000000000
000000000000
000000000000
000000000000
000000000000
0000FFC00000
0007FFF80000
001FFFFE0000
003FFFFF8000
00FFFFFFC000
01FFFFFFE000
03FFFFFFF000
07FFC07FF800
07FF001FFC00
0FFC0007FC00
1FF80003FE00
1FF00001FE00
3FF00001FF00
3FE00000FF00
3FE00000FF00
7FC00000FF00
7FC000007F80
7FC000007F80
7F8000007F80
FF8000007F80
FF8000007F80
FFFFFFFFFF80
FFFFFFFFFF80
FFFFFFFFFF80
FFFFFFFFFF80
FFFFFFFFFF80
FFFFFFFFFF80
FF8000000000
FF8000000000
FF8000000000
FF8000000000
7F8000000000
7FC000000000
7FC000000000
7FC000000000
7FE000000000
3FF000000000
3FF000000000
1FF800000000
1FFE00000000
0FFF00000600
07FFE001FE00
07FFFFFFFE00
03FFFFFFFE00
01FFFFFFFE00
007FFFFFFE00
001FFFFFFE00
0007FFFFF800
00007FFE0000
ENDCHAR
STARTCHAR 00E9
ENCODING 233
SWIDTH 552 0
DWIDTH 53 0
BBX 41 67 5 -1
BITMAP
0000001FFE00
0000003FFC00
0000007FF800
000000FFE000
000001FFC000
000003FF8000
000007FE0000
00000FFC0000
00001FF00000
00003FE00000
00007FC00000
000000000000
000000000000
000000000000
000000000000
000000000000
000000000000
000000000000
0000FFC00000
0007FFF80000
001FFFFE0000
003FFFFF8000
00FFFFFFC000
01FFFFFFE000
03FFFFFFF000
07FFC07FF800
07FF001FFC00
0FFC0007FC00
1FF80003FE00
1FF00001FE00
3FF00001FF00
3FE00000FF00
3FE00000FF00
7FC00000FF00
7FC000007F80
7FC000007F80
7F8000007F80
FF8000007F80
FF8000007F80
FFFFFFFFFF80
FFFFFFFFFF80
FFFFFFFFFF80
FFFFFFFFFF80
FFFFFFFFFF80
FFFFFFFFFF80
FF8000000000
FF8000000000
FF8000000000
FF8000000000
7F8000000000
7FC000000000
7FC000000000
7FC000000000
7FE000000000
3FF000000000
3FF000000000
1FF800000000
1FFE00000000
0FFF00000600
07FFE001FE00
07FFFFFFFE00
03FFFFFFFE00
01FFFFFFFE00
007FFFFFFE00
001FFFFFFE00
0007FFFFF800
00007FFE0000
ENDCHAR
STARTCHAR 00EA
ENCODING 234
SWIDTH 552 0
DWIDTH 53 0
BBX 41 67 5 -1
BITMAP
00003FC00000
00007FE00000
0000FFF00000
0003FFF80000
0007FFFC0000
000FFBFE0000
001FF1FF0000
003FE0FF8000
007F803FC000
00FF001FE000
01FE000FF000
000000000000
000000000000
000000000000
000000000000
000000000000
000000000000
000000000000
0000FFC00000
0007FFF80000
001FFFFE0000
003FFFFF8000
00FFFFFFC000
01FFFFFFE000
03FFFFFFF000
07FFC07FF800
07FF001FFC00
0FFC0007FC00
1FF80003FE00
1FF00001FE00
3FF00001FF00
3FE00000FF00
3FE00000FF00
7FC00000FF00
7FC000007F80
7FC000007F80
7F8000007F80
FF8000007F80
FF8000007F80
FFFFFFFFFF80
FFFFFFFFFF80
FFFFFFFFFF80
FFFFFFFFFF80
FFFFFFFFFF80
FFFFFFFFFF80
FF8000000000
FF8000000000
FF8000000000
FF8000000000
7F8000000000
7FC000000000
7FC000000000
7FC000000000
7FE000000000
3FF000000000
3FF000000000
1FF800000000
1FFE00000000
0FFF00000600
07FFE001FE00
07FFFFFFFE00
03FFFFFFFE00
01FFFFFFFE00
007FFFFFFE00
001FFFFFFE00
0007FFFFF800
00007FFE0000
ENDCHAR
STARTCHAR 00EB
ENCODING 235
SWIDTH 552 0
DWIDTH 53 0
BBX 41 67 5 -1
BITMAP
007C0007C000
00FE000FE000
01FF001FF000
03FF803FF800
03FF803FF800
03FF803FF800
03FF803FF800
03FF803FF800
01FF001FF000
00FE000FE000
007C0007C000
000000000000
000000000000
000000000000
000000000000
000000000000
000000000000
000000000000
0000FFC00000
0007FFF80000
001FFFFE0000
003FFFFF8000
00FFFFFFC000
01FFFFFFE000
03FFFFFFF000
07FFC07FF800
07FF001FFC00
0FFC0007FC00
1FF80003FE00
1FF00001FE00
3FF00001FF00
3FE00000FF00
3FE00000FF00
7FC00000FF00
7FC000007F80
7FC000007F80
7F8000007F80
FF8000007F80
FF8000007F80
FFFFFFFFFF80
FFFFFFFFFF80
FFFFFFFFFF80
FFFFFFFFFF80
FFFFFFFFFF80
FFFFFFFFFF80
FF8000000000
FF8000000000
FF8000000000
FF8000000000
7F8000000000
7FC000000000
7FC000000000
7FC000000000
7FE000000000
3FF000000000
3FF000000000
1FF800000000
1FFE00000000
0FFF00000600
07FFE001FE00
07FFFFFFFE00
03FFFFFFFE00
01FFFFFFFE00
007FFFFFFE00
001FFFFFFE00
0007FFFFF800
00007FFE0000
ENDCHAR
STARTCHAR 00EC
ENCODING 236
SWIDTH 552 0
DWIDTH 53 0
BBX 38 66 8 0
BITMAP
7FF8000000
3FFC000000
1FFE000000
07FF000000
03FF800000
00FFC00000
007FE00000
003FF00000
000FF80000
0007FC0000
0003FE0000
0000000000
0000000000
0000000000
0000000000
0000000000
0000000000
0000000000
0000000000
3FFFFF0000
3FFFFF0000
3FFFFF0000
3FFFFF0000
3FFFFF0000
3FFFFF0000
3FFFFF0000
0000FF0000
0000FF0000
0000FF0000
0000FF0000
0000FF0000
0000FF0000
0000FF0000
0000FF0000
0000FF0000
0000FF0000
0000FF0000
0000FF0000
0000FF0000
0000FF0000
0000FF0000
0000FF0000
0000FF0000
0000FF0000
0000FF0000
0000FF0000
0000FF0000
0000FF0000
0000FF0000
0000FF0000
0000FF0000
0000FF0000
0000FF0000
0000FF0000
0000FF0000
0000FF0000
0000FF0000
0000FF0000
0000FF0000
FFFFFFFFFC
FFFFFFFFFC
FFFFFFFFFC
FFFFFFFFFC
FFFFFFFFFC
FFFFFFFFFC
FFFFFFFFFC
ENDCHAR
STARTCHAR 00ED
ENCODING 237
SWIDTH 552 0
DWIDTH 53 0
BBX 38 66 8 0
BITMAP
000000FFF0
000001FFE0
000003FFC0
000007FF00
00000FFE00
00001FFC00
00003FF000
00007FE000
0000FF8000
0001FF0000
0003FE0000
0000000000
0000000000
0000000000
0000000000
0000000000
0000000000
0000000000
0000000000
3FFFFF0000
3FFFFF0000
3FFFFF0000
3FFFFF0000
3FFFFF0000
3FFFFF0000
3FFFFF0000
0000FF0000
0000FF0000
0000FF0000
0000FF0000
0000FF0000
0000FF0000
0000FF0000
0000FF0000
0000FF0000
0000FF0000
0000FF0000
0000FF0000
0000FF0000
0000FF0000
0000FF0000
0000FF0000
0000FF0000
0000FF0000
0000FF0000
0000FF0000
0000FF0000
0000FF0000
0000FF0000
0000FF0000
0000FF0000
0000FF0000
0000FF0000
0000FF0000
0000FF0000
0000FF0000
0000FF0000
0000FF0000
0000FF0000
FFFFFFFFFC
FFFFFFFFFC
FFFFFFFFFC
FFFFFFFFFC
FFFFFFFFFC
FFFFFFFFFC
FFFFFFFFFC
ENDCHAR
STARTCHAR 00EE
ENCODING 238
SWIDTH 552 0
DWIDTH 53 0
BBX 38 66 8 0
BITMAP
0001FE0000
0003FF0000
0007FF8000
001FFFC000
003FFFE000
007FDFF000
00FF8FF800
01FF07FC00
03FC01FE00
07F800FF00
0FF0007F80
0000000000
0000000000
0000000000
0000000000
0000000000
0000000000
0000000000
0000000000
3FFFFF0000
3FFFFF0000
3FFFFF0000
3FFFFF0000
3FFFFF0000
3FFFFF0000
3FFFFF0000
0000FF0000
0000FF0000
0000FF0000
0000FF0000
0000FF0000
0000FF0000
0000FF0000
0000FF0000
0000FF0000
0000FF0000
0000FF0000
0000FF0000
0000FF0000
0000FF0000
0000FF0000
0000FF0000
0000FF0000
0000FF0000
0000FF0000
0000FF0000
0000FF0000
0000FF0000
0000FF0000
0000FF0000
0000FF0000
0000FF0000
0000FF0000
0000FF0000
0000FF0000
0000FF0000
0000FF0000
0000FF0000
0000FF0000
FFFFFFFFFC
FFFFFFFFFC
FFFFFFFFFC
FFFFFFFFFC
FFFFFFFFFC
FFFFFFFFFC
FFFFFFFFFC
ENDCHAR
STARTCHAR 00EF
ENCODING 239
SWIDTH 552 0
DWIDTH 53 0
BBX 38 66 8 0
BITMAP
03E0003E00
07F0007F00
0FF800FF80
1FFC01FFC0
1FFC01FFC0
1FFC01FFC0
1FFC01FFC0
1FFC01FFC0
0FF800FF80
07F0007F00
03E0003E00
0000000000
0000000000
0000000000
0000000000
0000000000
0000000000
0000000000
0000000000
3FFFFF0000
3FFFFF0000
3FFFFF0000
3FFFFF0000
3FFFFF0000
3FFFFF0000
3FFFFF0000
0000FF0000
0000FF0000
0000FF0000
0000FF0000
0000FF0000
0000FF0000
0000FF0000
0000FF0000
0000FF0000
0000FF0000
0000FF0000
0000FF0000
0000FF0000
0000FF0000
0000FF0000
0000FF0000
0000FF0000
0000FF0000
0000FF0000
0000FF0000
0000FF0000
0000FF0000
0000FF0000
0000FF0000
0000FF0000
0000FF0000
0000FF0000
0000FF0000
0000FF0000
0000FF0000
0000FF0000
0000FF0000
0000FF0000
FFFFFFFFFC
FFFFFFFFFC
FFFFFFFFFC
FFFFFFFFFC
FFFFFFFFFC
FFFFFFFFFC
FFFFFFFFFC
ENDCHAR
STARTCHAR 00F0
ENCODING 240
SWIDTH 552 0
DWIDTH 53 0
BBX 42 67 5 -1
BITMAP
003FF0000000
001FF8000000
000FFC001C00
0007FE03FC00
0003FFFFFC00
0001FFFFFC00
0001FFFFFC00
003FFFFFFC00
01FFFFFFFC00
01FFFFFFE000
01FFFFFC0000
01FFFFF80000
01FFFFF80000
01FE07FC0000
01C007FE0000
000003FF0000
000001FF0000
000000FF8000
00007FFF8000
0003FFFFC000
000FFFFFE000
003FFFFFE000
007FFFFFF000
00FFFFFFF000
01FFFFFFF800
03FFC01FF800
07FF0007FC00
0FFC0003FC00
0FF80003FE00
1FF00001FE00
1FE00001FE00
3FE00000FF00
3FC00000FF00
7FC00000FF80
7F8000007F80
7F8000007F80
7F8000007F80
FF0000007FC0
FF0000003FC0
FF0000003FC0
FF0000003FC0
FF0000003FC0
FF0000003FC0
FF0000003FC0
FF0000003FC0
FF0000003FC0
FF0000003FC0
FF0000003FC0
FF0000007FC0
FF8000007F80
7F8000007F80
7F8000007F80
7FC00000FF80
7FC00000FF00
3FE00001FF00
3FF00001FE00
1FF00003FE00
1FF80007FC00
0FFE001FFC00
0FFF807FF800
07FFFFFFF000
03FFFFFFE000
01FFFFFFC000
00FFFFFF8000
003FFFFE0000
000FFFF80000
0001FFC00000
ENDCHAR
STARTCHAR 00F1
ENCODING 241
SWIDTH 552 0
DWIDTH 53 0
BBX 38 66 8 0
BITMAP
00FE000000
03FF800300
07FFE00780
0FFFF80FC0
1FFFFE1FE0
3FFFFFFFC0
7F87FFFF80
3F01FFFF00
1E007FFE00
0C003FFC00
000007F000
0000000000
0000000000
0000000000
0000000000
0000000000
0000000000
0000000000
00001FF000
FE00FFFC00
FE03FFFF00
FE07FFFF80
FE1FFFFFC0
FE3FFFFFE0
FE7FFFFFF0
FEFFC07FF0
FEFF001FF8
FFFE000FF8
FFFC000FF8
FFF80007F8
FFF00007FC
FFE00003FC
FFC00003FC
FF800003FC
FF000003FC
FF000003FC
FF000003FC
FF000003FC
FF000003FC
FF000003FC
FF000003FC
FF000003FC
FF000003FC
FF000003FC
FF000003FC
FF000003FC
FF000003FC
FF000003FC
FF000003FC
FF000003FC
FF000003FC
FF000003FC
FF000003FC
FF000003FC
FF000003FC
FF000003FC
FF000003FC
FF000003FC
FF000003FC
FF000003FC
FF000003FC
FF000003FC
FF000003FC
FF000003FC
FF000003FC
FF000003FC
ENDCHAR
STARTCHAR 00F2
ENCODING 242
SWIDTH 552 0
DWIDTH 53 0
BBX 44 67 4 -1
BITMAP
07FF80000000
03FFC0000000
01FFE0000000
007FF0000000
003FF8000000
000FFC000000
0007FE000000
0003FF000000
0000FF800000
00007FC00000
00003FE00000
000000000000
000000000000
000000000000
000000000000
000000000000
000000000000
000000000000
00007FF00000
0003FFFE0000
000FFFFF8000
003FFFFFE000
007FFFFFF000
01FFFFFFFC00
03FFFFFFFE00
07FFC03FFE00
07FF0007FF00
0FFC0003FF80
1FF80001FF80
1FF00000FFC0
3FE000007FC0
3FE000003FC0
3FC000003FE0
7FC000001FE0
7F8000001FE0
7F8000001FE0
7F8000001FF0
FF0000000FF0
FF0000000FF0
FF0000000FF0
FF0000000FF0
FF0000000FF0
FF0000000FF0
FF0000000FF0
FF0000000FF0
FF0000000FF0
FF0000000FF0
FF0000000FF0
FF8000001FE0
7F8000001FE0
7F8000001FE0
7F8000003FE0
7FC000003FC0
3FC000007FC0
3FE000007FC0
3FF00000FF80
1FF80001FF80
1FFC0003FF00
0FFE000FFE00
07FFC03FFE00
07FFFFFFFC00
03FFFFFFF800
01FFFFFFE000
007FFFFFC000
003FFFFF0000
0007FFFC0000
0000FFE00000
ENDCHAR
STARTCHAR 00F3
ENCODING 243
SWIDTH 552 0
DWIDTH 53 0
BBX 44 67 4 -1
BITMAP
0000000FFF00
0000001FFE00
0000003FFC00
0000007FF000
000000FFE000
000001FFC000
000003FF0000
000007FE0000
00000FF80000
00001FF00000
00003FE00000
000000000000
000000000000
000000000000
000000000000
000000000000
000000000000
000000000000
00007FF00000
0003FFFE0000
000FFFFF8000
003FFFFFE000
007FFFFFF000
01FFFFFFFC00
03FFFFFFFE00
07FFC03FFE00
07FF0007FF00
0FFC0003FF80
1FF80001FF80
1FF00000FFC0
3FE000007FC0
3FE000003FC0
3FC000003FE0
7FC000001FE0
7F8000001FE0
7F8000001FE0
7F8000001FF0
FF0000000FF0
FF0000000FF0
FF0000000FF0
FF0000000FF0
FF0000000FF0
FF0000000FF0
FF0000000FF0
FF0000000FF0
FF0000000FF0
FF0000000FF0
FF0000000FF0
FF8000001FE0
7F8000001FE0
7F8000001FE0
7F8000003FE0
7FC000003FC0
3FC000007FC0
3FE000007FC0
3FF00000FF80
1FF80001FF80
1FFC0003FF00
0FFE000FFE00
07FFC03FFE00
07FFFFFFFC00
03FFFFFFF800
01FFFFFFE000
007FFFFFC000
003FFFFF0000
0007FFFC0000
0000FFE00000
ENDCHAR
STARTCHAR 00F4
ENCODING 244
SWIDTH 552 0
DWIDTH 53 0
BBX 44 67 4 -1
BITMAP
00001FE00000
00003FF00000
00007FF80000
0001FFFC0000
0003FFFE0000
0007FDFF0000
000FF8FF8000
001FF07FC000
003FC01FE000
007F800FF000
00FF0007F800
000000000000
000000000000
000000000000
000000000000
000000000000
000000000000
000000000000
00007FF00000
0003FFFE0000
000FFFFF8000
003FFFFFE000
007FFFFFF000
01FFFFFFFC00
03FFFFFFFE00
07FFC03FFE00
07FF0007FF00
0FFC0003FF80
1FF80001FF80
1FF00000FFC0
3FE000007FC0
3FE000003FC0
3FC000003FE0
7FC000001FE0
7F8000001FE0
7F8000001FE0
7F8000001FF0
FF0000000FF0
FF0000000FF0
FF0000000FF0
FF0000000FF0
FF0000000FF0
FF0000000FF0
FF0000000FF0
FF0000000FF0
FF0000000FF0
FF0000000FF0
FF0000000FF0
FF8000001FE0
7F8000001FE0
7F8000001FE0
7F8000003FE0
7FC000003FC0
3FC000007FC0
3FE000007FC0
3FF00000FF80
1FF80001FF80
1FFC0003FF00
0FFE000FFE00
07FFC03FFE00
07FFFFFFFC00
03FFFFFFF800
01FFFFFFE000
007FFFFFC000
003FFFFF0000
0007FFFC0000
0000FFE00000
ENDCHAR
STARTCHAR 00F5
ENCODING 245
SWIDTH 552 0
DWIDTH 53 0
BBX 44 67 4 -1
BITMAP
000FE0000000
003FF8003000
007FFE007800
00FFFF80FC00
01FFFFE1FE00
03FFFFFFFC00
07F87FFFF800
03F01FFFF000
01E007FFE000
00C003FFC000
0000007F0000
000000000000
000000000000
000000000000
000000000000
000000000000
000000000000
000000000000
00007FF00000
0003FFFE0000
000FFFFF8000
003FFFFFE000
007FFFFFF000
01FFFFFFFC00
03FFFFFFFE00
07FFC03FFE00
07FF0007FF00
0FFC0003FF80
1FF80001FF80
1FF00000FFC0
3FE000007FC0
3FE000003FC0
3FC000003FE0
7FC000001FE0
7F8000001FE0
7F8000001FE0
7F8000001FF0
FF0000000FF0
FF0000000FF0
FF0000000FF0
FF0000000FF0
FF0000000FF0
FF0000000FF0
FF0000000FF0
FF0000000FF0
FF0000000FF0
FF0000000FF0
FF0000000FF0
FF8000001FE0
7F8000001FE0
7F8000001FE0
7F8000003FE0
7FC000003FC0
3FC000007FC0
3FE000007FC0
3FF00000FF80
1FF80001FF80
1FFC0003FF00
0FFE000FFE00
07FFC03FFE00
07FFFFFFFC00
03FFFFFFF800
01FFFFFFE000
007FFFFFC000
003FFFFF0000
0007FFFC0000
0000FFE00000
ENDCHAR
STARTCHAR 00F6
ENCODING 246
SWIDTH 552 0
DWIDTH 53 0
BBX 44 67 4 -1
BITMAP
003E0003E000
007F0007F000
00FF800FF800
01FFC01FFC00
01FFC01FFC00
01FFC01FFC00
01FFC01FFC00
01FFC01FFC00
00FF800FF800
007F0007F000
003E0003E000
000000000000
000000000000
000000000000
000000000000
000000000000
000000000000
000000000000
00007FF00000
0003FFFE0000
000FFFFF8000
003FFFFFE000
007FFFFFF000
01FFFFFFFC00
03FFFFFFFE00
07FFC03FFE00
07FF0007FF00
0FFC0003FF80
1FF80001FF80
1FF00000FFC0
3FE000007FC0
3FE000003FC0
3FC000003FE0
7FC000001FE0
7F8000001FE0
7F8000001FE0
7F8000001FF0
FF0000000FF0
FF0000000FF0
FF0000000FF0
FF0000000FF0
FF0000000FF0
FF0000000FF0
FF0000000FF0
FF0000000FF0
FF0000000FF0
FF0000000FF0
FF0000000FF0
FF8000001FE0
7F8000001FE0
7F8000001FE0
7F8000003FE0
7FC000003FC0
3FC000007FC0
3FE000007FC0
3FF00000FF80
1FF80001FF80
1FFC0003FF00
0FFE000FFE00
07FFC03FFE00
07FFFFFFFC00
03FFFFFFF800
01FFFFFFE000
007FFFFFC000
003FFFFF0000
0007FFFC0000
0000FFE00000
ENDCHAR
STARTCHAR 00F7
ENCODING 247
SWIDTH 552 0
DWIDTH 53 0
BBX 44 49 4 1
BITMAP
00000F000000
00003FC00000
00007FE00000
00007FE00000
0000FFF00000
0000FFF00000
0000FFF00000
0000FFF00000
00007FE00000
00007FE00000
00003FC00000
00000F000000
000000000000
000000000000
000000000000
000000000000
000000000000
000000000000
000000000000
000000000000
000000000000
FFFFFFFFFFF0
FFFFFFFFFFF0
FFFFFFFFFFF0
FFFFFFFFFFF0
FFFFFFFFFFF0
FFFFFFFFFFF0
FFFFFFFFFFF0
000000000000
000000000000
000000000000
000000000000
000000000000
000000000000
000000000000
000000000000
000000000000
00000F000000
00003FC00000
00007FE00000
00007FE00000
0000FFF00000
0000FFF00000
0000FFF00000
0000FFF00000
00007FE00000
00007FE00000
00003FC00000
00000F000000
ENDCHAR
STARTCHAR 00F8
ENCODING 248
SWIDTH 552 0
DWIDTH 53 0
BBX 44 67 4 -10
BITMAP
00000003F800
00000003F000
00000007F000
00000007F000
00000007E000
0000000FE000
0000000FE000
0000000FC000
0000001FC000
00007FFFC000
0003FFFF8000
001FFFFFC000
003FFFFFE000
00FFFFFFF800
01FFFFFFFC00
03FFFFFFFE00
07FFC0FFFE00
0FFE00FFFF00
0FFC00FFFF80
1FF801FDFF80
1FF001FCFFC0
3FE001FC7FC0
3FC003F83FE0
7FC003F83FE0
7F8003F81FE0
7F8007F01FE0
7F8007F01FE0
FF8007F01FF0
FF000FE00FF0
FF000FE00FF0
FF000FC00FF0
FF001FC00FF0
FF001FC00FF0
FF001F800FF0
FF003F800FF0
FF003F800FF0
FF003F000FF0
FF007F000FF0
FF007F000FF0
FF80FE001FE0
FF80FE001FE0
7F80FE001FE0
7F81FC003FE0
7FC1FC003FC0
7FC1FC003FC0
3FE3F8007FC0
3FF3F800FF80
1FF3F801FF80
1FFFF003FF00
0FFFF007FF00
0FFFF03FFE00
07FFFFFFFC00
03FFFFFFF800
01FFFFFFF000
007FFFFFC000
003FFFFF8000
001FFFFC0000
003FFFE00000
003F80000000
003F00000000
007F00000000
007F00000000
007E00000000
00FE00000000
00FE00000000
00FC00000000
01FC00000000
ENDCHAR
STARTCHAR 00F9
ENCODING 249
SWIDTH 552 0
DWIDTH 53 0
BBX 38 67 8 -1
BITMAP
7FF8000000
3FFC000000
1FFE000000
07FF000000
03FF800000
00FFC00000
007FE00000
003FF00000
000FF80000
0007FC0000
0003FE0000
0000000000
0000000000
0000000000
0000000000
0000000000
0000000000
0000000000
0000000000
FF000003FC
FF000003FC
FF000003FC
FF000003FC
FF000003FC
FF000003FC
FF000003FC
FF000003FC
FF000003FC
FF000003FC
FF000003FC
FF000003FC
FF000003FC
FF000003FC
FF000003FC
FF000003FC
FF000003FC
FF000003FC
FF000003FC
FF000003FC
FF000003FC
FF000003FC
FF000003FC
FF000003FC
FF000003FC
FF000003FC
FF000003FC
FF000003FC
FF000003FC
FF000003FC
FF000003FC
FF000003FC
FF000007FC
FF00000FFC
FF00001FFC
FF80003FFC
FF80007FFC
7FC000FFFC
7FC001FFFC
7FE003FDFC
3FF81FFDFC
3FFFFFF9FC
1FFFFFF1FC
0FFFFFE1FC
0FFFFF81FC
03FFFF01FC
01FFFC01FC
003FE00000
ENDCHAR
STARTCHAR 00FA
ENCODING 250
SWIDTH 552 0
DWIDTH 53 0
BBX 38 67 8 -1
BITMAP
000000FFF0
000001FFE0
000003FFC0
000007FF00
00000FFE00
00001FFC00
00003FF000
00007FE000
0000FF8000
0001FF0000
0003FE0000
0000000000
0000000000
0000000000
0000000000
0000000000
0000000000
0000000000
0000000000
FF000003FC
FF000003FC
FF000003FC
FF000003FC
FF000003FC
FF000003FC
FF000003FC
FF000003FC
FF000003FC
FF000003FC
FF000003FC
FF000003FC
FF000003FC
FF000003FC
FF000003FC
FF000003FC
FF000003FC
FF000003FC
FF000003FC
FF000003FC
FF000003FC
FF000003FC
FF000003FC
FF000003FC
FF000003FC
FF000003FC
FF000003FC
FF000003FC
FF000003FC
FF000003FC
FF000003FC
FF000003FC
FF000007FC
FF00000FFC
FF00001FFC
FF80003FFC
FF80007FFC
7FC000FFFC
7FC001FFFC
7FE003FDFC
3FF81FFDFC
3FFFFFF9FC
1FFFFFF1FC
0FFFFFE1FC
0FFFFF81FC
03FFFF01FC
01FFFC01FC
003FE00000
ENDCHAR
STARTCHAR 00FB
ENCODING 251
SWIDTH 552 0
DWIDTH 53 0
BBX 38 67 8 -1
BITMAP
0001FE0000
0003FF0000
0007FF8000
001FFFC000
003FFFE000
007FDFF000
00FF8FF800
01FF07FC00
03FC01FE00
07F800FF00
0FF0007F80
0000000000
0000000000
0000000000
0000000000
0000000000
0000000000
0000000000
0000000000
FF000003FC
FF000003FC
FF000003FC
FF000003FC
FF000003FC
FF000003FC
FF000003FC
FF000003FC
FF000003FC
FF000003FC
FF000003FC
FF000003FC
FF000003FC
FF000003FC
FF000003FC
FF000003FC
FF000003FC
FF000003FC
FF000003FC
FF000003FC
FF000003FC
FF000003FC
FF000003FC
FF000003FC
FF000003FC
FF000003FC
FF000003FC
FF000003FC
FF000003FC
FF000003FC
FF000003FC
FF000003FC
FF000007FC
FF00000FFC
FF00001FFC
FF80003FFC
FF80007FFC
7FC000FFFC
7FC001FFFC
7FE003FDFC
3FF81FFDFC
3FFFFFF9FC
1FFFFFF1FC
0FFFFFE1FC
0FFFFF81FC
03FFFF01FC
01FFFC01FC
003FE00000
ENDCHAR
STARTCHAR 00FC
ENCODING 252
SWIDTH 552 0
DWIDTH 53 0
BBX 38 67 8 -1
BITMAP
03E0003E00
07F0007F00
0FF800FF80
1FFC01FFC0
1FFC01FFC0
1FFC01FFC0
1FFC01FFC0
1FFC01FFC0
0FF800FF80
07F0007F00
03E0003E00
0000000000
0000000000
0000000000
0000000000
0000000000
0000000000
0000000000
0000000000
FF000003FC
FF000003FC
FF000003FC
FF000003FC
FF000003FC
FF000003FC
FF000003FC
FF000003FC
FF000003FC
FF000003FC
FF000003FC
FF000003FC
FF000003FC
FF000003FC
FF000003FC
FF000003FC
FF000003FC
FF000003FC
FF000003FC
FF000003FC
FF000003FC
FF000003FC
FF000003FC
FF000003FC
FF000003FC
FF000003FC
FF000003FC
FF000003FC
FF000003FC
FF000003FC
FF000003FC
FF000003FC
FF000007FC
FF00000FFC
FF00001FFC
FF80003FFC
FF80007FFC
7FC000FFFC
7FC001FFFC
7FE003FDFC
3FF81FFDFC
3FFFFFF9FC
1FFFFFF1FC
0FFFFFE1FC
0FFFFF81FC
03FFFF01FC
01FFFC01FC
003FE00000
ENDCHAR
STARTCHAR 00FD
ENCODING 253
SWIDTH 552 0
DWIDTH 53 0
BBX 47 86 2 -20
BITMAP
00000003FFC0
00000007FF80
0000000FFF00
0000001FFC00
0000003FF800
0000007FF000
000000FFC000
000001FF8000
000003FE0000
000007FC0000
00000FF80000
000000000000
000000000000
000000000000
000000000000
000000000000
000000000000
000000000000
000000000000
7FC0000003FE
7FC0000003FE
3FE0000003FE
3FE0000007FC
3FF0000007FC
1FF0000007F8
1FF000000FF8
0FF800000FF8
0FF800001FF0
0FF800001FF0
07FC00001FE0
07FC00003FE0
03FE00003FE0
03FE00003FC0
03FE00007FC0
01FF00007F80
01FF00007F80
00FF8000FF80
00FF8000FF00
00FF8001FF00
007FC001FE00
007FC001FE00
003FE003FE00
003FE003FC00
001FE003FC00
001FF007FC00
001FF007F800
000FF00FF800
000FF80FF000
0007F80FF000
0007FC1FF000
0007FC1FE000
0003FC1FE000
0003FE3FC000
0001FE3FC000
0001FE3FC000
0001FF7F8000
0000FF7F8000
0000FFFF0000
00007FFF0000
00007FFF0000
00007FFE0000
00003FFE0000
00003FFC0000
00001FFC0000
00001FFC0000
00000FF80000
00001FF80000
00001FF00000
00001FF00000
00003FE00000
00007FE00000
00007FC00000
0000FFC00000
0000FF800000
0001FF800000
0003FF000000
0007FE000000
001FFE000000
007FFC000000
FFFFF8000000
FFFFF0000000
FFFFE0000000
FFFF80000000
FFFF00000000
FFFC00000000
FFC000000000
ENDCHAR
STARTCHAR 00FE
ENCODING 254
SWIDTH 552 0
DWIDTH 53 0
BBX 40 85 8 -19
BITMAP
FF00000000
FF00000000
FF00000000
FF00000000
FF00000000
FF00000000
FF00000000
FF00000000
FF00000000
FF00000000
FF00000000
FF00000000
FF00000000
FF00000000
FF00000000
FF00000000
FF00000000
FF00000000
FF001FF000
FF00FFFC00
FF03FFFF00
FF07FFFF80
FF1FFFFFC0
FF3FFFFFE0
FF7FFFFFF0
FFFFE07FF0
FFFF801FF8
FFFE000FF8
FFFC0007FC
FFF80003FC
FFF00003FE
FFE00003FE
FFC00001FE
FF800001FE
FF000001FE
FF000000FF
FF000000FF
FF000000FF
FF000000FF
FF000000FF
FF000000FF
FF000000FF
FF000000FF
FF000000FF
FF000000FF
FF000000FF
FF000000FF
FF000000FF
FF000001FE
FF000001FE
FF000001FE
FF000003FE
FF000003FC
FF000003FC
FF000007FC
FF00000FF8
FF00001FF8
FF00003FF0
FF80007FE0
FFF803FFC0
FFFFFFFFC0
FFFFFFFF80
FFFFFFFE00
FFFFFFFC00
FFFFFFF000
FFFFFFC000
FF1FFC0000
FF00000000
FF00000000
FF00000000
FF00000000
FF00000000
FF00000000
FF00000000
FF00000000
FF00000000
FF00000000
FF00000000
FF00000000
FF00000000
FF00000000
FF00000000
FF00000000
FF00000000
FF00000000
ENDCHAR
STARTCHAR 00FF
ENCODING 255
SWIDTH 552 0
DWIDTH 53 0
BBX 47 86 2 -20
BITMAP
000F8000F800
001FC001FC00
003FE003FE00
007FF007FF00
007FF007FF00
007FF007FF00
007FF007FF00
007FF007FF00
003FE003FE00
001FC001FC00
000F8000F800
000000000000
000000000000
000000000000
000000000000
000000000000
000000000000
000000000000
000000000000
7FC0000003FE
7FC0000003FE
3FE0000003FE
3FE0000007FC
3FF0000007FC
1FF0000007F8
1FF000000FF8
0FF800000FF8
0FF800001FF0
0FF800001FF0
07FC00001FE0
07FC00003FE0
03FE00003FE0
03FE00003FC0
03FE00007FC0
01FF00007F80
01FF00007F80
00FF8000FF80
00FF8000FF00
00FF8001FF00
007FC001FE00
007FC001FE00
003FE003FE00
003FE003FC00
001FE003FC00
001FF007FC00
001FF007F800
000FF00FF800
000FF80FF000
0007F80FF000
0007FC1FF000
0007FC1FE000
0003FC1FE000
0003FE3FC000
0001FE3FC000
0001FE3FC000
0001FF7F8000
0000FF7F8000
0000FFFF0000
00007FFF0000
00007FFF0000
00007FFE0000
00003FFE0000
00003FFC0000
00001FFC0000
00001FFC0000
00000FF80000
00001FF80000
00001FF00000
00001FF00000
00003FE00000
00007FE00000
00007FC00000
0000FFC00000
0000FF800000
0001FF800000
0003FF000000
0007FE000000
001FFE000000
007FFC000000
FFFFF8000000
FFFFF0000000
FFFFE0000000
FFFF80000000
FFFF00000000
FFFC00000000
FFC000000000
ENDCHAR
STARTCHAR 0100
ENCODING 256
SWIDTH 552 0
DWIDTH 53 0
BBX 51 75 1 0
BITMAP
000FFFFFFC0000
000FFFFFFC0000
000FFFFFFC0000
000FFFFFFC0000
000FFFFFFC0000
000FFFFFFC0000
00000000000000
00000000000000
00000000000000
00000000000000
00000000000000
00000000000000
00000000000000
00000000000000
00000FFF000000
00000FFF000000
00001FFF000000
00001FFF800000
00001FFF800000
00003FFF800000
00003FFFC00000
00003FBFC00000
00007FBFC00000
00007FBFE00000
00007F1FE00000
0000FF1FE00000
0000FF1FF00000
0000FE0FF00000
0001FE0FF00000
0001FE0FF80000
0001FC0FF80000
0003FC07F80000
0003FC07FC0000
0003FC07FC0000
0007F803FC0000
0007F803FE0000
000FF803FE0000
000FF001FE0000
000FF001FF0000
001FF001FF0000
001FE000FF0000
001FE000FF8000
003FE000FF8000
003FC0007F8000
003FC0007FC000
007FC0007FC000
007F80007FC000
007F80003FC000
00FF80003FE000
00FF00003FE000
00FF00001FE000
01FF00001FF000
01FE00001FF000
01FE00000FF000
03FE00000FF800
03FFFFFFFFF800
03FFFFFFFFF800
07FFFFFFFFFC00
07FFFFFFFFFC00
07FFFFFFFFFC00
0FFFFFFFFFFE00
0FFFFFFFFFFE00
0FF0000003FE00
1FF0000001FF00
1FF0000001FF00
1FE0000001FF00
3FE0000000FF80
3FE0000000FF80
3FC0000000FF80
7FC00000007FC0
7FC00000007FC0
7F800000007FC0
FF800000003FE0
FF800000003FE0
FF000000003FE0
ENDCHAR
STARTCHAR 0101
ENCODING 257
SWIDTH 552 0
DWIDTH 53 0
BBX 39 64 6 -1
BITMAP
00FFFFFF80
00FFFFFF80
00FFFFFF80
00FFFFFF80
00FFFFFF80
00FFFFFF80
0000000000
0000000000
0000000000
0000000000
0000000000
0000000000
0000000000
0000000000
0000000000
0003FFC000
007FFFFC00
07FFFFFF00
0FFFFFFFC0
0FFFFFFFE0
0FFFFFFFF0
0FFFFFFFF8
0FFC00FFF8
0F80001FFC
0C00000FFC
00000007FC
00000003FE
00000003FE
00000001FE
00000001FE
00000001FE
00000001FE
00000001FE
00000001FE
00000001FE
00000001FE
0003FFFFFE
003FFFFFFE
00FFFFFFFE
03FFFFFFFE
07FFFFFFFE
0FFFFFFFFE
1FFF0001FE
3FF80001FE
7FF00001FE
7FE00001FE
7FC00001FE
FF800001FE
FF800001FE
FF800001FE
FF800001FE
FF800007FE
FF80000FFE
FFC0001FFE
FFC0007FFE
7FE001FFFE
7FF80FFFFE
3FFFFFFEFE
3FFFFFFCFE
1FFFFFF8FE
0FFFFFE0FE
07FFFFC0FE
01FFFE00FE
003FF00000
ENDCHAR
STARTCHAR 0102
ENCODING 258
SWIDTH 552 0
DWIDTH 53 0
BBX 51 78 1 0
BITMAP
0007E001F80000
0007E001F80000
0007F003F80000
0007F003F80000
0003FC0FF00000
0003FFFFF00000
0001FFFFE00000
0000FFFFC00000
00007FFF800000
00003FFF000000
000007F8000000
00000000000000
00000000000000
00000000000000
00000000000000
00000000000000
00000000000000
00000FFF000000
00000FFF000000
00001FFF000000
00001FFF800000
00001FFF800000
00003FFF800000
00003FFFC00000
00003FBFC00000
00007FBFC00000
00007FBFE00000
00007F1FE00000
0000FF1FE00000
0000FF1FF00000
0000FE0FF00000
0001FE0FF00000
0001FE0FF80000
0001FC0FF80000
0003FC07F80000
0003FC07FC0000
0003FC07FC0000
0007F803FC0000
0007F803FE0000
000FF803FE0000
000FF001FE0000
000FF001FF0000
001FF001FF0000
001FE000FF0000
001FE000FF8000
003FE000FF8000
003FC0007F8000
003FC0007FC000
007FC0007FC000
007F80007FC000
007F80003FC000
00FF80003FE000
00FF00003FE000
00FF00001FE000
01FF00001FF000
01FE00001FF000
01FE00000FF000
03FE00000FF800
03FFFFFFFFF800
03FFFFFFFFF800
07FFFFFFFFFC00
07FFFFFFFFFC00
07FFFFFFFFFC00
0FFFFFFFFFFE00
0FFFFFFFFFFE00
0FF0000003FE00
1FF0000001FF00
1FF0000001FF00
1FE0000001FF00
3FE0000000FF80
3FE0000000FF80
3FC0000000FF80
7FC00000007FC0
7FC00000007FC0
7F800000007FC0
FF800000003FE0
FF800000003FE0
FF000000003FE0
ENDCHAR
STARTCHAR 0103
ENCODING 259
SWIDTH 552 0
DWIDTH 53 0
BBX 39 67 6 -1
BITMAP
007E003F00
007E003F00
007F007F00
007F007F00
003FC1FE00
003FFFFE00
001FFFFC00
000FFFF800
0007FFF000
0003FFE000
00007F0000
0000000000
0000000000
0000000000
0000000000
0000000000
0000000000
0000000000
0003FFC000
007FFFFC00
07FFFFFF00
0FFFFFFFC0
0FFFFFFFE0
0FFFFFFFF0
0FFFFFFFF8
0FFC00FFF8
0F80001FFC
0C00000FFC
00000007FC
00000003FE
00000003FE
00000001FE
00000001FE
00000001FE
00000001FE
00000001FE
00000001FE
00000001FE
00000001FE
0003FFFFFE
003FFFFFFE
00FFFFFFFE
03FFFFFFFE
07FFFFFFFE
0FFFFFFFFE
1FFF0001FE
3FF80001FE
7FF00001FE
7FE00001FE
7FC00001FE
FF800001FE
FF800001FE
FF800001FE
FF800001FE
FF800007FE
FF80000FFE
FFC0001FFE
FFC0007FFE
7FE001FFFE
7FF80FFFFE
3FFFFFFEFE
3FFFFFFCFE
1FFFFFF8FE
0FFFFFE0FE
07FFFFC0FE
01FFFE00FE
003FF00000
ENDCHAR
STARTCHAR 0104
ENCODING 260
SWIDTH 552 0
DWIDTH 53 0
BBX 53 79 1 -18
BITMAP
00000FFF000000
00000FFF000000
00001FFF000000
00001FFF800000
00001FFF800000
00003FFF800000
00003FFFC00000
00003FBFC00000
00007FBFC00000
00007FBFE00000
00007F1FE00000
0000FF1FE00000
0000FF1FF00000
0000FE0FF00000
0001FE0FF00000
0001FE0FF80000
0001FC0FF80000
0003FC07F80000
0003FC07FC0000
0007FC07FC0000
0007F803FC0000
0007F803FE0000
000FF803FE0000
000FF001FE0000
000FF001FF0000
001FF001FF0000
001FE000FF0000
001FE000FF8000
003FE000FF8000
003FC0007F8000
003FC0007FC000
007FC0007FC000
007F80007FC000
007F80003FC000
00FF80003FE000
00FF00003FE000
00FF00001FE000
01FF00001FF000
01FE00001FF000
01FE00000FF000
03FE00000FF800
03FFFFFFFFF800
03FFFFFFFFF800
07FFFFFFFFFC00
07FFFFFFFFFC00
07FFFFFFFFFC00
0FFFFFFFFFFE00
0FFFFFFFFFFE00
0FF0000003FE00
1FF0000001FF00
1FF0000001FF00
1FE0000001FF00
3FE0000000FF80
3FE0000000FF80
3FC0000000FF80
7FC00000007FC0
7FC00000007FC0
7F800000007FC0
FF800000003FE0
FF800000003FE0
FF000000003FE0
00000000003F80
00000000007F00
0000000000FE00
0000000001FE00
0000000003FC00
0000000003F800
0000000007F800
0000000007F800
0000000007F800
0000000007F800
000000000FF800
0000000007F800
0000000007FC00
0000000007FFF8
0000000003FFF8
0000000001FFF8
0000000000FFF8
00000000001FF8
ENDCHAR
STARTCHAR 0105
ENCODING 261
SWIDTH 552 0
DWIDTH 53 0
BBX 41 66 6 -18
BITMAP
0003FFC00000
007FFFFC0000
07FFFFFF0000
0FFFFFFFC000
0FFFFFFFE000
0FFFFFFFF000
0FFFFFFFF800
0FFC00FFF800
0F80001FFC00
0C00000FFC00
00000007FC00
00000003FE00
00000003FE00
00000001FE00
00000001FE00
00000001FE00
00000001FE00
00000001FE00
00000001FE00
00000001FE00
00000001FE00
0003FFFFFE00
003FFFFFFE00
00FFFFFFFE00
03FFFFFFFE00
07FFFFFFFE00
0FFFFFFFFE00
1FFF0001FE00
3FF80001FE00
7FF00001FE00
7FE00001FE00
7FC00001FE00
FF800001FE00
FF800001FE00
FF800001FE00
FF800001FE00
FF800007FE00
FF80000FFE00
FFC0001FFE00
FFC0007FFE00
7FE001FFFE00
7FF80FFFFE00
3FFFFFFEFE00
3FFFFFFCFE00
1FFFFFF0FE00
0FFFFFE0FE00
07FFFF80FE00
01FFFE00FE00
003FF001FE00
00000003FC00
00000007F800
00000007F000
0000000FE000
0000001FE000
0000001FC000
0000003FC000
0000003FC000
0000003FC000
0000003FC000
0000003FE000
0000003FF000
0000001FFF80
0000001FFF80
0000000FFF80
00000007FF80
00000000FF80
ENDCHAR
STARTCHAR 0106
ENCODING 262
SWIDTH 552 0
DWIDTH 53 0
BBX 43 79 4 -1
BITMAP
00000003FFC0
00000007FF80
0000000FFF00
0000001FFC00
0000003FF800
0000007FE000
000000FFC000
000001FF8000
000003FE0000
000007FC0000
000000000000
000000000000
000000000000
000000000000
000000000000
000000000000
000003FFC000
00003FFFFE00
0000FFFFFFC0
0003FFFFFFE0
000FFFFFFFE0
001FFFFFFFE0
003FFFFFFFE0
007FFF003FE0
00FFF80007E0
01FFE00000E0
03FF80000020
07FF00000000
07FE00000000
0FFC00000000
0FF800000000
1FF800000000
1FF000000000
3FF000000000
3FE000000000
3FE000000000
7FE000000000
7FC000000000
7FC000000000
7FC000000000
7FC000000000
FF8000000000
FF8000000000
FF8000000000
FF8000000000
FF8000000000
FF8000000000
FF8000000000
FF8000000000
FF8000000000
FF8000000000
FF8000000000
FF8000000000
FF8000000000
FF8000000000
FFC000000000
7FC000000000
7FC000000000
7FC000000000
7FE000000000
7FE000000000
3FE000000000
3FF000000000
3FF000000000
1FF800000000
1FFC00000000
0FFC00000000
0FFE00000000
07FF80000000
03FFC0000020
03FFF00001E0
01FFFE003FE0
00FFFFFFFFE0
007FFFFFFFE0
001FFFFFFFE0
000FFFFFFFE0
0003FFFFFFE0
00007FFFFF80
000007FFE000
ENDCHAR
STARTCHAR 0107
ENCODING 263
SWIDTH 552 0
DWIDTH 53 0
BBX 39 67 7 -1
BITMAP
0000001FFE
0000003FFC
0000007FF8
000000FFE0
000001FFC0
000003FF80
000007FE00
00000FFC00
00001FF000
00003FE000
00007FC000
0000000000
0000000000
0000000000
0000000000
0000000000
0000000000
0000000000
00001FFE00
0001FFFFE0
0007FFFFF8
001FFFFFF8
007FFFFFF8
00FFFFFFF8
01FFFFFFF8
03FFF803F8
07FFC00078
0FFF000008
0FFE000000
1FFC000000
1FF8000000
3FF0000000
3FF0000000
7FE0000000
7FE0000000
7FC0000000
7FC0000000
FFC0000000
FF80000000
FF80000000
FF80000000
FF80000000
FF80000000
FF80000000
FF80000000
FF80000000
FF80000000
FF80000000
FFC0000000
7FC0000000
7FC0000000
7FC0000000
7FE0000000
3FE0000000
3FF0000000
3FF8000000
1FFC000000
1FFE000008
0FFF800038
07FFF003F8
03FFFFFFF8
01FFFFFFF8
00FFFFFFF8
007FFFFFF8
001FFFFFF8
0003FFFFE0
00003FFC00
ENDCHAR
STARTCHAR 0108
ENCODING 264
SWIDTH 552 0
DWIDTH 53 0
BBX 43 79 4 -1
BITMAP
000007F80000
00000FFE0000
00001FFF0000
00003FFF8000
0000FFFFC000
0001FFBFE000
0003FF1FF000
0007FC0FFC00
000FF803FE00
001FE001FF00
000000000000
000000000000
000000000000
000000000000
000000000000
000000000000
000003FFC000
00003FFFFE00
0000FFFFFFC0
0003FFFFFFE0
000FFFFFFFE0
001FFFFFFFE0
003FFFFFFFE0
007FFF003FE0
00FFF80007E0
01FFE00000E0
03FF80000020
07FF00000000
07FE00000000
0FFC00000000
0FF800000000
1FF800000000
1FF000000000
3FF000000000
3FE000000000
3FE000000000
7FE000000000
7FC000000000
7FC000000000
7FC000000000
7FC000000000
FF8000000000
FF8000000000
FF8000000000
FF8000000000
FF8000000000
FF8000000000
FF8000000000
FF8000000000
FF8000000000
FF8000000000
FF8000000000
FF8000000000
FF8000000000
FF8000000000
FFC000000000
7FC000000000
7FC000000000
7FC000000000
7FE000000000
7FE000000000
3FE000000000
3FF000000000
3FF000000000
1FF800000000
1FFC00000000
0FFC00000000
0FFE00000000
07FF80000000
03FFC0000020
03FFF00001E0
01FFFE003FE0
00FFFFFFFFE0
007FFFFFFFE0
001FFFFFFFE0
000FFFFFFFE0
0003FFFFFFE0
00007FFFFF80
000007FFE000
ENDCHAR
STARTCHAR 0109
ENCODING 265
SWIDTH 552 0
DWIDTH 53 0
BBX 37 67 7 -1
BITMAP
00003FC000
00007FE000
0000FFF000
0003FFF800
0007FFFC00
000FFBFE00
001FF1FF00
003FE0FF80
007F803FC0
00FF001FE0
01FE000FF0
0000000000
0000000000
0000000000
0000000000
0000000000
0000000000
0000000000
00001FFE00
0001FFFFE0
0007FFFFF8
001FFFFFF8
007FFFFFF8
00FFFFFFF8
01FFFFFFF8
03FFF803F8
07FFC00078
0FFF000008
0FFE000000
1FFC000000
1FF8000000
3FF0000000
3FF0000000
7FE0000000
7FE0000000
7FC0000000
7FC0000000
FFC0000000
FF80000000
FF80000000
FF80000000
FF80000000
FF80000000
FF80000000
FF80000000
FF80000000
FF80000000
FF80000000
FFC0000000
7FC0000000
7FC0000000
7FC0000000
7FE0000000
3FE0000000
3FF0000000
3FF8000000
1FFC000000
1FFE000008
0FFF800038
07FFF003F8
03FFFFFFF8
01FFFFFFF8
00FFFFFFF8
007FFFFFF8
001FFFFFF8
0003FFFFE0
00003FFC00
ENDCHAR
STARTCHAR 010A
ENCODING 266
SWIDTH 552 0
DWIDTH 53 0
BBX 43 80 4 -1
BITMAP
000001E00000
000007F80000
00000FFC0000
00000FFC0000
00001FFE0000
00001FFE0000
00001FFE0000
00001FFE0000
00000FFC0000
00000FFC0000
000007F80000
000001E00000
000000000000
000000000000
000000000000
000000000000
000000000000
000003FFC000
00003FFFFE00
0000FFFFFFC0
0003FFFFFFE0
000FFFFFFFE0
001FFFFFFFE0
003FFFFFFFE0
007FFF003FE0
00FFF80007E0
01FFE00000E0
03FF80000020
07FF00000000
07FE00000000
0FFC00000000
0FF800000000
1FF800000000
1FF000000000
3FF000000000
3FE000000000
3FE000000000
7FE000000000
7FC000000000
7FC000000000
7FC000000000
7FC000000000
FF8000000000
FF8000000000
FF8000000000
FF8000000000
FF8000000000
FF8000000000
FF8000000000
FF8000000000
FF8000000000
FF8000000000
FF8000000000
FF8000000000
FF8000000000
FF8000000000
FFC000000000
7FC000000000
7FC000000000
7FC000000000
7FE000000000
7FE000000000
3FE000000000
3FF000000000
3FF000000000
1FF800000000
1FFC00000000
0FFC00000000
0FFE00000000
07FF80000000
03FFC0000020
03FFF00001E0
01FFFE003FE0
00FFFFFFFFE0
007FFFFFFFE0
001FFFFFFFE0
000FFFFFFFE0
0003FFFFFFE0
00007FFFFF80
000007FFE000
ENDCHAR
STARTCHAR 010B
ENCODING 267
SWIDTH 552 0
DWIDTH 53 0
BBX 37 67 7 -1
BITMAP
00001E0000
00007F8000
0000FFC000
0000FFC000
0001FFE000
0001FFE000
0001FFE000
0001FFE000
0000FFC000
0000FFC000
00007F8000
00001E0000
0000000000
0000000000
0000000000
0000000000
0000000000
0000000000
00001FFE00
0001FFFFE0
0007FFFFF8
001FFFFFF8
007FFFFFF8
00FFFFFFF8
01FFFFFFF8
03FFF803F8
07FFC00078
0FFF000008
0FFE000000
1FFC000000
1FF8000000
3FF0000000
3FF0000000
7FE0000000
7FE0000000
7FC0000000
7FC0000000
FFC0000000
FF80000000
FF80000000
FF80000000
FF80000000
FF80000000
FF80000000
FF80000000
FF80000000
FF80000000
FF80000000
FFC0000000
7FC0000000
7FC0000000
7FC0000000
7FE0000000
3FE0000000
3FF0000000
3FF8000000
1FFC000000
1FFE000008
0FFF800038
07FFF003F8
03FFFFFFF8
01FFFFFFF8
00FFFFFFF8
007FFFFFF8
001FFFFFF8
0003FFFFE0
00003FFC00
ENDCHAR
STARTCHAR 010C
ENCODING 268
SWIDTH 552 0
DWIDTH 53 0
BBX 43 79 4 -1
BITMAP
001FF000FF00
000FF803FE00
0007FE07FC00
0001FF1FF800
0000FFBFF000
00007FFFE000
00003FFF8000
00001FFF0000
00000FFE0000
000003FC0000
000000000000
000000000000
000000000000
000000000000
000000000000
000000000000
000003FFC000
00003FFFFE00
0000FFFFFFC0
0003FFFFFFE0
000FFFFFFFE0
001FFFFFFFE0
003FFFFFFFE0
007FFF003FE0
00FFF80007E0
01FFE00000E0
03FF80000020
07FF00000000
07FE00000000
0FFC00000000
0FF800000000
1FF800000000
1FF000000000
3FF000000000
3FE000000000
3FE000000000
7FE000000000
7FC000000000
7FC000000000
7FC000000000
7FC000000000
FF8000000000
FF8000000000
FF8000000000
FF8000000000
FF8000000000
FF8000000000
FF8000000000
FF8000000000
FF8000000000
FF8000000000
FF8000000000
FF8000000000
FF8000000000
FF8000000000
FFC000000000
7FC000000000
7FC000000000
7FC000000000
7FE000000000
7FE000000000
3FE000000000
3FF000000000
3FF000000000
1FF800000000
1FFC00000000
0FFC00000000
0FFE00000000
07FF80000000
03FFC0000020
03FFF00001E0
01FFFE003FE0
00FFFFFFFFE0
007FFFFFFFE0
001FFFFFFFE0
000FFFFFFFE0
0003FFFFFFE0
00007FFFFF80
000007FFE000
ENDCHAR
STARTCHAR 010D
ENCODING 269
SWIDTH 552 0
DWIDTH 53 0
BBX 37 67 7 -1
BITMAP
00FF0007F8
007F800FF0
003FE03FE0
001FF07FC0
000FF8FF80
0007FFFE00
0001FFFC00
0000FFF800
00007FF000
00003FE000
00001FC000
0000000000
0000000000
0000000000
0000000000
0000000000
0000000000
0000000000
00001FFE00
0001FFFFE0
0007FFFFF8
001FFFFFF8
007FFFFFF8
00FFFFFFF8
01FFFFFFF8
03FFF803F8
07FFC00078
0FFF000008
0FFE000000
1FFC000000
1FF8000000
3FF0000000
3FF0000000
7FE0000000
7FE0000000
7FC0000000
7FC0000000
FFC0000000
FF80000000
FF80000000
FF80000000
FF80000000
FF80000000
FF80000000
FF80000000
FF80000000
FF80000000
FF80000000
FFC0000000
7FC0000000
7FC0000000
7FC0000000
7FE0000000
3FE0000000
3FF0000000
3FF8000000
1FFC000000
1FFE000008
0FFF800038
07FFF003F8
03FFFFFFF8
01FFFFFFF8
00FFFFFFF8
007FFFFFF8
001FFFFFF8
0003FFFFE0
00003FFC00
ENDCHAR
STARTCHAR 010E
ENCODING 270
SWIDTH 552 0
DWIDTH 53 0
BBX 44 78 5 0
BITMAP
07FC003FC000
03FE00FF8000
01FF81FF0000
007FC7FE0000
003FEFFC0000
001FFFF80000
000FFFE00000
0007FFC00000
0003FF800000
0000FF000000
000000000000
000000000000
000000000000
000000000000
000000000000
000000000000
000000000000
FFFFFE000000
FFFFFFE00000
FFFFFFFC0000
FFFFFFFF0000
FFFFFFFFC000
FFFFFFFFE000
FFFFFFFFF000
FF0007FFF800
FF00007FFC00
FF00001FFE00
FF00000FFE00
FF000007FF00
FF000003FF80
FF000001FF80
FF000000FF80
FF000000FFC0
FF0000007FC0
FF0000007FC0
FF0000007FE0
FF0000003FE0
FF0000003FE0
FF0000003FE0
FF0000003FF0
FF0000001FF0
FF0000001FF0
FF0000001FF0
FF0000001FF0
FF0000001FF0
FF0000001FF0
FF0000001FF0
FF0000001FF0
FF0000001FF0
FF0000001FF0
FF0000001FF0
FF0000001FF0
FF0000001FF0
FF0000001FF0
FF0000003FE0
FF0000003FE0
FF0000003FE0
FF0000003FE0
FF0000007FE0
FF0000007FC0
FF0000007FC0
FF000000FFC0
FF000000FF80
FF000001FF80
FF000003FF00
FF000007FF00
FF00000FFE00
FF00001FFC00
FF00003FFC00
FF0001FFF800
FF000FFFF000
FFFFFFFFE000
FFFFFFFF8000
FFFFFFFF0000
FFFFFFFC0000
FFFFFFF00000
FFFFFF800000
FFFFF0000000
ENDCHAR
STARTCHAR 010F
ENCODING 271
SWIDTH 552 0
DWIDTH 53 0
BBX 54 70 3 -1
BITMAP
000000000003FC
000000000003F8
000000000007F8
00000000FF07F8
00000000FF07F0
00000000FF0FF0
00000000FF0FF0
00000000FF0FE0
00000000FF0FE0
00000000FF1FE0
00000000FF1FC0
00000000FF1FC0
00000000FF3FC0
00000000FF3F80
00000000FF0000
00000000FF0000
00000000FF0000
00000000FF0000
00000000FF0000
00000000FF0000
00000000FF0000
00003FF8FF0000
0003FFFFFF0000
000FFFFFFF0000
003FFFFFFF0000
007FFFFFFF0000
01FFFFFFFF0000
03FFFFFFFF0000
03FFC01FFF0000
07FF0001FF0000
0FFC0000FF0000
1FF80000FF0000
1FF00000FF0000
3FE00000FF0000
3FC00000FF0000
3FC00000FF0000
7F800000FF0000
7F800000FF0000
7F800000FF0000
7F800000FF0000
FF000000FF0000
FF000000FF0000
FF000000FF0000
FF000000FF0000
FF000000FF0000
FF000000FF0000
FF000000FF0000
FF000000FF0000
FF000000FF0000
FF000000FF0000
FF000000FF0000
FF000000FF0000
FF000000FF0000
FF800001FF0000
7F800003FF0000
7F800007FF0000
7F80000FFF0000
7FC0001FFF0000
3FC0001FFF0000
3FE0007FFF0000
3FF000FF7F0000
1FF801FF7F0000
1FFE07FE7F0000
0FFFFFFC7F0000
07FFFFF87F0000
03FFFFF07F0000
01FFFFE07F0000
00FFFF807F0000
003FFE007F0000
000FF000000000
ENDCHAR
STARTCHAR 0110
ENCODING 272
SWIDTH 552 0
DWIDTH 53 0
BBX 50 61 0 0
BITMAP
01FFFFF8000000
01FFFFFF800000
01FFFFFFF00000
01FFFFFFFC0000
01FFFFFFFF0000
01FFFFFFFF8000
01FFFFFFFFC000
01FE001FFFE000
01FE0001FFF000
01FE00007FF800
01FE00003FFC00
01FE00000FFC00
01FE00000FFE00
01FE000007FE00
01FE000003FF00
01FE000003FF00
01FE000001FF00
01FE000001FF80
01FE000000FF80
01FE000000FF80
01FE000000FF80
01FE000000FF80
01FE000000FFC0
01FE0000007FC0
01FE0000007FC0
01FE0000007FC0
FFFFFFC0007FC0
FFFFFFC0007FC0
FFFFFFC0007FC0
FFFFFFC0007FC0
FFFFFFC0007FC0
FFFFFFC0007FC0
FFFFFFC0007FC0
01FE0000007FC0
01FE0000007FC0
01FE0000007FC0
01FE0000007FC0
01FE000000FF80
01FE000000FF80
01FE000000FF80
01FE000000FF80
01FE000001FF80
01FE000001FF00
01FE000001FF00
01FE000003FF00
01FE000003FE00
01FE000007FE00
01FE00000FFC00
01FE00000FFC00
01FE00001FF800
01FE00007FF800
01FE0000FFF000
01FE0003FFE000
01FE003FFFC000
01FFFFFFFF8000
01FFFFFFFF0000
01FFFFFFFC0000
01FFFFFFF00000
01FFFFFFC00000
01FFFFFE000000
01FFFFC0000000
ENDCHAR
STARTCHAR 0111
ENCODING 273
SWIDTH 552 0
DWIDTH 53 0
BBX 48 67 5 -1
BITMAP
00000001FE00
00000001FE00
00000001FE00
00000001FE00
00000001FE00
00003FFFFFFF
00003FFFFFFF
00003FFFFFFF
00003FFFFFFF
00003FFFFFFF
00003FFFFFFF
00003FFFFFFF
00000001FE00
00000001FE00
00000001FE00
00000001FE00
00000001FE00
00000001FE00
00007FF1FE00
0003FFFFFE00
001FFFFFFE00
003FFFFFFE00
00FFFFFFFE00
01FFFFFFFE00
03FFFFFFFE00
07FFC01FFE00
07FE0003FE00
0FF80001FE00
1FF00001FE00
1FE00001FE00
3FE00001FE00
3FC00001FE00
3FC00001FE00
7F800001FE00
7F800001FE00
7F800001FE00
7F800001FE00
FF000001FE00
FF000001FE00
FF000001FE00
FF000001FE00
FF000001FE00
FF000001FE00
FF000001FE00
FF000001FE00
FF000001FE00
FF000001FE00
FF000001FE00
FF000001FE00
FF000001FE00
FF800003FE00
7F800007FE00
7F80000FFE00
7F80001FFE00
7FC0001FFE00
3FC0003FFE00
3FE0007FFE00
3FF001FEFE00
1FF803FEFE00
1FFC0FFCFE00
0FFFFFF8FE00
07FFFFF0FE00
07FFFFE0FE00
03FFFFC0FE00
00FFFF00FE00
007FFE00FE00
000FF0000000
ENDCHAR
STARTCHAR 0112
ENCODING 274
SWIDTH 552 0
DWIDTH 53 0
BBX 35 75 9 0
BITMAP
0FFFFFFC00
0FFFFFFC00
0FFFFFFC00
0FFFFFFC00
0FFFFFFC00
0FFFFFFC00
0000000000
0000000000
0000000000
0000000000
0000000000
0000000000
0000000000
0000000000
FFFFFFFFE0
FFFFFFFFE0
FFFFFFFFE0
FFFFFFFFE0
FFFFFFFFE0
FFFFFFFFE0
FFFFFFFFE0
FF00000000
FF00000000
FF00000000
FF00000000
FF00000000
FF00000000
FF00000000
FF00000000
FF00000000
FF00000000
FF00000000
FF00000000
FF00000000
FF00000000
FF00000000
FF00000000
FF00000000
FF00000000
FF00000000
FFFFFFFFC0
FFFFFFFFC0
FFFFFFFFC0
FFFFFFFFC0
FFFFFFFFC0
FFFFFFFFC0
FFFFFFFFC0
FF00000000
FF00000000
FF00000000
FF00000000
FF00000000
FF00000000
FF00000000
FF00000000
FF00000000
FF00000000
FF00000000
FF00000000
FF00000000
FF00000000
FF00000000
FF00000000
FF00000000
FF00000000
FF00000000
FF00000000
FF00000000
FFFFFFFFE0
FFFFFFFFE0
FFFFFFFFE0
FFFFFFFFE0
FFFFFFFFE0
FFFFFFFFE0
FFFFFFFFE0
ENDCHAR
STARTCHAR 0113
ENCODING 275
SWIDTH 552 0
DWIDTH 53 0
BBX 41 64 5 -1
BITMAP
007FFFFFC000
007FFFFFC000
007FFFFFC000
007FFFFFC000
007FFFFFC000
007FFFFFC000
000000000000
000000000000
000000000000
000000000000
000000000000
000000000000
000000000000
000000000000
000000000000
0000FFC00000
0007FFF80000
001FFFFE0000
003FFFFF8000
00FFFFFFC000
01FFFFFFE000
03FFFFFFF000
07FFC07FF800
07FF001FFC00
0FFC0007FC00
1FF80003FE00
1FF00001FE00
3FF00001FF00
3FE00000FF00
3FE00000FF00
7FC00000FF00
7FC000007F80
7FC000007F80
7F8000007F80
FF8000007F80
FF8000007F80
FFFFFFFFFF80
FFFFFFFFFF80
FFFFFFFFFF80
FFFFFFFFFF80
FFFFFFFFFF80
FFFFFFFFFF80
FF8000000000
FF8000000000
FF8000000000
FF8000000000
7F8000000000
7FC000000000
7FC000000000
7FC000000000
7FE000000000
3FF000000000
3FF000000000
1FF800000000
1FFE00000000
0FFF00000600
07FFE001FE00
07FFFFFFFE00
03FFFFFFFE00
01FFFFFFFE00
007FFFFFFE00
001FFFFFFE00
0007FFFFF800
00007FFE0000
ENDCHAR
STARTCHAR 0114
ENCODING 276
SWIDTH 552 0
DWIDTH 53 0
BBX 35 78 9 0
BITMAP
07E001F800
07E001F800
07F003F800
07F003F800
03FC0FF000
03FFFFF000
01FFFFE000
00FFFFC000
007FFF8000
003FFF0000
0007F80000
0000000000
0000000000
0000000000
0000000000
0000000000
0000000000
FFFFFFFFE0
FFFFFFFFE0
FFFFFFFFE0
FFFFFFFFE0
FFFFFFFFE0
FFFFFFFFE0
FFFFFFFFE0
FF00000000
FF00000000
FF00000000
FF00000000
FF00000000
FF00000000
FF00000000
FF00000000
FF00000000
FF00000000
FF00000000
FF00000000
FF00000000
FF00000000
FF00000000
FF00000000
FF00000000
FF00000000
FF00000000
FFFFFFFFC0
FFFFFFFFC0
FFFFFFFFC0
FFFFFFFFC0
FFFFFFFFC0
FFFFFFFFC0
FFFFFFFFC0
FF00000000
FF00000000
FF00000000
FF00000000
FF00000000
FF00000000
FF00000000
FF00000000
FF00000000
FF00000000
FF00000000
FF00000000
FF00000000
FF00000000
FF00000000
FF00000000
FF00000000
FF00000000
FF00000000
FF00000000
FF00000000
FFFFFFFFE0
FFFFFFFFE0
FFFFFFFFE0
FFFFFFFFE0
FFFFFFFFE0
FFFFFFFFE0
FFFFFFFFE0
ENDCHAR
STARTCHAR 0115
ENCODING 277
SWIDTH 552 0
DWIDTH 53 0
BBX 41 67 5 -1
BITMAP
003F001F8000
003F001F8000
003F803F8000
003F803F8000
001FE0FF0000
001FFFFF0000
000FFFFE0000
0007FFFC0000
0003FFF80000
0001FFF00000
00003F800000
000000000000
000000000000
000000000000
000000000000
000000000000
000000000000
000000000000
0000FFC00000
0007FFF80000
001FFFFE0000
003FFFFF8000
00FFFFFFC000
01FFFFFFE000
03FFFFFFF000
07FFC07FF800
07FF001FFC00
0FFC0007FC00
1FF80003FE00
1FF00001FE00
3FF00001FF00
3FE00000FF00
3FE00000FF00
7FC00000FF00
7FC000007F80
7FC000007F80
7F8000007F80
FF8000007F80
FF8000007F80
FFFFFFFFFF80
FFFFFFFFFF80
FFFFFFFFFF80
FFFFFFFFFF80
FFFFFFFFFF80
FFFFFFFFFF80
FF8000000000
FF8000000000
FF8000000000
FF8000000000
7F8000000000
7FC000000000
7FC000000000
7FC000000000
7FE000000000
3FF000000000
3FF000000000
1FF800000000
1FFE00000000
0FFF00000600
07FFE001FE00
07FFFFFFFE00
03FFFFFFFE00
01FFFFFFFE00
007FFFFFFE00
001FFFFFFE00
0007FFFFF800
00007FFE0000
ENDCHAR
STARTCHAR 0116
ENCODING 278
SWIDTH 552 0
DWIDTH 53 0
BBX 35 79 9 0
BITMAP
0001E00000
0007F80000
000FFC0000
000FFC0000
001FFE0000
001FFE0000
001FFE0000
001FFE0000
000FFC0000
000FFC0000
0007F80000
0001E00000
0000000000
0000000000
0000000000
0000000000
0000000000
0000000000
FFFFFFFFE0
FFFFFFFFE0
FFFFFFFFE0
FFFFFFFFE0
FFFFFFFFE0
FFFFFFFFE0
FFFFFFFFE0
FF00000000
FF00000000
FF00000000
FF00000000
FF00000000
FF00000000
FF00000000
FF00000000
FF00000000
FF00000000
FF00000000
FF00000000
FF00000000
FF00000000
FF00000000
FF00000000
FF00000000
FF00000000
FF00000000
FFFFFFFFC0
FFFFFFFFC0
FFFFFFFFC0
FFFFFFFFC0
FFFFFFFFC0
FFFFFFFFC0
FFFFFFFFC0
FF00000000
FF00000000
FF00000000
FF00000000
FF00000000
FF00000000
FF00000000
FF00000000
FF00000000
FF00000000
FF00000000
FF00000000
FF00000000
FF00000000
FF00000000
FF00000000
FF00000000
FF00000000
FF00000000
FF00000000
FF00000000
FFFFFFFFE0
FFFFFFFFE0
FFFFFFFFE0
FFFFFFFFE0
FFFFFFFFE0
FFFFFFFFE0
FFFFFFFFE0
ENDCHAR
STARTCHAR 0117
ENCODING 279
SWIDTH 552 0
DWIDTH 53 0
BBX 41 67 5 -1
BITMAP
00001E000000
00007F800000
0000FFC00000
0000FFC00000
0001FFE00000
0001FFE00000
0001FFE00000
0001FFE00000
0000FFC00000
0000FFC00000
00007F800000
00001E000000
000000000000
000000000000
000000000000
000000000000
000000000000
000000000000
0000FFC00000
0007FFF80000
001FFFFE0000
003FFFFF8000
00FFFFFFC000
01FFFFFFE000
03FFFFFFF000
07FFC07FF800
07FF001FFC00
0FFC0007FC00
1FF80003FE00
1FF00001FE00
3FF00001FF00
3FE00000FF00
3FE00000FF00
7FC00000FF00
7FC000007F80
7FC000007F80
7F8000007F80
FF8000007F80
FF8000007F80
FFFFFFFFFF80
FFFFFFFFFF80
FFFFFFFFFF80
FFFFFFFFFF80
FFFFFFFFFF80
FFFFFFFFFF80
FF8000000000
FF8000000000
FF8000000000
FF8000000000
7F8000000000
7FC000000000
7FC000000000
7FC000000000
7FE000000000
3FF000000000
3FF000000000
1FF800000000
1FFE00000000
0FFF00000600
07FFE001FE00
07FFFFFFFE00
03FFFFFFFE00
01FFFFFFFE00
007FFFFFFE00
001FFFFFFE00
0007FFFFF800
00007FFE0000
ENDCHAR
STARTCHAR 0118
ENCODING 280
SWIDTH 552 0
DWIDTH 53 0
BBX 38 79 9 -18
BITMAP
FFFFFFFFE0
FFFFFFFFE0
FFFFFFFFE0
FFFFFFFFE0
FFFFFFFFE0
FFFFFFFFE0
FFFFFFFFE0
FF00000000
FF00000000
FF00000000
FF00000000
FF00000000
FF00000000
FF00000000
FF00000000
FF00000000
FF00000000
FF00000000
FF00000000
FF00000000
FF00000000
FF00000000
FF00000000
FF00000000
FF00000000
FF00000000
FFFFFFFFC0
FFFFFFFFC0
FFFFFFFFC0
FFFFFFFFC0
FFFFFFFFC0
FFFFFFFFC0
FFFFFFFFC0
FF00000000
FF00000000
FF00000000
FF00000000
FF00000000
FF00000000
FF00000000
FF00000000
FF00000000
FF00000000
FF00000000
FF00000000
FF00000000
FF00000000
FF00000000
FF00000000
FF00000000
FF00000000
FF00000000
FF00000000
FF00000000
FFFFFFFFE0
FFFFFFFFE0
FFFFFFFFE0
FFFFFFFFE0
FFFFFFFFE0
FFFFFFFFE0
FFFFFFFFE0
0000001FE0
0000003FC0
0000003F80
0000007F00
000000FE00
000001FE00
000001FC00
000003FC00
000003FC00
000003FC00
000003FC00
000003FE00
000003FF00
000001FFFC
000001FFFC
000000FFFC
0000003FFC
0000000FFC
ENDCHAR
STARTCHAR 0119
ENCODING 281
SWIDTH 552 0
DWIDTH 53 0
BBX 41 66 5 -18
BITMAP
0000FFC00000
0007FFF80000
001FFFFE0000
003FFFFF8000
00FFFFFFC000
01FFFFFFE000
03FFFFFFF000
07FFC07FF800
07FF001FFC00
0FFC0007FC00
1FF80003FE00
1FF00001FE00
3FF00001FF00
3FE00000FF00
3FE00000FF00
7FC00000FF00
7FC000007F80
7FC000007F80
7F8000007F80
FF8000007F80
FF8000007F80
FFFFFFFFFF80
FFFFFFFFFF80
FFFFFFFFFF80
FFFFFFFFFF80
FFFFFFFFFF80
FFFFFFFFFF80
FF8000000000
FF8000000000
FF8000000000
FF8000000000
7F8000000000
7FC000000000
7FC000000000
7FC000000000
7FE000000000
3FF000000000
3FF000000000
1FF800000000
1FFE00000000
0FFF00000600
07FFE001FE00
07FFFFFFFE00
03FFFFFFFE00
01FFFFFFFE00
007FFFFFFE00
001FFFFFFE00
0007FFFFF800
00007FFF8000
0000007F0000
000000FE0000
000001FE0000
000001FC0000
000003FC0000
000003F80000
000007F80000
000007F80000
000007F80000
000007F80000
000007FC0000
000007FE0000
000003FFF800
000003FFF800
000001FFF800
0000007FF800
0000001FF800
ENDCHAR
STARTCHAR 011A
ENCODING 282
SWIDTH 552 0
DWIDTH 53 0
BBX 35 78 9 0
BITMAP
1FF000FF00
0FF803FE00
07FE07FC00
01FF1FF800
00FFBFF000
007FFFE000
003FFF8000
001FFF0000
000FFE0000
0003FC0000
0000000000
0000000000
0000000000
0000000000
0000000000
0000000000
0000000000
FFFFFFFFE0
FFFFFFFFE0
FFFFFFFFE0
FFFFFFFFE0
FFFFFFFFE0
FFFFFFFFE0
FFFFFFFFE0
FF00000000
FF00000000
FF00000000
FF00000000
FF00000000
FF00000000
FF00000000
FF00000000
FF00000000
FF00000000
FF00000000
FF00000000
FF00000000
FF00000000
FF00000000
FF00000000
FF00000000
FF00000000
FF00000000
FFFFFFFFC0
FFFFFFFFC0
FFFFFFFFC0
FFFFFFFFC0
FFFFFFFFC0
FFFFFFFFC0
FFFFFFFFC0
FF00000000
FF00000000
FF00000000
FF00000000
FF00000000
FF00000000
FF00000000
FF00000000
FF00000000
FF00000000
FF00000000
FF00000000
FF00000000
FF00000000
FF00000000
FF00000000
FF00000000
FF00000000
FF00000000
FF00000000
FF00000000
FFFFFFFFE0
FFFFFFFFE0
FFFFFFFFE0
FFFFFFFFE0
FFFFFFFFE0
FFFFFFFFE0
FFFFFFFFE0
ENDCHAR
STARTCHAR 011B
ENCODING 283
SWIDTH 552 0
DWIDTH 53 0
BBX 41 67 5 -1
BITMAP
01FE000FF000
00FF001FE000
007FC07FC000
003FE0FF8000
001FF1FF0000
000FFFFC0000
0003FFF80000
0001FFF00000
0000FFE00000
00007FC00000
00003F800000
000000000000
000000000000
000000000000
000000000000
000000000000
000000000000
000000000000
0000FFC00000
0007FFF80000
001FFFFE0000
003FFFFF8000
00FFFFFFC000
01FFFFFFE000
03FFFFFFF000
07FFC07FF800
07FF001FFC00
0FFC0007FC00
1FF80003FE00
1FF00001FE00
3FF00001FF00
3FE00000FF00
3FE00000FF00
7FC00000FF00
7FC000007F80
7FC000007F80
7F8000007F80
FF8000007F80
FF8000007F80
FFFFFFFFFF80
FFFFFFFFFF80
FFFFFFFFFF80
FFFFFFFFFF80
FFFFFFFFFF80
FFFFFFFFFF80
FF8000000000
FF8000000000
FF8000000000
FF8000000000
7F8000000000
7FC000000000
7FC000000000
7FC000000000
7FE000000000
3FF000000000
3FF000000000
1FF800000000
1FFE00000000
0FFF00000600
07FFE001FE00
07FFFFFFFE00
03FFFFFFFE00
01FFFFFFFE00
007FFFFFFE00
001FFFFFFE00
0007FFFFF800
00007FFE0000
ENDCHAR
STARTCHAR 011C
ENCODING 284
SWIDTH 552 0
DWIDTH 53 0
BBX 44 79 3 -1
BITMAP
000003FC0000
000007FF0000
00000FFF8000
00001FFFC000
00007FFFE000
0000FFDFF000
0001FF8FF800
0003FE07FE00
0007FC01FF00
000FF000FF80
000000000000
000000000000
000000000000
000000000000
000000000000
000000000000
000001FFE000
00001FFFFE00
0000FFFFFF80
0003FFFFFFE0
0007FFFFFFF0
001FFFFFFFF0
003FFFFFFFF0
007FFFFFFFF0
00FFFF001FF0
01FFF80003F0
03FFE0000070
03FFC0000010
07FF00000000
0FFE00000000
0FFC00000000
1FFC00000000
1FF800000000
1FF000000000
3FF000000000
3FE000000000
7FE000000000
7FE000000000
7FC000000000
7FC000000000
7FC000000000
FFC000000000
FF8000000000
FF8000000000
FF8001FFFFF0
FF8001FFFFF0
FF8001FFFFF0
FF8001FFFFF0
FF8001FFFFF0
FF8001FFFFF0
FF8001FFFFF0
FF8000000FF0
FF8000000FF0
FF8000000FF0
FF8000000FF0
FFC000000FF0
7FC000000FF0
7FC000000FF0
7FC000000FF0
7FC000000FF0
3FE000000FF0
3FE000000FF0
3FF000000FF0
1FF000000FF0
1FF800000FF0
1FF800000FF0
0FFC00000FF0
07FE00000FF0
07FF00000FF0
03FFC0000FF0
01FFF0000FF0
00FFFE007FF0
007FFFFFFFF0
003FFFFFFFF0
001FFFFFFFF0
0007FFFFFFF0
0003FFFFFF80
00007FFFFC00
000007FF8000
ENDCHAR
STARTCHAR 011D
ENCODING 285
SWIDTH 552 0
DWIDTH 53 0
BBX 45 86 4 -20
BITMAP
00001FE00000
00003FF00000
00007FF80000
0001FFFC0000
0003FFFE0000
0007FDFF0000
000FF8FF8000
001FF07FC000
003FC01FE000
007F800FF000
00FF0007F800
000000000000
000000000000
000000000000
000000000000
000000000000
000000000000
000000000000
00007FC00000
0007FFFFFFF8
001FFFFFFFF8
007FFFFFFFF8
00FFFFFFFFF8
01FFFFFFFFF8
03FFC07FFFF8
07FF001FFFF8
07FC0007FC00
0FF80003FC00
0FF80003FE00
0FF00001FE00
1FF00001FF00
1FE00000FF00
1FE00000FF00
1FE00000FF00
1FE00000FF00
1FE00000FF00
1FE00000FF00
1FF00001FF00
0FF00001FE00
0FF00003FE00
0FF80003FE00
07FC0007FC00
07FF001FFC00
03FFC07FF800
03FFFFFFF000
03FFFFFFE000
07FFFFFFC000
0FFFFFFF0000
0FE7FFFC0000
1FE07FE00000
1FC000000000
3FC000000000
3FC000000000
3FC000000000
3FC000000000
3FE000000000
3FF000000000
3FFFC0000000
1FFFFFFFC000
0FFFFFFFF800
0FFFFFFFFE00
03FFFFFFFF80
03FFFFFFFFC0
07FFFFFFFFE0
0FFC1FFFFFF0
1FF80001FFF0
3FF000003FF0
7FE000001FF8
7FC000000FF8
7FC000000FF8
FF8000000FF8
FF8000000FF8
FF8000000FF8
FF8000001FF8
FF8000001FF0
FFC000003FF0
FFE000007FE0
7FF80001FFE0
7FFF000FFFC0
3FFFFFFFFF80
1FFFFFFFFF00
0FFFFFFFFE00
07FFFFFFF800
01FFFFFFE000
003FFFFF8000
0003FFF00000
ENDCHAR
STARTCHAR 011E
ENCODING 286
SWIDTH 552 0
DWIDTH 53 0
BBX 44 79 3 -1
BITMAP
0003F000FC00
0003F000FC00
0003F801FC00
0003F801FC00
0001FE07F800
0001FFFFF800
0000FFFFF000
00007FFFE000
00003FFFC000
00001FFF8000
000003FC0000
000000000000
000000000000
000000000000
000000000000
000000000000
000001FFE000
00001FFFFE00
0000FFFFFF80
0003FFFFFFE0
0007FFFFFFF0
001FFFFFFFF0
003FFFFFFFF0
007FFFFFFFF0
00FFFF001FF0
01FFF80003F0
03FFE0000070
03FFC0000010
07FF00000000
0FFE00000000
0FFC00000000
1FFC00000000
1FF800000000
1FF000000000
3FF000000000
3FE000000000
7FE000000000
7FE000000000
7FC000000000
7FC000000000
7FC000000000
FFC000000000
FF8000000000
FF8000000000
FF8001FFFFF0
FF8001FFFFF0
FF8001FFFFF0
FF8001FFFFF0
FF8001FFFFF0
FF8001FFFFF0
FF8001FFFFF0
FF8000000FF0
FF8000000FF0
FF8000000FF0
FF8000000FF0
FFC000000FF0
7FC000000FF0
7FC000000FF0
7FC000000FF0
7FC000000FF0
3FE000000FF0
3FE000000FF0
3FF000000FF0
1FF000000FF0
1FF800000FF0
1FF800000FF0
0FFC00000FF0
07FE00000FF0
07FF00000FF0
03FFC0000FF0
01FFF0000FF0
00FFFE007FF0
007FFFFFFFF0
003FFFFFFFF0
001FFFFFFFF0
0007FFFFFFF0
0003FFFFFF80
00007FFFFC00
000007FF8000
ENDCHAR
STARTCHAR 011F
ENCODING 287
SWIDTH 552 0
DWIDTH 53 0
BBX 45 86 4 -20
BITMAP
001F800FC000
001F800FC000
001FC01FC000
001FC01FC000
000FF07F8000
000FFFFF8000
0007FFFF0000
0003FFFE0000
0001FFFC0000
0000FFF80000
00001FC00000
000000000000
000000000000
000000000000
000000000000
000000000000
000000000000
000000000000
00007FC00000
0007FFFFFFF8
001FFFFFFFF8
007FFFFFFFF8
00FFFFFFFFF8
01FFFFFFFFF8
03FFC07FFFF8
07FF001FFFF8
07FC0007FC00
0FF80003FC00
0FF80003FE00
0FF00001FE00
1FF00001FF00
1FE00000FF00
1FE00000FF00
1FE00000FF00
1FE00000FF00
1FE00000FF00
1FE00000FF00
1FF00001FF00
0FF00001FE00
0FF00003FE00
0FF80003FE00
07FC0007FC00
07FF001FFC00
03FFC07FF800
03FFFFFFF000
03FFFFFFE000
07FFFFFFC000
0FFFFFFF0000
0FE7FFFC0000
1FE07FE00000
1FC000000000
3FC000000000
3FC000000000
3FC000000000
3FC000000000
3FE000000000
3FF000000000
3FFFC0000000
1FFFFFFFC000
0FFFFFFFF800
0FFFFFFFFE00
03FFFFFFFF80
03FFFFFFFFC0
07FFFFFFFFE0
0FFC1FFFFFF0
1FF80001FFF0
3FF000003FF0
7FE000001FF8
7FC000000FF8
7FC000000FF8
FF8000000FF8
FF8000000FF8
FF8000000FF8
FF8000001FF8
FF8000001FF0
FFC000003FF0
FFE000007FE0
7FF80001FFE0
7FFF000FFFC0
3FFFFFFFFF80
1FFFFFFFFF00
0FFFFFFFFE00
07FFFFFFF800
01FFFFFFE000
003FFFFF8000
0003FFF00000
ENDCHAR
STARTCHAR 0120
ENCODING 288
SWIDTH 552 0
DWIDTH 53 0
BBX 44 80 3 -1
BITMAP
000000F00000
000003FC0000
000007FE0000
000007FE0000
00000FFF0000
00000FFF0000
00000FFF0000
00000FFF0000
000007FE0000
000007FE0000
000003FC0000
000000F00000
000000000000
000000000000
000000000000
000000000000
000000000000
000001FFE000
00001FFFFE00
0000FFFFFF80
0003FFFFFFE0
0007FFFFFFF0
001FFFFFFFF0
003FFFFFFFF0
007FFFFFFFF0
00FFFF001FF0
01FFF80003F0
03FFE0000070
03FFC0000010
07FF00000000
0FFE00000000
0FFC00000000
1FFC00000000
1FF800000000
1FF000000000
3FF000000000
3FE000000000
7FE000000000
7FE000000000
7FC000000000
7FC000000000
7FC000000000
FFC000000000
FF8000000000
FF8000000000
FF8001FFFFF0
FF8001FFFFF0
FF8001FFFFF0
FF8001FFFFF0
FF8001FFFFF0
FF8001FFFFF0
FF8001FFFFF0
FF8000000FF0
FF8000000FF0
FF8000000FF0
FF8000000FF0
FFC000000FF0
7FC000000FF0
7FC000000FF0
7FC000000FF0
7FC000000FF0
3FE000000FF0
3FE000000FF0
3FF000000FF0
1FF000000FF0
1FF800000FF0
1FF800000FF0
0FFC00000FF0
07FE00000FF0
07FF00000FF0
03FFC0000FF0
01FFF0000FF0
00FFFE007FF0
007FFFFFFFF0
003FFFFFFFF0
001FFFFFFFF0
0007FFFFFFF0
0003FFFFFF80
00007FFFFC00
000007FF8000
ENDCHAR
STARTCHAR 0121
ENCODING 289
SWIDTH 552 0
DWIDTH 53 0
BBX 45 86 4 -20
BITMAP
00000F000000
00003FC00000
00007FE00000
00007FE00000
0000FFF00000
0000FFF00000
0000FFF00000
0000FFF00000
00007FE00000
00007FE00000
00003FC00000
00000F000000
000000000000
000000000000
000000000000
000000000000
000000000000
000000000000
00007FC00000
0007FFFFFFF8
001FFFFFFFF8
007FFFFFFFF8
00FFFFFFFFF8
01FFFFFFFFF8
03FFC07FFFF8
07FF001FFFF8
07FC0007FC00
0FF80003FC00
0FF80003FE00
0FF00001FE00
1FF00001FF00
1FE00000FF00
1FE00000FF00
1FE00000FF00
1FE00000FF00
1FE00000FF00
1FE00000FF00
1FF00001FF00
0FF00001FE00
0FF00003FE00
0FF80003FE00
07FC0007FC00
07FF001FFC00
03FFC07FF800
03FFFFFFF000
03FFFFFFE000
07FFFFFFC000
0FFFFFFF0000
0FE7FFFC0000
1FE07FE00000
1FC000000000
3FC000000000
3FC000000000
3FC000000000
3FC000000000
3FE000000000
3FF000000000
3FFFC0000000
1FFFFFFFC000
0FFFFFFFF800
0FFFFFFFFE00
03FFFFFFFF80
03FFFFFFFFC0
07FFFFFFFFE0
0FFC1FFFFFF0
1FF80001FFF0
3FF000003FF0
7FE000001FF8
7FC000000FF8
7FC000000FF8
FF8000000FF8
FF8000000FF8
FF8000000FF8
FF8000001FF8
FF8000001FF0
FFC000003FF0
FFE000007FE0
7FF80001FFE0
7FFF000FFFC0
3FFFFFFFFF80
1FFFFFFFFF00
0FFFFFFFFE00
07FFFFFFF800
01FFFFFFE000
003FFFFF8000
0003FFF00000
ENDCHAR
STARTCHAR 0122
ENCODING 290
SWIDTH 552 0
DWIDTH 53 0
BBX 44 81 3 -19
BITMAP
000001FFE000
00001FFFFE00
0000FFFFFF80
0003FFFFFFE0
0007FFFFFFF0
001FFFFFFFF0
003FFFFFFFF0
007FFFFFFFF0
00FFFF001FF0
01FFF80003F0
03FFE0000070
03FFC0000010
07FF00000000
0FFE00000000
0FFC00000000
1FFC00000000
1FF800000000
1FF000000000
3FF000000000
3FE000000000
7FE000000000
7FE000000000
7FC000000000
7FC000000000
7FC000000000
FFC000000000
FF8000000000
FF8000000000
FF8001FFFFF0
FF8001FFFFF0
FF8001FFFFF0
FF8001FFFFF0
FF8001FFFFF0
FF8001FFFFF0
FF8001FFFFF0
FF8000000FF0
FF8000000FF0
FF8000000FF0
FF8000000FF0
FFC000000FF0
7FC000000FF0
7FC000000FF0
7FC000000FF0
7FC000000FF0
3FE000000FF0
3FE000000FF0
3FF000000FF0
1FF000000FF0
1FF800000FF0
1FF800000FF0
0FFC00000FF0
07FE00000FF0
07FF00000FF0
03FFC0000FF0
01FFF0000FF0
00FFFE007FF0
007FFFFFFFF0
003FFFFFFFF0
001FFFFFFFF0
0007FFFFFFF0
0003FFFFFF80
00007FFFFC00
000007FF8000
000000000000
000000000000
000000000000
000000000000
00000FF00000
00000FF00000
00001FE00000
00001FE00000
00001FE00000
00001FC00000
00001FC00000
00003FC00000
00003FC00000
00003F800000
00003F800000
00003F800000
00007F000000
00007F000000
ENDCHAR
STARTCHAR 0123
ENCODING 291
SWIDTH 552 0
DWIDTH 53 0
BBX 45 89 4 -20
BITMAP
000001FC0000
000003FC0000
000003F80000
000003F80000
000007F80000
000007F00000
000007F00000
00000FF00000
00000FF00000
00000FE00000
00001FE00000
00001FE00000
00001FC00000
00003FC00000
000000000000
000000000000
000000000000
000000000000
000000000000
000000000000
000000000000
00007FC00000
0007FFFFFFF8
001FFFFFFFF8
007FFFFFFFF8
00FFFFFFFFF8
01FFFFFFFFF8
03FFC07FFFF8
07FF001FFFF8
07FC0007FC00
0FF80003FC00
0FF80003FE00
0FF00001FE00
1FF00001FF00
1FE00000FF00
1FE00000FF00
1FE00000FF00
1FE00000FF00
1FE00000FF00
1FE00000FF00
1FF00001FF00
0FF00001FE00
0FF00003FE00
0FF80003FE00
07FC0007FC00
07FF001FFC00
03FFC07FF800
03FFFFFFF000
03FFFFFFE000
07FFFFFFC000
0FFFFFFF0000
0FE7FFFC0000
1FE07FE00000
1FC000000000
3FC000000000
3FC000000000
3FC000000000
3FC000000000
3FE000000000
3FF000000000
3FFFC0000000
1FFFFFFFC000
0FFFFFFFF800
0FFFFFFFFE00
03FFFFFFFF80
03FFFFFFFFC0
07FFFFFFFFE0
0FFC1FFFFFF0
1FF80001FFF0
3FF000003FF0
7FE000001FF8
7FC000000FF8
7FC000000FF8
FF8000000FF8
FF8000000FF8
FF8000000FF8
FF8000001FF8
FF8000001FF0
FFC000003FF0
FFE000007FE0
7FF80001FFE0
7FFF000FFFC0
3FFFFFFFFF80
1FFFFFFFFF00
0FFFFFFFFE00
07FFFFFFF800
01FFFFFFE000
003FFFFF8000
0003FFF00000
ENDCHAR
STARTCHAR 0124
ENCODING 292
SWIDTH 552 0
DWIDTH 53 0
BBX 43 78 5 0
BITMAP
00007F800000
0000FFE00000
0001FFF00000
0003FFF80000
000FFFFC0000
001FFBFE0000
003FF1FF0000
007FC0FFC000
00FF803FE000
01FE001FF000
000000000000
000000000000
000000000000
000000000000
000000000000
000000000000
000000000000
FF0000001FE0
FF0000001FE0
FF0000001FE0
FF0000001FE0
FF0000001FE0
FF0000001FE0
FF0000001FE0
FF0000001FE0
FF0000001FE0
FF0000001FE0
FF0000001FE0
FF0000001FE0
FF0000001FE0
FF0000001FE0
FF0000001FE0
FF0000001FE0
FF0000001FE0
FF0000001FE0
FF0000001FE0
FF0000001FE0
FF0000001FE0
FF0000001FE0
FF0000001FE0
FF0000001FE0
FF0000001FE0
FF0000001FE0
FFFFFFFFFFE0
FFFFFFFFFFE0
FFFFFFFFFFE0
FFFFFFFFFFE0
FFFFFFFFFFE0
FFFFFFFFFFE0
FFFFFFFFFFE0
FF0000001FE0
FF0000001FE0
FF0000001FE0
FF0000001FE0
FF0000001FE0
FF0000001FE0
FF0000001FE0
FF0000001FE0
FF0000001FE0
FF0000001FE0
FF0000001FE0
FF0000001FE0
FF0000001FE0
FF0000001FE0
FF0000001FE0
FF0000001FE0
FF0000001FE0
FF0000001FE0
FF0000001FE0
FF0000001FE0
FF0000001FE0
FF0000001FE0
FF0000001FE0
FF0000001FE0
FF0000001FE0
FF0000001FE0
FF0000001FE0
FF0000001FE0
ENDCHAR
STARTCHAR 0125
ENCODING 293
SWIDTH 552 0
DWIDTH 53 0
BBX 38 80 8 0
BITMAP
0003FC0000
0007FF0000
000FFF8000
001FFFC000
007FFFE000
00FFDFF000
01FF8FF800
03FE07FE00
07FC01FF00
0FF000FF80
0000000000
0000000000
0000000000
0000000000
FF00000000
FF00000000
FF00000000
FF00000000
FF00000000
FF00000000
FF00000000
FF00000000
FF00000000
FF00000000
FF00000000
FF00000000
FF00000000
FF00000000
FF00000000
FF00000000
FF00000000
FF00000000
FF001FE000
FF00FFFC00
FF03FFFF00
FF07FFFF80
FF1FFFFFC0
FF3FFFFFE0
FF7FFFFFF0
FFFFE07FF0
FFFF801FF8
FFFE000FF8
FFFC000FF8
FFF80007F8
FFF00007FC
FFE00003FC
FFC00003FC
FF800003FC
FF000003FC
FF000003FC
FF000003FC
FF000003FC
FF000003FC
FF000003FC
FF000003FC
FF000003FC
FF000003FC
FF000003FC
FF000003FC
FF000003FC
FF000003FC
FF000003FC
FF000003FC
FF000003FC
FF000003FC
FF000003FC
FF000003FC
FF000003FC
FF000003FC
FF000003FC
FF000003FC
FF000003FC
FF000003FC
FF000003FC
FF000003FC
FF000003FC
FF000003FC
FF000003FC
FF000003FC
FF000003FC
ENDCHAR
STARTCHAR 0126
ENCODING 294
SWIDTH 552 0
DWIDTH 53 0
BBX 49 61 2 0
BITMAP
07F800000FF000
07F800000FF000
07F800000FF000
07F800000FF000
07F800000FF000
07F800000FF000
07F800000FF000
07F800000FF000
07F800000FF000
07F800000FF000
FFFFFFFFFFFF80
FFFFFFFFFFFF80
FFFFFFFFFFFF80
FFFFFFFFFFFF80
FFFFFFFFFFFF80
FFFFFFFFFFFF80
FFFFFFFFFFFF80
07F800000FF000
07F800000FF000
07F800000FF000
07F800000FF000
07F800000FF000
07F800000FF000
07F800000FF000
07F800000FF000
07F800000FF000
07F800000FF000
07FFFFFFFFF000
07FFFFFFFFF000
07FFFFFFFFF000
07FFFFFFFFF000
07FFFFFFFFF000
07FFFFFFFFF000
07FFFFFFFFF000
07F800000FF000
07F800000FF000
07F800000FF000
07F800000FF000
07F800000FF000
07F800000FF000
07F800000FF000
07F800000FF000
07F800000FF000
07F800000FF000
07F800000FF000
07F800000FF000
07F800000FF000
07F800000FF000
07F800000FF000
07F800000FF000
07F800000FF000
07F800000FF000
07F800000FF000
07F800000FF000
07F800000FF000
07F800000FF000
07F800000FF000
07F800000FF000
07F800000FF000
07F800000FF000
07F800000FF000
ENDCHAR
STARTCHAR 0127
ENCODING 295
SWIDTH 552 0
DWIDTH 53 0
BBX 46 66 0 0
BITMAP
00FF00000000
00FF00000000
00FF00000000
00FF00000000
00FF00000000
00FF00000000
FFFFFFFE0000
FFFFFFFE0000
FFFFFFFE0000
FFFFFFFE0000
FFFFFFFE0000
FFFFFFFE0000
FFFFFFFE0000
00FF00000000
00FF00000000
00FF00000000
00FF00000000
00FF00000000
00FF00000000
00FF00000000
00FF001FE000
00FF00FFFC00
00FF03FFFF00
00FF07FFFF80
00FF0FFFFFC0
00FF1FFFFFE0
00FF3FFFFFF0
00FF7FE07FF0
00FFFF801FF8
00FFFE000FF8
00FFFC000FF8
00FFF80007F8
00FFF00007FC
00FFE00003FC
00FFC00003FC
00FF800003FC
00FF800003FC
00FF000003FC
00FF000003FC
00FF000003FC
00FF000003FC
00FF000003FC
00FF000003FC
00FF000003FC
00FF000003FC
00FF000003FC
00FF000003FC
00FF000003FC
00FF000003FC
00FF000003FC
00FF000003FC
00FF000003FC
00FF000003FC
00FF000003FC
00FF000003FC
00FF000003FC
00FF000003FC
00FF000003FC
00FF000003FC
00FF000003FC
00FF000003FC
00FF000003FC
00FF000003FC
00FF000003FC
00FF000003FC
00FF000003FC
ENDCHAR
STARTCHAR 0128
ENCODING 296
SWIDTH 552 0
DWIDTH 53 0
BBX 36 78 8 0
BITMAP
00FE000000
03FF800300
07FFE00780
0FFFF80FC0
1FFFFE1FE0
3FFFFFFFC0
7F87FFFF80
3F01FFFF00
1E007FFE00
0C003FFC00
000007F000
0000000000
0000000000
0000000000
0000000000
0000000000
0000000000
FFFFFFFFF0
FFFFFFFFF0
FFFFFFFFF0
FFFFFFFFF0
FFFFFFFFF0
FFFFFFFFF0
FFFFFFFFF0
0003FC0000
0003FC0000
0003FC0000
0003FC0000
0003FC0000
0003FC0000
0003FC0000
0003FC0000
0003FC0000
0003FC0000
0003FC0000
0003FC0000
0003FC0000
0003FC0000
0003FC0000
0003FC0000
0003FC0000
0003FC0000
0003FC0000
0003FC0000
0003FC0000
0003FC0000
0003FC0000
0003FC0000
0003FC0000
0003FC0000
0003FC0000
0003FC0000
0003FC0000
0003FC0000
0003FC0000
0003FC0000
0003FC0000
0003FC0000
0003FC0000
0003FC0000
0003FC0000
0003FC0000
0003FC0000
0003FC0000
0003FC0000
0003FC0000
0003FC0000
0003FC0000
0003FC0000
0003FC0000
0003FC0000
FFFFFFFFF0
FFFFFFFFF0
FFFFFFFFF0
FFFFFFFFF0
FFFFFFFFF0
FFFFFFFFF0
FFFFFFFFF0
ENDCHAR
STARTCHAR 0129
ENCODING 297
SWIDTH 552 0
DWIDTH 53 0
BBX 38 66 8 0
BITMAP
00FE000000
03FF800300
07FFE00780
0FFFF80FC0
1FFFFE1FE0
3FFFFFFFC0
7F87FFFF80
3F01FFFF00
1E007FFE00
0C003FFC00
000007F000
0000000000
0000000000
0000000000
0000000000
0000000000
0000000000
0000000000
0000000000
3FFFFF0000
3FFFFF0000
3FFFFF0000
3FFFFF0000
3FFFFF0000
3FFFFF0000
3FFFFF0000
0000FF0000
0000FF0000
0000FF0000
0000FF0000
0000FF0000
0000FF0000
0000FF0000
0000FF0000
0000FF0000
0000FF0000
0000FF0000
0000FF0000
0000FF0000
0000FF0000
0000FF0000
0000FF0000
0000FF0000
0000FF0000
0000FF0000
0000FF0000
0000FF0000
0000FF0000
0000FF0000
0000FF0000
0000FF0000
0000FF0000
0000FF0000
0000FF0000
0000FF0000
0000FF0000
0000FF0000
0000FF0000
0000FF0000
FFFFFFFFFC
FFFFFFFFFC
FFFFFFFFFC
FFFFFFFFFC
FFFFFFFFFC
FFFFFFFFFC
FFFFFFFFFC
ENDCHAR
STARTCHAR 012A
ENCODING 298
SWIDTH 552 0
DWIDTH 53 0
BBX 36 75 8 0
BITMAP
07FFFFFE00
07FFFFFE00
07FFFFFE00
07FFFFFE00
07FFFFFE00
07FFFFFE00
0000000000
0000000000
0000000000
0000000000
0000000000
0000000000
0000000000
0000000000
FFFFFFFFF0
FFFFFFFFF0
FFFFFFFFF0
FFFFFFFFF0
FFFFFFFFF0
FFFFFFFFF0
FFFFFFFFF0
0003FC0000
0003FC0000
0003FC0000
0003FC0000
0003FC0000
0003FC0000
0003FC0000
0003FC0000
0003FC0000
0003FC0000
0003FC0000
0003FC0000
0003FC0000
0003FC0000
0003FC0000
0003FC0000
0003FC0000
0003FC0000
0003FC0000
0003FC0000
0003FC0000
0003FC0000
0003FC0000
0003FC0000
0003FC0000
0003FC0000
0003FC0000
0003FC0000
0003FC0000
0003FC0000
0003FC0000
0003FC0000
0003FC0000
0003FC0000
0003FC0000
0003FC0000
0003FC0000
0003FC0000
0003FC0000
0003FC0000
0003FC0000
0003FC0000
0003FC0000
0003FC0000
0003FC0000
0003FC0000
0003FC0000
FFFFFFFFF0
FFFFFFFFF0
FFFFFFFFF0
FFFFFFFFF0
FFFFFFFFF0
FFFFFFFFF0
FFFFFFFFF0
ENDCHAR
STARTCHAR 012B
ENCODING 299
SWIDTH 552 0
DWIDTH 53 0
BBX 38 63 8 0
BITMAP
03FFFFFE00
03FFFFFE00
03FFFFFE00
03FFFFFE00
03FFFFFE00
03FFFFFE00
0000000000
0000000000
0000000000
0000000000
0000000000
0000000000
0000000000
0000000000
0000000000
0000000000
3FFFFF0000
3FFFFF0000
3FFFFF0000
3FFFFF0000
3FFFFF0000
3FFFFF0000
3FFFFF0000
0000FF0000
0000FF0000
0000FF0000
0000FF0000
0000FF0000
0000FF0000
0000FF0000
0000FF0000
0000FF0000
0000FF0000
0000FF0000
0000FF0000
0000FF0000
0000FF0000
0000FF0000
0000FF0000
0000FF0000
0000FF0000
0000FF0000
0000FF0000
0000FF0000
0000FF0000
0000FF0000
0000FF0000
0000FF0000
0000FF0000
0000FF0000
0000FF0000
0000FF0000
0000FF0000
0000FF0000
0000FF0000
0000FF0000
FFFFFFFFFC
FFFFFFFFFC
FFFFFFFFFC
FFFFFFFFFC
FFFFFFFFFC
FFFFFFFFFC
FFFFFFFFFC
ENDCHAR
STARTCHAR 012C
ENCODING 300
SWIDTH 552 0
DWIDTH 53 0
BBX 36 78 8 0
BITMAP
03F000FC00
03F000FC00
03F801FC00
03F801FC00
01FE07F800
01FFFFF800
00FFFFF000
007FFFE000
003FFFC000
001FFF8000
0003FC0000
0000000000
0000000000
0000000000
0000000000
0000000000
0000000000
FFFFFFFFF0
FFFFFFFFF0
FFFFFFFFF0
FFFFFFFFF0
FFFFFFFFF0
FFFFFFFFF0
FFFFFFFFF0
0003FC0000
0003FC0000
0003FC0000
0003FC0000
0003FC0000
0003FC0000
0003FC0000
0003FC0000
0003FC0000
0003FC0000
0003FC0000
0003FC0000
0003FC0000
0003FC0000
0003FC0000
0003FC0000
0003FC0000
0003FC0000
0003FC0000
0003FC0000
0003FC0000
0003FC0000
0003FC0000
0003FC0000
0003FC0000
0003FC0000
0003FC0000
0003FC0000
0003FC0000
0003FC0000
0003FC0000
0003FC0000
0003FC0000
0003FC0000
0003FC0000
0003FC0000
0003FC0000
0003FC0000
0003FC0000
0003FC0000
0003FC0000
0003FC0000
0003FC0000
0003FC0000
0003FC0000
0003FC0000
0003FC0000
FFFFFFFFF0
FFFFFFFFF0
FFFFFFFFF0
FFFFFFFFF0
FFFFFFFFF0
FFFFFFFFF0
FFFFFFFFF0
ENDCHAR
ENDFONT
